/* XPM */
static char *result[] = {
/* columns rows colors chars-per-pixel */
"60 60 122 2 ",
"   c #1B2227",
".  c #11232D",
"X  c #1D272C",
"o  c #1E292E",
"O  c #1F2C33",
"+  c #173134",
"@  c #1C3135",
"#  c #17303E",
"$  c #1F3039",
"%  c #262B2D",
"&  c #282929",
"*  c #232D33",
"=  c #252F3B",
"-  c #213037",
";  c #21303A",
":  c #28343A",
">  c #2D2E41",
",  c #382C46",
"<  c #3A2C49",
"1  c #243641",
"2  c #253843",
"3  c #2A3A44",
"4  c #263B49",
"5  c #462C52",
"6  c #512B5A",
"7  c #443B5E",
"8  c #5D2A63",
"9  c #622966",
"0  c #6D276E",
"q  c #6A286C",
"w  c #722872",
"e  c #23414D",
"r  c #2A414F",
"t  c #2A4453",
"y  c #2B4759",
"u  c #2B4A5B",
"i  c #304B5A",
"p  c #2C4D61",
"a  c #2F5064",
"s  c #315266",
"d  c #31566D",
"f  c #31586E",
"g  c #345D73",
"h  c #36637C",
"j  c #396682",
"k  c #3A6A86",
"l  c #3C6E8B",
"z  c #3D718F",
"x  c #3E7291",
"c  c #3B779A",
"v  c #3E7B9E",
"b  c #3C7CA1",
"n  c #417696",
"m  c #417698",
"M  c #427B9D",
"N  c #437EA0",
"B  c #872580",
"V  c #8B2785",
"C  c #92288A",
"Z  c #9D2792",
"A  c #9E2892",
"S  c #A22896",
"D  c #64899D",
"F  c #778F9B",
"G  c #76909D",
"H  c #4581A5",
"J  c #4982A3",
"K  c #4685AA",
"L  c #4886AC",
"P  c #4988AF",
"I  c #5E8BA7",
"U  c #5689A9",
"Y  c #5B8CAA",
"T  c #4B8BB3",
"R  c #468FBD",
"E  c #4C8FB9",
"W  c #4590BE",
"Q  c #4E92BC",
"!  c #5F96B8",
"~  c #7E99A7",
"^  c #6297B7",
"/  c #6D97B1",
"(  c #6D99B3",
")  c #719AB4",
"_  c #4792C0",
"`  c #4F95C0",
"'  c #5096C1",
"]  c #5199C5",
"[  c #959B97",
"{  c #A9A395",
"}  c #BFAD94",
"|  c #9CA6A5",
" . c #88A5B3",
".. c #8AA8B6",
"X. c #8BA9B8",
"o. c #ACB1B6",
"O. c #B1BABF",
"+. c #D7B68F",
"@. c #D9B68E",
"#. c #DDB98E",
"$. c #C2AD92",
"%. c #C9B79E",
"&. c #DBB890",
"*. c #E1BB8D",
"=. c #E5C39B",
"-. c #E9C69B",
";. c #DCC7A9",
":. c #DFCBAE",
">. c #E5CCAA",
",. c #F7D1A4",
"<. c #FBD4A5",
"1. c #FFDAA7",
"2. c #FFD8A8",
"3. c #BBBEC0",
"4. c #BFC2C4",
"5. c #C0C3C5",
"6. c #E5E7E9",
"7. c #E9EAEA",
"8. c #E5EDF1",
"9. c #ECF1F5",
"0. c #FCFDFD",
"q. c None",
/* pixels */
"q.q.q.q.q.q.q.q.q.q.q.q.q.q.q.q.q.q.q.q.q.q.q.q.q.q.q.q.q.q.q.q.q.q.q.q.q.q.q.q.q.q.q.q.q.q.q.q.q.q.q.q.q.q.q.q.q.q.q.q.",
"q.q.q.q.q.q.q.q.q.q.q.q.q.q.q.q.q.q.q.q.q.q.q.q.q.q.q.q.q.q.q.q.q.q.q.q.q.q.q.q.q.q.q.q.q.q.q.q.q.q.q.q.q.q.q.q.q.q.q.q.",
"q.q.q.q.q.q.q.q.q.q.q.q.q.q.q.q.q.q.q.q.q.q.q.q.q.q.q.q.q.q.q.q.q.q.q.q.q.q.q.q.q.q.q.q.q.q.q.q.q.q.q.q.q.q.q.q.q.q.q.q.",
"q.q.q.q.q.q.q.q.q.q.q.q.q.q.q.q.q.q.q.q.q.q.q.q.q.q.q.q.q.q.q.q.q.q.q.q.q.q.q.q.q.q.q.q.q.q.q.q.q.q.q.q.q.q.q.q.q.q.q.q.",
"q.q.q.q.q.q.q.q.q.q.q.q.q.q.q.q.q.q.q.q.q.q.q.q.q.q.q.q.q.q.q.q.q.q.q.q.q.q.q.q.q.q.q.q.q.q.q.q.q.q.q.q.q.q.q.q.q.q.q.q.",
"q.q.q.q.q.q.q.q.q.q.q.q.q.q.q.q.& % % % % % % % % % % % % % % % % % % % % % % % % % % % % % & q.q.q.q.q.q.q.q.q.q.q.q.q.",
"q.q.q.q.q.q.q.q.q.q.q.q.q.q.q.q.% = $ = ; $ = $ ; ; O ; ; O ; ; $ ; ; ; ; ; ; ; ; ; ; ; ; ; * q.q.q.q.q.q.q.q.q.q.q.q.q.",
"q.q.q.q.q.q.q.q.q.q.q.q.q.q.q.q.& O O o O O o O O O O O O O O O O - ; - O O o O O O O O ; ; * q.q.q.q.q.q.q.q.q.q.q.q.q.",
"q.q.q.q.q.q.q.q.q.q.q.q.q.q.* % 4 l l n l n l n z x x x z x z n k ; O t j h h h h h h f O - * * * q.q.q.q.q.q.q.q.q.q.q.",
"q.q.q.q.q.q.q.q.q.q.q.q.q.q.- O s ' ' ' ' ' ' ' ' ` ' Q ' ' ' ' E : O p K H H H H H K l * ; ; ; $ q.q.q.q.q.q.q.q.q.q.q.",
"q.q.q.q.q.q.q.q.q.q.q.q.q.q.; - s E Q Q E Q Q Q Q Q Q Q Q Q E Q P 2 : s M M H J H M H l O ; - ; = q.q.q.q.q.q.q.q.q.q.q.",
"q.q.q.q.q.q.q.q.q.q.q.* O : H P T ' Q Q Q Q Q Q Q Q Q Q Q Q K N Y 6.7.o.# # O.9.8.U b l O @ 9 C V , $ * q.q.q.q.q.q.q.q.",
"q.q.q.q.q.q.q.q.q.q.q.* O 2 T ' ' ` Q Q Q Q Q Q Q ' ' Q Q Q H M Y 0.0.3.. . 5.0.0.U H k $ + q S A < - - q.q.q.q.q.q.q.q.",
"q.q.q.q.q.q.q.q.q.q.q.* $ 1 m N N ' Q Q Q Q Q Q E N N T Q Q H b Y 0.0.4.. . 5.0.0.U v l O + q S Z < @ - q.q.q.q.q.q.q.q.",
"q.q.q.q.q.q.q.q.q.q.q.* ; ; O o p Q Q Q Q Q E ` N * X g ' Q K M Y 0.0.4.. . 4.0.0.U N l O @ q S Z < $ - q.q.q.q.q.q.q.q.",
"q.q.q.q.q.q.q.q.q.q.q.* ; $ O X i E Q Q Q E ` ' N % X g ' Q H v Y 0.0.O.. . 4.0.0.Y b l * + q S A < @ - q.q.q.q.q.q.q.q.",
"q.q.q.q.q.q.q.q.q.q.q.* $ : h j n E Q Q Q Q Q Q P j j M Q Q K M Y 0.0.3.. . 4.0.0.U N l O $ 5 9 9 : $ - q.q.q.q.q.q.q.q.",
"q.q.q.q.q.q.q.q.q.q.q.* $ 2 T ' E ' Q Q Q Q Q Q Q ' ' Q Q Q K M I 0.0.3.. . 4.0.0.U b l O ; $ + O $ ; * q.q.q.q.q.q.q.q.",
"q.q.q.q.q.q.q.q.q.q.q.* * 2 P Q Q Q Q Q Q Q Q Q Q Q Q Q Q Q H M Y 0.0.3.. . 4.0.0.U H l O $ ; - ; ; ; - q.q.q.q.q.q.q.q.",
"q.q.q.q.q.q.q.q.q.q.q.* $ 2 P Q Q Q Q Q Q Q Q Q Q Q Q Q Q Q K N J ) ) I z l I ( / i e 7 B B 6 @ ; q.q.q.q.q.q.q.q.q.q.q.",
"q.q.q.q.q.q.q.q.q.q.q.* $ 2 P Q Q Q Q Q Q Q Q Q Q Q Q Q Q Q H N n c v v H H v c c ; + 5 Z S 8 + ; q.q.q.q.q.q.q.q.q.q.q.",
"q.q.q.q.q.q.q.q.q.q.q.* O 2 P Q Q Q Q Q Q Q Q Q Q Q Q Q Q Q H N H H H v M H H M M 2 @ 5 Z A 8 @ = q.q.q.q.q.q.q.q.q.q.q.",
"q.q.q.q.q.q.q.q.q.q.q.* $ 2 P Q Q Q Q Q Q Q Q Q Q Q Q Q Q Q K N H n J c H M H M M 2 @ 5 Z A 8 + ; q.q.q.q.q.q.q.q.q.q.q.",
"q.q.q.q.q.q.q.q.q.q.q.* * 2 T ' ' ' Q ' ' ' Q ' Q Q Q Q Q Q H N M H M H M H M H M 2 @ 5 S S 8 + ; q.q.q.q.q.q.q.q.q.q.q.",
"q.q.q.q.q.q.q.q.q.q.q.* O 1 j z l z z l l l l l m Q Q E T T H N H M H M H M H M M 2 $ , w w 5 @ ; q.q.q.q.q.q.q.q.q.q.q.",
"q.q.q.q.q.q.q.q.q.q.q.* ; ; o O O O o O O O O X t Q Q P M M N N M H M H M H H H M 2 * $ + + $ ; ; q.q.q.q.q.q.q.q.q.q.q.",
"q.q.q.q.q.q.q.q.q.q.q.* ; = $ ; - ; ; $ = = * O t Q Q T N N N M H M H M M M H H N 2 ; ; - ; ; ; ; q.q.q.q.q.q.q.q.q.q.q.",
"q.q.q.q.q.q.q.q.q.q.q.& % % % % % & % * - $ l M N Q Q E T T T T P H M H H H f t u ; ; * q.q.q.q.q.q.q.q.q.q.q.q.q.q.q.q.",
"q.q.q.q.q.q.q.q.q.q.q.q.q.q.q.q.q.q.q.* ; ; T ' ' Q Q Q Q Q Q Q E H M M N H p X O ; ; * q.q.q.q.q.q.q.q.q.q.q.q.q.q.q.q.",
"q.q.q.q.q.q.q.q.q.q.q.q.q.q.q.q.q.q.q.* ; ; L Q Q Q Q Q Q Q Q Q Q H H M N N p O ; ; $ * q.q.q.q.q.q.q.q.q.q.q.q.q.q.q.q.",
"q.q.q.q.q.q.q.q.q.q.q.q.q.q.q.q.q.q.q.* ; ; L Q Q Q Q Q Q Q Q Q Q M M N N H p O - q.q.q.q.q.q.q.q.q.q.q.q.q.q.q.q.q.q.q.",
"q.q.q.q.q.q.q.q.q.q.q.q.q.q.q.q.q.q.q.* ; ; K W R R R R R R R R W b b b N H p O - q.q.q.q.q.q.q.q.q.q.q.q.q.q.q.q.q.q.q.",
"q.q.q.q.q.q.q.q.q.q.q.q.q.q.q.q.q.q.q.* ; : ~ X.X.X..... ....... .G F D N H p O $ q.q.q.q.q.q.q.q.q.q.q.q.q.q.q.q.q.q.q.",
"q.q.q.q.q.q.q.q.q.q.q.q.q.q.q.q.q.q.q.% ; = -.2.1.1.1.2.2.2.1.1.<.*.*.{ b H p O - q.q.q.q.q.q.q.q.q.q.q.q.q.q.q.q.q.q.q.",
"q.q.q.q.q.q.q.q.q.q.q.q.q.q.q.q.q.q.q.* $ = =.2.2.1.2.2.2.2.2.2.,.&.*.{ b N u X O q.q.q.q.q.q.q.q.q.q.q.q.q.q.q.q.q.q.q.",
"q.q.q.q.q.q.q.q.q.q.q.q.q.q.q.q.q.q.q.* $ : =.2.2.2.2.2.2.2.2.2.2.&.#.{ b N c l k : * * * * % q.q.q.q.q.q.q.q.q.q.q.q.q.",
"q.q.q.q.q.q.q.q.q.q.q.q.q.q.q.q.q.q.q.% ; ; >.2.2.1.2.2.2.2.2.2.,.#.#.{ b N E ` Q 4 $ = ; ; * q.q.q.q.q.q.q.q.q.q.q.q.q.",
"q.q.q.q.q.q.q.q.q.q.q.q.q.q.q.q.q.q.q.* ; ; =.2.2.2.2.2.2.2.2.2.<.&.#.{ b N T Q E 4 ; $ ; ; * q.q.q.q.q.q.q.q.q.q.q.q.q.",
"q.q.q.q.q.q.q.q.q.q.q.q.q.q.q.q.q.q.q.* ; ; =.2.2.2.2.2.2.2.2.2.<.&.#.{ b N N H H K T x O = % q.q.q.q.q.q.q.q.q.q.q.q.q.",
"q.q.q.q.q.q.q.q.q.q.q.q.q.q.q.q.q.q.q.* ; ; -.2.2.2.2.2.<.2.2.2.2.#.#.{ b N N N N Q ] N O : % q.q.q.q.q.q.q.q.q.q.q.q.q.",
"q.q.q.q.q.q.q.q.q.q.q.q.q.q.q.q.q.q.q.* * : %.:.>.,.,.,.,.,.>.>.;.} $.[ b N N N N H K l * ; * q.q.q.q.q.q.q.q.q.q.q.q.q.",
"q.q.q.q.q.q.q.q.q.q.q.q.q.q.q.q.q.q.q.* = ; K _ ( @.+.+.@.@.) R E N b N N N N N M 1 O * $ ; * q.q.q.q.q.q.q.q.q.q.q.q.q.",
"q.q.q.q.q.q.q.q.q.q.q.q.q.q.q.q.q.q.q.* $ ; K _ ( #.#.#.#.*.) W Q v N N N N N H N 2 * ; = ; * q.q.q.q.q.q.q.q.q.q.q.q.q.",
"q.q.q.q.q.q.q.q.q.q.q.q.q.q.q.q.q.q.q.% ; ; L ` ^ | | | | | ^ Q Q P K K N H j g g - * * * * % q.q.q.q.q.q.q.q.q.q.q.q.q.",
"q.q.q.q.q.q.q.q.q.q.q.q.q.q.q.q.q.q.q.* ; ; P Q Q R W W R _ W Q Q Q Q T N H u X * q.q.q.q.q.q.q.q.q.q.q.q.q.q.q.q.q.q.q.",
"q.q.q.q.q.q.q.q.q.q.q.q.q.q.q.q.q.q.q.* ; ; L Q Q Q Q Q ` Q Q ' Q Q Q T N H p O - q.q.q.q.q.q.q.q.q.q.q.q.q.q.q.q.q.q.q.",
"q.q.q.q.q.q.q.q.q.q.q.q.q.q.q.q.q.q.q.* ; ; K ` Q H K k y u u u a Q Q T N H p O * q.q.q.q.q.q.q.q.q.q.q.q.q.q.q.q.q.q.q.",
"q.q.q.q.q.q.q.q.q.q.q.q.q.q.q.q.q.q.q.* ; ; P Q E N H g o O O O 2 Q Q E N H p O ; q.q.q.q.q.q.q.q.q.q.q.q.q.q.q.q.q.q.q.",
"q.q.q.q.q.q.q.q.q.q.q.q.q.q.q.q.q.q.q.* * ; N T K m M f O ; * * 4 K T H c v u O - q.q.q.q.q.q.q.q.q.q.q.q.q.q.q.q.q.q.q.",
"q.q.q.q.q.q.q.q.q.q.q.q.q.q.q.q.q.q.q.q.q.q.; ; : ; ; ; ; ; q.q.% ; ; ; : ; ; ; - q.q.q.q.q.q.q.q.q.q.q.q.q.q.q.q.q.q.q.",
"q.q.q.q.q.q.q.q.q.q.q.q.q.q.q.q.q.q.q.q.q.q.- ; ; ; ; ; $ ; q.q.& ; ; - ; - - ; ; q.q.q.q.q.q.q.q.q.q.q.q.q.q.q.q.q.q.q.",
"q.q.q.q.q.q.q.q.q.q.q.q.q.q.q.q.q.q.q.q.q.q.% * * * * * * * q.q.& * * * * * * * * q.q.q.q.q.q.q.q.q.q.q.q.q.q.q.q.q.q.q.",
"q.q.q.q.q.q.q.q.q.q.q.q.q.q.q.q.q.q.q.q.q.q.q.q.q.q.q.q.q.q.q.q.q.q.q.q.q.q.q.q.q.q.q.q.q.q.q.q.q.q.q.q.q.q.q.q.q.q.q.q.",
"q.q.q.q.q.q.q.q.q.q.q.q.q.q.q.q.q.q.q.q.q.q.q.q.q.q.q.q.q.q.q.q.q.q.q.q.q.q.q.q.q.q.q.q.q.q.q.q.q.q.q.q.q.q.q.q.q.q.q.q.",
"q.q.q.q.q.q.q.q.q.q.q.q.q.q.q.q.q.q.q.q.q.q.q.q.q.q.q.q.q.q.q.q.q.q.q.q.q.q.q.q.q.q.q.q.q.q.q.q.q.q.q.q.q.q.q.q.q.q.q.q.",
"q.q.q.q.q.q.q.q.q.q.q.q.q.q.q.q.q.q.q.q.q.q.q.q.q.q.q.q.q.q.q.q.q.q.q.q.q.q.q.q.q.q.q.q.q.q.q.q.q.q.q.q.q.q.q.q.q.q.q.q.",
"q.q.q.q.q.q.q.q.q.q.q.q.q.q.q.q.q.q.q.q.q.q.q.q.q.q.q.q.q.q.q.q.q.q.q.q.q.q.q.q.q.q.q.q.q.q.q.q.q.q.q.q.q.q.q.q.q.q.q.q.",
"q.q.q.q.q.q.q.q.q.q.q.q.q.q.q.q.q.q.q.q.q.q.q.q.q.q.q.q.q.q.q.q.q.q.q.q.q.q.q.q.q.q.q.q.q.q.q.q.q.q.q.q.q.q.q.q.q.q.q.q.",
"q.q.q.q.q.q.q.q.q.q.q.q.q.q.q.q.q.q.q.q.q.q.q.q.q.q.q.q.q.q.q.q.q.q.q.q.q.q.q.q.q.q.q.q.q.q.q.q.q.q.q.q.q.q.q.q.q.q.q.q.",
"q.q.q.q.q.q.q.q.q.q.q.q.q.q.q.q.q.q.q.q.q.q.q.q.q.q.q.q.q.q.q.q.q.q.q.q.q.q.q.q.q.q.q.q.q.q.q.q.q.q.q.q.q.q.q.q.q.q.q.q."
};
