/* XPM */
static char *result[] = {
/* columns rows colors chars-per-pixel */
"60 60 115 2 ",
"   c #1B2227",
".  c #12232D",
"X  c #1B262B",
"o  c #1E282D",
"O  c #122530",
"+  c #162C37",
"@  c #1F2D34",
"#  c #1C2F39",
"$  c #1C3135",
"%  c #1F3139",
"&  c #262A2B",
"*  c #28292D",
"=  c #232D33",
"-  c #232F3B",
";  c #2A2E3E",
":  c #213037",
">  c #21303A",
",  c #2D2E40",
"<  c #342D45",
"1  c #3A2C49",
"2  c #233742",
"3  c #253844",
"4  c #273E4A",
"5  c #2B3F4A",
"6  c #462C52",
"7  c #4B2B56",
"8  c #58295F",
"9  c #453155",
"0  c #5C2A62",
"q  c #6A286C",
"w  c #294352",
"e  c #2B4759",
"r  c #2C4B5D",
"t  c #2C4D60",
"y  c #2F5469",
"u  c #305267",
"i  c #30556B",
"p  c #32586F",
"a  c #345C72",
"s  c #36617B",
"d  c #55524B",
"f  c #485157",
"g  c #595851",
"h  c #495760",
"j  c #456070",
"k  c #4F6570",
"l  c #9A876E",
"z  c #9D8A71",
"x  c #316484",
"c  c #3A6683",
"v  c #3B6C8A",
"b  c #3D708E",
"n  c #3E7392",
"m  c #3F7B9E",
"M  c #3C7CA1",
"N  c #417798",
"B  c #427B9C",
"V  c #437EA0",
"C  c #487FA1",
"Z  c #96278D",
"A  c #99278F",
"S  c #9D2792",
"D  c #9E2892",
"F  c #A22896",
"G  c #5A859E",
"H  c #678B9E",
"J  c #688B9D",
"K  c #4581A5",
"L  c #4C83A2",
"P  c #4685AB",
"I  c #4986AC",
"U  c #4A88AF",
"Y  c #5286A5",
"T  c #5688A6",
"R  c #5287A8",
"E  c #5A8CAA",
"W  c #4B8BB3",
"Q  c #478FBA",
"!  c #4D8FB9",
"~  c #4590BE",
"^  c #4E92BC",
"/  c #6292AF",
"(  c #6E93A9",
")  c #6197B7",
"_  c #6E99B3",
"`  c #749DB4",
"'  c #79A1B8",
"]  c #4E95C0",
"[  c #5096C1",
"{  c #5199C5",
"}  c #9D9E96",
"|  c #A19B8C",
" . c #A8A395",
".. c #A9AAA2",
"X. c #B3B9BE",
"o. c #B8BDBF",
"O. c #DDB98E",
"+. c #CBB291",
"@. c #DBB990",
"#. c #D4BC9D",
"$. c #E2BF95",
"%. c #E5C39B",
"&. c #E8C59B",
"*. c #EDC99E",
"=. c #EED1AB",
"-. c #FBD4A5",
";. c #FFD8A8",
":. c #B7BEC1",
">. c #BABEC0",
",. c #BFC2C4",
"<. c #EEF3F5",
"1. c #F4F6F9",
"2. c #F6F9FA",
"3. c #FCFDFD",
"4. c None",
/* pixels */
"4.4.4.4.4.4.4.4.4.4.4.4.4.4.4.4.4.4.4.4.4.4.4.4.4.4.4.4.4.4.4.4.4.4.4.4.4.4.4.4.4.4.4.4.4.4.4.4.4.4.4.4.4.4.4.4.4.4.4.4.",
"4.4.4.4.4.4.4.4.4.4.4.4.4.4.4.4.4.4.4.4.4.4.4.4.4.4.4.4.4.4.4.4.4.4.4.4.4.4.4.4.4.4.4.4.4.4.4.4.4.4.4.4.4.4.4.4.4.4.4.4.",
"4.4.4.4.4.4.4.4.4.4.4.4.4.4.4.4.4.4.4.4.4.4.4.4.4.4.4.4.4.4.4.4.4.4.4.4.4.4.4.4.4.4.4.4.4.4.4.4.4.4.4.4.4.4.4.4.4.4.4.4.",
"4.4.4.4.4.4.4.4.4.4.4.4.4.4.4.4.4.4.4.4.4.4.4.4.4.4.4.4.4.4.4.4.4.4.4.4.4.4.4.4.4.4.4.4.4.4.4.4.4.4.4.4.4.4.4.4.4.4.4.4.",
"4.4.4.4.4.4.4.4.4.4.4.4.4.4.4.4.4.4.4.4.4.4.4.4.4.4.4.4.4.4.4.4.4.4.4.4.4.4.4.4.4.4.4.4.4.4.4.4.4.4.4.4.4.4.4.4.4.4.4.4.",
"4.4.4.4.4.4.4.4.4.4.4.4.4.4.4.4.4.4.4.4.4.4.4.4.4.4.4.4.4.4.4.4.4.4.4.4.4.4.4.4.4.4.4.4.4.4.4.4.4.4.4.4.4.4.4.4.4.4.4.4.",
"4.4.4.4.4.4.4.4.4.4.4.4.4.4.4.4.4.4.4.4.4.4.4.4.4.4.4.4.4.4.4.4.4.4.4.4.4.4.4.4.4.4.4.4.4.4.4.4.4.4.4.4.4.4.4.4.4.4.4.4.",
"4.4.4.4.4.4.4.4.4.4.4.4.4.4.4.4.& = = * = = = * = = * = = * = = * = = * = = = = = = = * = = * 4.4.4.4.4.4.4.4.4.4.4.4.4.",
"4.4.4.4.4.4.4.4.4.4.4.4.4.4.4.4.* : > > : : > > : : : : > % : : % : > % > > : > > % % - > > = 4.4.4.4.4.4.4.4.4.4.4.4.4.",
"4.4.4.4.4.4.4.4.4.4.4.4.4.4.4.4.& = - - : = - - - : - = - - # - - : > - # - : : : = = - : : * 4.4.4.4.4.4.4.4.4.4.4.4.4.",
"4.4.4.4.4.4.4.4.4.4.4.4.4.4.$ & e K K K K K K K K K K K K K K K B > # e n b b b n v n s - : : : : 4.4.4.4.4.4.4.4.4.4.4.",
"4.4.4.4.4.4.4.4.4.4.4.4.4.4.$ o t ^ ^ [ ^ [ ^ ^ ^ ^ [ [ [ ^ [ [ W $ X t K K M V M K K v # : : $ $ 4.4.4.4.4.4.4.4.4.4.4.",
"4.4.4.4.4.4.4.4.4.4.4.& & & w 3 a ^ ^ ^ ^ ^ ^ ^ ^ ^ ^ ^ ^ ^ ! ! U f f j N n T ) / C K v @ $ ; < < 4.4.4.4.4.4.4.4.4.4.4.",
"4.4.4.4.4.4.4.4.4.4.4.= = 2 I ^ ^ ^ ^ ^ ^ ^ ^ ^ ^ ^ ^ ! ^ ^ K B / 2.3.,.. . ,.3.2.E M v @ $ q D S 1 : = 4.4.4.4.4.4.4.4.",
"4.4.4.4.4.4.4.4.4.4.4.= # 3 ! [ ^ ^ ^ ^ ^ ^ ^ ^ ^ [ [ ] ^ ^ K V E 3.3.o.. . ,.3.2.E M v @ $ q D A 1 $ - 4.4.4.4.4.4.4.4.",
"4.4.4.4.4.4.4.4.4.4.4.= = > c b N ! ^ ^ ^ ^ ^ ^ W v v C [ ^ K M E 3.3.o.. . ,.3.2.E V v @ $ q D D 1 $ : 4.4.4.4.4.4.4.4.",
"4.4.4.4.4.4.4.4.4.4.4.= : : o o r ^ ^ ^ ^ ^ ^ ) K o   s ^ ^ P B E 3.3.>.. . ,.3.3.E V v @ $ q D A 1 : : 4.4.4.4.4.4.4.4.",
"4.4.4.4.4.4.4.4.4.4.4.= : : # o t ^ ^ ^ ^ ^ ^ ^ K o X s ^ ^ P B E 3.3.>.. . ,.3.2.E M v @ $ q F D 1 : : 4.4.4.4.4.4.4.4.",
"4.4.4.4.4.4.4.4.4.4.4.= - > n N C ^ ^ ^ ^ ^ ^ ^ W N N I ^ ^ P m E 3.3.:.. . ,.3.2.R V v # : 1 7 7 ; : : 4.4.4.4.4.4.4.4.",
"4.4.4.4.4.4.4.4.4.4.4.= : 3 W ] ^ ^ ^ ^ ^ ! ! ^ ^ [ [ ^ ^ ^ P m E 3.3.:.. . ,.3.3.E K v # % $ $ $ : > : 4.4.4.4.4.4.4.4.",
"4.4.4.4.4.4.4.4.4.4.4.= = 2 U ^ ^ ^ ^ ^ ^ ^ ^ ^ ^ ^ ^ ^ ^ ^ K m T <.2.X.+ + :.2.<.Y m c ; ; : : : : : : 4.4.4.4.4.4.4.4.",
"4.4.4.4.4.4.4.4.4.4.4.= : 2 U ^ ^ ^ ^ ^ ^ ^ ^ ^ ! ^ ^ ^ ^ ^ P B K Y G L n B L Y L w % 9 Z A 8 $ > 4.4.4.4.4.4.4.4.4.4.4.",
"4.4.4.4.4.4.4.4.4.4.4.= # 2 U ^ ^ ^ ^ ^ ^ ^ ^ ^ ^ ^ ^ ^ ^ ^ P B B M B K K V B M N 2 $ 6 F D 0 $ > 4.4.4.4.4.4.4.4.4.4.4.",
"4.4.4.4.4.4.4.4.4.4.4.= - 2 U ^ ^ ^ ^ ^ ^ ^ ^ ^ ^ ^ ^ ^ ^ ^ P B K B K M K V K V B 3 $ 6 D D 0 $ > 4.4.4.4.4.4.4.4.4.4.4.",
"4.4.4.4.4.4.4.4.4.4.4.= # 2 U ^ ^ ^ ^ ^ ^ ^ ^ ^ ^ ^ ^ ^ ^ ^ P B K B K B K n K B B 3 $ 6 D D 0 $ > 4.4.4.4.4.4.4.4.4.4.4.",
"4.4.4.4.4.4.4.4.4.4.4.= = 2 W ] ^ [ [ [ [ [ [ ] ^ ^ ^ ^ ^ ^ P B m K B K K K B B B 2 $ 6 D F 0 $ > 4.4.4.4.4.4.4.4.4.4.4.",
"4.4.4.4.4.4.4.4.4.4.4.= : 2 p a a a a p a a a p s ^ ^ ! P P K K K B K B K B B K B 3 $ < 0 8 1 % > 4.4.4.4.4.4.4.4.4.4.4.",
"4.4.4.4.4.4.4.4.4.4.4.= : : @ o o = o @ @ o @ o w ^ ^ W B B K B B K B K B K K B B 3 $ $ $ $ % : : 4.4.4.4.4.4.4.4.4.4.4.",
"4.4.4.4.4.4.4.4.4.4.4.= : : : : : : : : > : > # e ^ ^ U K B K B B B K B V V V V m 3 : > : : > > : 4.4.4.4.4.4.4.4.4.4.4.",
"4.4.4.4.4.4.4.4.4.4.4.& & * * & * & * = > > C U U ^ ^ ^ W ^ ^ ^ ! K B K V C y 2 3 > % = 4.4.4.4.4.4.4.4.4.4.4.4.4.4.4.4.",
"4.4.4.4.4.4.4.4.4.4.4.4.4.4.4.4.4.4.4.= % > P ] ^ ^ Q ~ ~ Q ! ~ Q m M M V K t = = % > - 4.4.4.4.4.4.4.4.4.4.4.4.4.4.4.4.",
"4.4.4.4.4.4.4.4.4.4.4.4.4.4.4.4.4.4.4.= % % ( ' ' ' ' ' ' ' ' ' ' J J G m K r # % = = = 4.4.4.4.4.4.4.4.4.4.4.4.4.4.4.4.",
"4.4.4.4.4.4.4.4.4.4.4.4.4.4.4.4.4.4.4.= : > *.;.;.;.;.;.;.;.;.;.-.@.O. .M K t @ # 4.4.4.4.4.4.4.4.4.4.4.4.4.4.4.4.4.4.4.",
"4.4.4.4.4.4.4.4.4.4.4.4.4.4.4.4.4.4.4.= $ ; %.;.;.;.;.;.;.;.;.;.-.@.O. .M V t # - 4.4.4.4.4.4.4.4.4.4.4.4.4.4.4.4.4.4.4.",
"4.4.4.4.4.4.4.4.4.4.4.4.4.4.4.4.4.4.4.= : > &.;.;.;.;.;.;.;.;.;.-.@.O. .M V t @ : - * = = * * 4.4.4.4.4.4.4.4.4.4.4.4.4.",
"4.4.4.4.4.4.4.4.4.4.4.4.4.4.4.4.4.4.4.* : > &.;.;.;.;.;.;.;.;.;.-.@.O. .M V t @ : : % : : - = 4.4.4.4.4.4.4.4.4.4.4.4.4.",
"4.4.4.4.4.4.4.4.4.4.4.4.4.4.4.4.4.4.4.= % > &.;.;.;.;.;.;.;.;.;.-.@.O. .M C t @ = # # = : : = 4.4.4.4.4.4.4.4.4.4.4.4.4.",
"4.4.4.4.4.4.4.4.4.4.4.4.4.4.4.4.4.4.4.= % 2 &.;.;.;.;.;.;.;.;.;.-.@.O. .M V V C C C K v # : = 4.4.4.4.4.4.4.4.4.4.4.4.4.",
"4.4.4.4.4.4.4.4.4.4.4.4.4.4.4.4.4.4.4.* % > &.;.;.;.;.-.;.;.;.;.-.@.O. .M V W ] ] ] { V = > * 4.4.4.4.4.4.4.4.4.4.4.4.4.",
"4.4.4.4.4.4.4.4.4.4.4.4.4.4.4.4.4.4.4.- : > #.=.=.-.-.-.-.-.&.&.%.+.+.} M V W ! ! U W n = > = 4.4.4.4.4.4.4.4.4.4.4.4.4.",
"4.4.4.4.4.4.4.4.4.4.4.4.4.4.4.4.4.4.4.= : > U ^ _ @.@.@.@.@.g - w B L K B K V V V 3 : > : > - 4.4.4.4.4.4.4.4.4.4.4.4.4.",
"4.4.4.4.4.4.4.4.4.4.4.4.4.4.4.4.4.4.4.= > > P ] _ O.O.@.@.$.d . > m B M K B K K V 3 = - > > = 4.4.4.4.4.4.4.4.4.4.4.4.4.",
"4.4.4.4.4.4.4.4.4.4.4.4.4.4.4.4.4.4.4.= > > U ^ )  ...| l z k p s P P P B K v s a 2 - # * - & 4.4.4.4.4.4.4.4.4.4.4.4.4.",
"4.4.4.4.4.4.4.4.4.4.4.4.4.4.4.4.4.4.4.* > > I ^ ] ] ] x . O V { ^ ^ ^ W B K r o # - - = 4.4.4.4.4.4.4.4.4.4.4.4.4.4.4.4.",
"4.4.4.4.4.4.4.4.4.4.4.4.4.4.4.4.4.4.4.= > > U [ ] ] { v @ @ V ] ^ ^ ^ W K K t : % % : = 4.4.4.4.4.4.4.4.4.4.4.4.4.4.4.4.",
"4.4.4.4.4.4.4.4.4.4.4.4.4.4.4.4.4.4.4.& = * r u y t y w = # C ] ^ P P N e r > * = & * * 4.4.4.4.4.4.4.4.4.4.4.4.4.4.4.4.",
"4.4.4.4.4.4.4.4.4.4.4.4.4.4.4.4.4.4.4.4.4.4.= = o @ @ # : = K ^ ! K L s o # & 4.4.4.4.4.4.4.4.4.4.4.4.4.4.4.4.4.4.4.4.4.",
"4.4.4.4.4.4.4.4.4.4.4.4.4.4.4.4.4.4.4.4.4.4.: : $ - - - : # N ^ W n K s @ % * 4.4.4.4.4.4.4.4.4.4.4.4.4.4.4.4.4.4.4.4.4.",
"4.4.4.4.4.4.4.4.4.4.4.4.4.4.4.4.4.4.4.4.4.4.4.4.4.4.4.: : > 2 3 3 > 3 > 4.4.4.4.4.4.4.4.4.4.4.4.4.4.4.4.4.4.4.4.4.4.4.4.",
"4.4.4.4.4.4.4.4.4.4.4.4.4.4.4.4.4.4.4.4.4.4.4.4.4.4.4.: : > - # $ % : : 4.4.4.4.4.4.4.4.4.4.4.4.4.4.4.4.4.4.4.4.4.4.4.4.",
"4.4.4.4.4.4.4.4.4.4.4.4.4.4.4.4.4.4.4.4.4.4.4.4.4.4.4.4.4.4.4.4.4.4.4.4.4.4.4.4.4.4.4.4.4.4.4.4.4.4.4.4.4.4.4.4.4.4.4.4.",
"4.4.4.4.4.4.4.4.4.4.4.4.4.4.4.4.4.4.4.4.4.4.4.4.4.4.4.4.4.4.4.4.4.4.4.4.4.4.4.4.4.4.4.4.4.4.4.4.4.4.4.4.4.4.4.4.4.4.4.4.",
"4.4.4.4.4.4.4.4.4.4.4.4.4.4.4.4.4.4.4.4.4.4.4.4.4.4.4.4.4.4.4.4.4.4.4.4.4.4.4.4.4.4.4.4.4.4.4.4.4.4.4.4.4.4.4.4.4.4.4.4.",
"4.4.4.4.4.4.4.4.4.4.4.4.4.4.4.4.4.4.4.4.4.4.4.4.4.4.4.4.4.4.4.4.4.4.4.4.4.4.4.4.4.4.4.4.4.4.4.4.4.4.4.4.4.4.4.4.4.4.4.4.",
"4.4.4.4.4.4.4.4.4.4.4.4.4.4.4.4.4.4.4.4.4.4.4.4.4.4.4.4.4.4.4.4.4.4.4.4.4.4.4.4.4.4.4.4.4.4.4.4.4.4.4.4.4.4.4.4.4.4.4.4.",
"4.4.4.4.4.4.4.4.4.4.4.4.4.4.4.4.4.4.4.4.4.4.4.4.4.4.4.4.4.4.4.4.4.4.4.4.4.4.4.4.4.4.4.4.4.4.4.4.4.4.4.4.4.4.4.4.4.4.4.4.",
"4.4.4.4.4.4.4.4.4.4.4.4.4.4.4.4.4.4.4.4.4.4.4.4.4.4.4.4.4.4.4.4.4.4.4.4.4.4.4.4.4.4.4.4.4.4.4.4.4.4.4.4.4.4.4.4.4.4.4.4.",
"4.4.4.4.4.4.4.4.4.4.4.4.4.4.4.4.4.4.4.4.4.4.4.4.4.4.4.4.4.4.4.4.4.4.4.4.4.4.4.4.4.4.4.4.4.4.4.4.4.4.4.4.4.4.4.4.4.4.4.4.",
"4.4.4.4.4.4.4.4.4.4.4.4.4.4.4.4.4.4.4.4.4.4.4.4.4.4.4.4.4.4.4.4.4.4.4.4.4.4.4.4.4.4.4.4.4.4.4.4.4.4.4.4.4.4.4.4.4.4.4.4.",
"4.4.4.4.4.4.4.4.4.4.4.4.4.4.4.4.4.4.4.4.4.4.4.4.4.4.4.4.4.4.4.4.4.4.4.4.4.4.4.4.4.4.4.4.4.4.4.4.4.4.4.4.4.4.4.4.4.4.4.4."
};
