/* XPM */
static char *_6b47deb57274d2fed92584bb80ad78dbwlZnMO4JuPB8Uk5[] = {
/* columns rows colors chars-per-pixel */
"60 60 220 2 ",
"   c None",
".  c #050405",
"X  c #060609",
"o  c #090909",
"O  c #150D09",
"+  c #141514",
"@  c #1C1C1C",
"#  c #161819",
"$  c #180F08",
"%  c #201A1A",
"&  c #1E201D",
"*  c #39271A",
"=  c #352414",
"-  c #1D1E20",
";  c #221E2F",
":  c #2F102D",
">  c #31152F",
",  c #221E30",
"<  c #2B1129",
"1  c #1D2020",
"2  c #212224",
"3  c #2B2727",
"4  c #332C22",
"5  c #3F2B23",
"6  c #3D2E2C",
"7  c #352725",
"8  c #3E302E",
"9  c #252233",
"0  c #2A2534",
"q  c #2C2B38",
"w  c #352C3A",
"e  c #34333C",
"r  c #38353A",
"t  c #492C00",
"y  c #472C09",
"u  c #4D3209",
"i  c #523305",
"p  c #5A3704",
"a  c #5D3A02",
"s  c #593709",
"d  c #5B3A0B",
"f  c #51320C",
"g  c #462D16",
"h  c #4C331B",
"j  c #483116",
"k  c #533514",
"l  c #52361D",
"z  c #5B3D1C",
"x  c #583A17",
"c  c #623D01",
"v  c #623F0C",
"b  c #402C25",
"n  c #432E28",
"m  c #492F21",
"M  c #4B3223",
"N  c #4A3629",
"B  c #503622",
"V  c #543A23",
"C  c #5A3E23",
"Z  c #563D29",
"A  c #593F2C",
"S  c #463936",
"D  c #4A3A3B",
"F  c #463938",
"G  c #5A3F31",
"H  c #5E401C",
"J  c #5F400E",
"K  c #664002",
"L  c #694506",
"P  c #64410C",
"I  c #6E490E",
"U  c #6B470A",
"Y  c #714C0E",
"T  c #6D4A12",
"R  c #684618",
"E  c #724E13",
"W  c #724E1B",
"Q  c #745016",
"!  c #75511B",
"~  c #79551F",
"^  c #5E4123",
"/  c #5B412B",
"(  c #574029",
")  c #5E4434",
"_  c #544137",
"`  c #634524",
"'  c #6C4C24",
"]  c #61462B",
"[  c #6A4C2A",
"{  c #65482B",
"}  c #704F24",
"|  c #745224",
" . c #7A5723",
".. c #7C5924",
"X. c #735329",
"o. c #7B592B",
"O. c #654A31",
"+. c #6A4E32",
"@. c #644A36",
"#. c #6E5134",
"$. c #69513D",
"%. c #735634",
"&. c #7C5C35",
"*. c #7A5C3A",
"=. c #745639",
"-. c #6F502B",
";. c #7A613B",
":. c #3B2D43",
">. c #302F40",
",. c #3C3345",
"<. c #3E3C45",
"1. c #413E45",
"2. c #433749",
"3. c #422C44",
"4. c #434345",
"5. c #46444A",
"6. c #49464B",
"7. c #4C4C4C",
"8. c #494647",
"9. c #4E524F",
"0. c #4E4C52",
"q. c #4E4552",
"w. c #544D57",
"e. c #4F5150",
"r. c #545454",
"t. c #5B5B5C",
"y. c #565858",
"u. c #534E4C",
"i. c #695445",
"p. c #745849",
"a. c #6C5C56",
"s. c #5A645F",
"d. c #57645C",
"f. c #7B6358",
"g. c #6E655D",
"h. c #5E5D61",
"j. c #5C5460",
"k. c #625D64",
"l. c #5B6D63",
"z. c #5B6561",
"x. c #5E7366",
"c. c #636363",
"v. c #616D66",
"b. c #6C6C6C",
"n. c #686868",
"m. c #726F6E",
"M. c #64756A",
"N. c #6A746E",
"B. c #637A6C",
"V. c #687A6C",
"C. c #6E6E70",
"Z. c #6A7E72",
"A. c #6D7371",
"S. c #737374",
"D. c #7C7D7D",
"F. c #77777B",
"G. c #76706C",
"H. c #815D27",
"J. c #815E2C",
"K. c #825F30",
"L. c #815F3B",
"P. c #856233",
"I. c #896635",
"U. c #83633D",
"Y. c #89673A",
"T. c #8C6A3C",
"R. c #8B6837",
"E. c #86612D",
"W. c #836541",
"Q. c #886740",
"!. c #8C6C41",
"~. c #896A46",
"^. c #906F41",
"/. c #937245",
"(. c #967449",
"). c #99764C",
"_. c #9A784F",
"`. c #856D55",
"'. c #8B7358",
"]. c #9C7851",
"[. c #947B5B",
"{. c #997658",
"}. c #A17D59",
"|. c #837F7C",
" X c #907565",
".X c #A37F61",
"XX c #6E8074",
"oX c #718176",
"OX c #75837A",
"+X c #79857D",
"@X c #A6815E",
"#X c #9C8465",
"$X c #9E876C",
"%X c #8A8176",
"&X c #88827A",
"*X c #91897D",
"=X c #AB8567",
"-X c #B28C73",
";X c #AB9175",
":X c #7F7C80",
">X c #7D8780",
",X c #7E8D84",
"<X c #838484",
"1X c #828A85",
"2X c #868B88",
"3X c #8B8C8C",
"4X c #878788",
"5X c #90908F",
"6X c #8D8C90",
"7X c #8F9190",
"8X c #919191",
"9X c #929292",
"0X c #919291",
"qX c #929292",
"wX c #939A95",
"eX c #999999",
"rX c #979798",
"tX c #89908C",
"yX c #A59D94",
"uX c #AB998C",
/* pixels */
"                                                                                                                        ",
"                                        3.2.2.          S.r.u.<X        j.:.3.                                          ",
"                                      6X:.7.b.    9X9X3Xb.7.7.<X  9X9X7Xm.r.2.F.                                        ",
"                                  eXeX4Xc.7.b.    9X9X3Xb.r.9.:X  9X9X5Xm.y.t.:XrXeX                                    ",
"                        r.|.    9X5X9X1Xl.7.b.    5X5X3Xb.r.7.<X  9X9X5XS.t.z.OX5X7X9X    &Xr.                          ",
"                      r.y.>XwX  9X9X5X1XM.7.c.rX  9X9X3Xb.r.7.F.  9X9X5Xn.9.z.+X8X8X9X    :Xy.h.                        ",
"                      <Xc.c.M.  eX9X9X1Xl.8.7.C.+X|.D.F.c.r.7.c.D.D.+XF.r.8.z.>X5X9XrX  1Xz.c.3X                        ",
"                    rX  8Xe.y.  7X3X3X>Xl.,.4.1.1.4.4.4.4.4.8.4.1.4.4.1.1.<.y.OX3X3X9XrXA.r.9X                          ",
"                  9X9X5X    7.7.l.B.M.b.k., , , ; , ; ; , ; ; ; , , ; , ; 9 w.b.N.B.l.9.u.eX  9X9XrX                    ",
"            N.OXrX9X9X9XqX    9.r.>.9 9 7 p a a k j a a i 7 g a a s h p a i 5 9 9 >.8.y.4X  9X9X9X8X9X+XA.              ",
"            m.N.oX9X5X9X9X5XF.q 0 j i k b c E W z l E Q R 7 l E E R l R E W V V V 6 9 e c.5X9X5X9X5X+XN.m.              ",
"            G.b.d.OX5X9X2XC.,.7 g s c s B E P.Y.+.$.}.T.L.F p.].Y.&.A '.^.P.{ [ o.{ Z n e C.4X9X5XOXs.b.m.              ",
"            n.y.8.s.>X4XC.1.* m a K K x V K.^.(.#.$.=X(.W.2.`.-X/.;.) {._.!.+.#.T.P. .( 5 7.N.2XOXs.7.y.n.              ",
"          rXb.7.8.7.z.z.5.* c h a K ! -.G {.(.^.#.O.].^.W.D f.}./.U./ !.(.^.+.+.(.T.o.^ ` ( 8.s.d.9.7.7.b.yX            ",
"              b.r.u.7.q * c c m a Q R.*.) -X].!.#.p.-X(.W.F $.(./.;.) =X_.!.O.#.^./.Q.O.%.P.N r 8.9.r.b.eX              ",
"        9X9X      N.e.q g c a m | T./.*.Z ^.^.^.#.] (.^.W.D `.=X/.U.( p./.^.+.#.^.(.Y.O.` T._ r 9.S.      9X            ",
"        9X9X9XrXeX  1.g a c c m | T./.*.) -X(.!.$.p.=X(.Q.S $.(./.U.) .X{.Q.+.+.^./.Q.O.%.K. .N w.    rX9X9X            ",
"        9X9X9X9XqX  ,.u c c W M | T./.*.Z _././.+.O.}./.Q.D f.}.^.L.) ~./.!.+.X.^./.Q.O.=.T.K.V q.8X9X8X9XqX            ",
"        D.+X1X9XqX:Xe y c L X.M &.^.!.*.G =X(.!.#.$.}.(.W.F p.}./.W.G {._.!.+.p.{.).Y.O.%.R.R.) 1.F.8XqX2X+XD.F.        ",
"        k.s.N.3X1Xy.w f c L | N Q././.*.) =X)./.#.i.=X).W.F p.].^.*.@.{._.!.+.p.}.).W.O.%.P.R.O.r y.>X2XA.z.w.:.        ",
"        0.2.q.n.z., 5 s c L | M Q.(./.*.( (./.!.#.{ )./.W.D f.=X^.W.A U.(.!.+.$./.(.Q.O.=./.I.' b 0 d.n.q.5.6.2.        ",
"        S.t.7.6.,., 5 s c L | M Y.(.!.*.) ;X).~.#.p.-X/.W.F $./.^.U.A U.^.^.+.W.=X_.U.O.=./.(.%.n 0 :.8.7.s.k.2.        ",
"          ,Xv.c.4., 5 s c L | N Q.(.^.*.Z /././.%.] )./.W.D f.=X^.U.A U.^.^.+.#.!./.W.O.=./.(.%.b 9 <.t.v.tX            ",
"        eX      eX9 5 s c L } M Q.(.^.*.G -X)./.+.] /./.W.S i._./.U.A U.(.!.#.p.=X(.T.O.%././.%.b ,.5X                  ",
"        9X        0 5 s c I U.M Y.(.^.*.) @X(.(.#.O././.U.D f.}.^.U.A U./.!.+.p.).(.Q.O.%././.%.b ,.5X    rX            ",
"        9X3X5X9X3X9 5 s c I Q.m Y./.^.&.B T.T.T.-.A /./.U.D p.}.^.L.V U./.T.[ #.)./.U./ X././.%.5 w F.5X9X5X            ",
"        9X9X9X5X>X9 D / ' ;.'.i.'.[.[.f.i.#X#X#X`.f.$X#X`.1.i.#X[.'.g.[.#X#Xf.*XuX;X$X'. X#X#X`.u.0.+X9X9X5X            ",
"        3X5X7X2XM.9 h.n.F.2X4X3X4X2X4X2X2X1X            D.2.z.2X2X7X                            3X&XXX1X5X5X            ",
"        B.1X1XXX3X9 o . X o X o X X X o o o o o o o o o X X X o o o o o o o X X o o o o X o o X . ; D.Z.1X>X,X          ",
"        5XOXOX9X5X9 X . . o 2 2 2 2 2 2 2 2 & 2 2 2 2 2 2 2 2 2 2 2 2 2 2 2 2 + X . . . . . . . . @ D.7XOX>X            ",
"        z.y.y.c.t.9 4 y t u u 5 u i i j 5 i i i j j i i u 4 * p i u h u i u j g t t t = y t t = = 2 y.c.y.y.c.k.        ",
"        4.y.y.8.4., 5 a K L  .M  .H.o.} ( o.H...` ( H.o.-.8 ^ H...-.V | H.o.^ ` ..H...^ ' H.H.' n 0 1.8.y.y.1.:.        ",
"        r.t.k.u.4.9 b s c E !.N !.^.^.*.Z /.!./.%.] /.^.~.S $./.^.W./ U.^.!.#.#.!./.Q.O.=.!./.=.n 0 4.u.t.t.q.:.        ",
"        +Xb.b.F.y.9 b s c T T.M U.P.K.*.Z T.J.Y.+.] T.K.*.S @.R.P.&./ ;.P.P.O.[ P.P.P.] %.K.I.%.b q y.S.b.S.S.w.        ",
"                  0 5 s c L X.M | T.I.' B o.T.K.` C J.T.X.6 / I.T.| V | T.J.^ ^ P.R.o.( ` T.E.' b <.                    ",
"        rX+XB.XXV.9 5 s c E !.N Q.J.P.*.Z !.J.Y.+.] ^.J.;.S @.T.J.*.A U.P.U.+.+.U.P.P.O.=.o.R.%.n q l.Z.B.,X            ",
"        Z.1X+XXX4X9 5 s c L o.M ....o.[ V .. .o.] C H. .X.n / H. .X.V | ..o.` ` P.T.o.( ' T.P.' b >.F.Z.>XOX2X          ",
"        1X+XXXB.Z.9 b s c L } M |  . .` B  . . .` C  . .[ 8 C .. .' V } ..| ^ H  .o.| ^ ` K.o.` 5 q N.Z.XX>XwX          ",
"        1XXXB.Z.F.9 b s c L | M |  . .` B .. . .` C .. .-.8 A ....' V }  .| ^ ^  . .| C ` ....' 5 e N.Z.B.XXwX          ",
"        l.l.l.V.D.9 5 s c L | M | .. .' M  . . .^ C  . .' 8 ( .. .' V } .. .^ ^  . .| ^ `  ...R 5 e C.M.x.l.S.rX        ",
"        7.7.7.8.8., 5 s c L | M } .. .' h  . . .` C  . .[ 8 C H. .} V }  . .^ ^  . .} C `  .H.` 5 0 <.7.8.7.1.:.        ",
"        m.y.8.7.8., b s c L | m | .. .' M  . . .` C  . .} 5 Z  ...' B } ..| ^ ^  . .} C `  ...R 5 0 4.7.8.t.h.2.        ",
"        b.n.b.s.4.9 5 p c c a g a K a p g c c c t f c a p 7 k c c a j a c c u f a c c f i c c i * , _ h.c.b.h.:.        ",
"                wX9 y.g.G.&X%X|.%X%X%X&X4XyXyXyXyX        r.t.%X X|.&X&X X|.&X&X|.*XuXeXyXyX      4XwX        rX        ",
"          wXwX    9 e r 1.7.7.7.7.7.7.9.9.h.h.M.C.S.<X:XS.4.4.s.z.t.t.t.t.t.t.t.y.c.b.A.C.C.F.:XS.b.wX  wXrX            ",
"        1XOXOX1X3X9 . . . . . . . X X X . X X # - - - - & 3 2 2 2 2 1 2 2 2 2 2 2 1 - 2 - - - @ # r +X4XOXOXwX          ",
"        x.,X1XXX1X9 O $ $ $ O O 4 4 4 4 3 4 4 * 4 3 4 4 4 3 3 * 4 4 7 4 4 4 4 4 4 4 4 4 3 * 4 3 3 r F.oX,XoX,X          ",
"        B.x.OX5Xl.9 b d c c c j a K K d h K K K k k c c a 4 j K K d h a K a k k c K a k d K c d 5 q x.2XOXB.,X          ",
"        B.B.B.oX3X0 b s c L | m |  . .` B  . . .C C  . .' n ( ....W B } ..| H ^  . .} C `  .~ R b :.D.OXB.B.,X          ",
"        9.9.9.r.y.9 b s c L | M |  ...` B  ... .` C  ...[ 8 / .. .' V } .. .^ ^  .! v k d ! H.` b 0 9.r.9.9.r.w.        ",
"        c.c.y.8.4.; b s c L | M | T E ' M  .U } ` C ~ I ' 5 ( Q T ' V } T W ^ ^ W Y R z z U ! ` b 0 1.8.y.k.y.:.        ",
"        b.N.c.y.r.9 b s c c T M R U T R h E U Y z l Y I R 6 B I I R h R I T z z I U R C R T E x b q 7.y.c.C.h.3.        ",
"        <X<X<X4X:X9 b d c c v M v Q I v h U E U x k U E d 7 h Y E v h P Q U l x I Y P k x E I d 5 e S.4X<X<XD.k.        ",
"                  0 7 f a v ' M } v v { M } v R C V W v ` 6 V T v { B R P R C ( R P ' V ` v R ` 5 ,.                    ",
"        B.1X2XXX3X9 . < > > > > > > > > > > > > > > > > > > > > > > > > > > > > > > > > > > > > : :.:XoX1X>X2X          ",
"        B.V.+X2XM., X . o . . . . . X . . . . X . . X X X o . X X X X . . . X . . . . . X . X X O > x.2XOXB.,X          ",
"        V.V.Z.oXM.; % % % % % % % % % % & & % @ + + + + @ @ @ @ + + + + @ & % & % % % % % % % % < 6 l.XXZ.V.1X          ",
"                                                                                                                        ",
"                                                                                                                        ",
"                                                                                                                        "
};
