/* XPM */
static char *result[] = {
/* columns rows colors chars-per-pixel */
"100 100 3 1 ",
"  c #937152",
". c #A67F5B",
"X c #BA8D65",
/* pixels */
"..        XXXXXXXXXXXXXXXX....    ....XXXX    ....XXXXXXXX................    ....XXXXXXXX....      ",
"  ....    ....XXXXXXXXXXXXXXXX    ....XXXX    XXXXXXXXXXXXXXXXXXXXXXXX....    ....XXXXXXXX....      ",
"  ....    ....XXXXXXXXXXXXXXXX    ....XXXX    XXXXXXXXXXXXXXXXXXXXXXXX....    ....XXXXXXXX....      ",
"  ....    ....XXXXXXXXXXXXXXXX    ....XXXX    XXXXXXXXXXXXXXXXXXXXXXXX....    ....XXXXXXXX....      ",
"  ....    ....XXXXXXXXXXXXXXXX    ....XXXX    XXXXXXXXXXXXXXXXXXXXXXXX....    ....XXXXXXXX....      ",
"..XXXX....    ....XXXXXXXXXXXX    XXXXXXXX    ....XXXXXXXXXXXXXXXXXXXXXXXX    ....XXXX........    ..",
"..XXXX....    ....XXXXXXXXXXXX    XXXXXXXX    ....XXXXXXXXXXXXXXXXXXXXXXXX    ....XXXX........    ..",
"..XXXX....    ....XXXXXXXXXXXX    XXXXXXXX    ....XXXXXXXXXXXXXXXXXXXXXXXX    ....XXXX........    ..",
"..XXXX....    ....XXXXXXXXXXXX    XXXXXXXX    ....XXXXXXXXXXXXXXXXXXXXXXXX    ....XXXX........    ..",
"..XXXX....    ....XXXXXXXXXXXX    XXXXXXXX    ....XXXXXXXXXXXXXXXXXXXXXXXX    ....XXXX........    ..",
"..XXXX....    ....XXXXXXXXXXXX    XXXXXXXX    ....XXXXXXXXXXXXXXXXXXXXXXXX    ....XXXX........    ..",
"..XXXX....    ....XXXXXXXXXXXX    XXXXXXXX    ....XXXXXXXXXXXXXXXXXXXXXXXX    ....XXXX........    ..",
"..XXXX....    ....XXXXXXXXXXXX    XXXXXXXX    ....XXXXXXXXXXXXXXXXXXXXXXXX    ....XXXX........    ..",
"  ....    ....XXXXXXXXXXXXXXXX    ....XXXX    XXXXXXXXXXXXXXXXXXXXXXXX....    ....XXXXXXXX....      ",
"  ....    ....XXXXXXXXXXXXXXXX    ....XXXX    XXXXXXXXXXXXXXXXXXXXXXXX....    ....XXXXXXXX....      ",
"  ....    ....XXXXXXXXXXXXXXXX    ....XXXX    XXXXXXXXXXXXXXXXXXXXXXXX....    ....XXXXXXXX....      ",
"  ....    ....XXXXXXXXXXXXXXXX    ....XXXX    XXXXXXXXXXXXXXXXXXXXXXXX....    ....XXXXXXXX....      ",
"..        XXXXXXXXXXXXXXXX....    ....XXXX    ....XXXXXXXX................    ....XXXXXXXX....      ",
"..        XXXXXXXXXXXXXXXX....    ....XXXX    ....XXXXXXXX................    ....XXXXXXXX....      ",
"..        XXXXXXXXXXXXXXXX....    ....XXXX    ....XXXXXXXX................    ....XXXXXXXX....      ",
"..        XXXXXXXXXXXXXXXX....    ....XXXX    ....XXXXXXXX................    ....XXXXXXXX....      ",
"XX....    ....XXXXXXXX....            ....        ........                        ............      ",
"XX....    ....XXXXXXXX....            ....        ........                        ............      ",
"XX....    ....XXXXXXXX....            ....        ........                        ............      ",
"XX....    ....XXXXXXXX....            ....        ........                        ............      ",
"XX....        ............                ........            ....................            ......",
"XX....        ............                ........            ....................            ......",
"XX....        ............                ........            ....................            ......",
"XX....        ............                ........            ....................            ......",
"..                        ........    ....XXXXXXXX........    ....XXXXXXXXXXXX....    ....XXXXXXXXXX",
"..                        ........    ....XXXXXXXX........    ....XXXXXXXXXXXX....    ....XXXXXXXXXX",
"..                        ........    ....XXXXXXXX........    ....XXXXXXXXXXXX....    ....XXXXXXXXXX",
"..                        ........    ....XXXXXXXX........    ....XXXXXXXXXXXX....    ....XXXXXXXXXX",
"  ................    ....XXXX....    ....XXXXXXXXXXXXXXXX....    XXXXXXXXXXXXXXXX    ..............",
"  ................    ....XXXX....    ....XXXXXXXXXXXXXXXX....    XXXXXXXXXXXXXXXX    ..............",
"  ................    ....XXXX....    ....XXXXXXXXXXXXXXXX....    XXXXXXXXXXXXXXXX    ..............",
"  ................    ....XXXX....    ....XXXXXXXXXXXXXXXX....    XXXXXXXXXXXXXXXX    ..............",
"..XXXXXXXXXXXX....    XXXXXXXXXXXX....    ....XXXXXXXXXXXX....    XXXXXXXXXXXX....                  ",
"..XXXXXXXXXXXX....    XXXXXXXXXXXX....    ....XXXXXXXXXXXX....    XXXXXXXXXXXX....                  ",
"..XXXXXXXXXXXX....    XXXXXXXXXXXX....    ....XXXXXXXXXXXX....    XXXXXXXXXXXX....                  ",
"..XXXXXXXXXXXX....    XXXXXXXXXXXX....    ....XXXXXXXXXXXX....    XXXXXXXXXXXX....                  ",
"XXXXXXXXXXXXXXXXXX    ....XXXX........        ....XXXXXXXX....    ................            ......",
"XXXXXXXXXXXXXXXXXX    ....XXXX........        ....XXXXXXXX....    ................            ......",
"XXXXXXXXXXXXXXXXXX    ....XXXX........        ....XXXXXXXX....    ................            ......",
"XXXXXXXXXXXXXXXXXX    ....XXXX........        ....XXXXXXXX....    ................            ......",
"XXXXXXXXXXXXXXXXXX....    ....                    ........    ....                ....        ....XX",
"XXXXXXXXXXXXXXXXXX....    ....                    ........    ....                ....        ....XX",
"XXXXXXXXXXXXXXXXXX....    ....                    ........    ....                ....        ....XX",
"XXXXXXXXXXXXXXXXXX....    ....                    ........    ....                ....        ....XX",
"XXXXXXXXXXXXXXXXXX....        ........                    ....XXXXXXXX....    ....XXXX....    ....XX",
"XXXXXXXXXXXXXXXXXX....        ........                    ....XXXXXXXX....    ....XXXX....    ....XX",
"XXXXXXXXXXXXXXXXXX....        ........                    ....XXXXXXXX....    ....XXXX....    ....XX",
"XXXXXXXXXXXXXXXXXX....        ........                    ....XXXXXXXX....    ....XXXX....    ....XX",
"......................    ....XXXXXXXX........            ................    XXXXXXXXXXXX....    XX",
"......................    ....XXXXXXXX........            ................    XXXXXXXXXXXX....    XX",
"......................    ....XXXXXXXX........            ................    XXXXXXXXXXXX....    XX",
"......................    ....XXXXXXXX........            ................    XXXXXXXXXXXX....    XX",
"                      ....XXXXXXXXXXXXXXXXXXXX....                        ....XXXX............    ..",
"                      ....XXXXXXXXXXXXXXXXXXXX....                        ....XXXX............    ..",
"                      ....XXXXXXXXXXXXXXXXXXXX....                        ....XXXX............    ..",
"                      ....XXXXXXXXXXXXXXXXXXXX....                        ....XXXX............    ..",
"  ............    ....XXXXXXXX....XXXXXXXXXXXX....    ....................    ....                  ",
"  ............    ....XXXXXXXX....XXXXXXXXXXXX....    ....................    ....                  ",
"  ............    ....XXXXXXXX....XXXXXXXXXXXX....    ....................    ....                  ",
"  ............    ....XXXXXXXX....XXXXXXXXXXXX....    ....................    ....                  ",
"  ....XXXX....    ........XXXXXXXX........XXXX....    ....XXXXXXXXXXXXXXXX....    ................  ",
"  ....XXXX....    ........XXXXXXXX........XXXX....    ....XXXXXXXXXXXXXXXX....    ................  ",
"  ....XXXX....    ........XXXXXXXX........XXXX....    ....XXXXXXXXXXXXXXXX....    ................  ",
"  ....XXXX....    ........XXXXXXXX........XXXX....    ....XXXXXXXXXXXXXXXX....    ................  ",
"  ....XXXX....    ....XXXXXXXXXXXXXXXX........    XXXXXXXXXXXXXXXXXXXXXXXX....    ....XXXX....    ..",
"  ....XXXX....    ....XXXXXXXXXXXXXXXX........    XXXXXXXXXXXXXXXXXXXXXXXX....    ....XXXX....    ..",
"  ....XXXX....    ....XXXXXXXXXXXXXXXX........    XXXXXXXXXXXXXXXXXXXXXXXX....    ....XXXX....    ..",
"  ....XXXX....    ....XXXXXXXXXXXXXXXX........    XXXXXXXXXXXXXXXXXXXXXXXX....    ....XXXX....    ..",
"  ............    ........XXXXXXXXXXXX....    ........XXXXXXXXXXXXXXXXXXXX....    ............    ..",
"  ............    ........XXXXXXXXXXXX....    ........XXXXXXXXXXXXXXXXXXXX....    ............    ..",
"  ............    ........XXXXXXXXXXXX....    ........XXXXXXXXXXXXXXXXXXXX....    ............    ..",
"  ............    ........XXXXXXXXXXXX....    ........XXXXXXXXXXXXXXXXXXXX....    ............    ..",
"              ....    ........XXXX........            ....XXXXXXXXXXXXXXXX....                    ..",
"              ....    ........XXXX........            ....XXXXXXXXXXXXXXXX....                    ..",
"              ....    ........XXXX........            ....XXXXXXXXXXXXXXXX....                    ..",
"              ....    ........XXXX........            ....XXXXXXXXXXXXXXXX....                    ..",
"..    ........XXXX....    ................    ........    ................    ....XXXXXXXXXXXX....  ",
"..    ........XXXX....    ................    ........    ................    ....XXXXXXXXXXXX....  ",
"..    ........XXXX....    ................    ........    ................    ....XXXXXXXXXXXX....  ",
"..    ........XXXX....    ................    ........    ................    ....XXXXXXXXXXXX....  ",
"..    ....XXXXXXXXXXXX....    ........    ....XXXXXXXX....                    ....................  ",
"..    ....XXXXXXXXXXXX....    ........    ....XXXXXXXX....                    ....................  ",
"..    ....XXXXXXXXXXXX....    ........    ....XXXXXXXX....                    ....................  ",
"..    ....XXXXXXXXXXXX....    ........    ....XXXXXXXX....                    ....................  ",
"  ....XXXXXXXXXXXXXXXXXXXX....        ....XXXXXXXXXXXX....                                          ",
"  ....XXXXXXXXXXXXXXXXXXXX....        ....XXXXXXXXXXXX....                                          ",
"  ....XXXXXXXXXXXXXXXXXXXX....        ....XXXXXXXXXXXX....                                          ",
"  ....XXXXXXXXXXXXXXXXXXXX....        ....XXXXXXXXXXXX....                                          ",
"  ....XXXXXXXXXXXXXXXX........    ....XXXXXXXXXXXXXXXXXXXX....        ....................    ......",
"  ....XXXXXXXXXXXXXXXX........    ....XXXXXXXXXXXXXXXXXXXX....        ....................    ......",
"  ....XXXXXXXXXXXXXXXX........    ....XXXXXXXXXXXXXXXXXXXX....        ....................    ......",
"  ....XXXXXXXXXXXXXXXX........    ....XXXXXXXXXXXXXXXXXXXX....        ....................    ......",
"..    ....XXXX........            ....XXXXXXXXXXXXXXXXXXXX....    ....XXXXXXXXXXXXXXXX....    ....XX",
"..    ....XXXX........            ....XXXXXXXXXXXXXXXXXXXX....    ....XXXXXXXXXXXXXXXX....    ....XX",
"..    ....XXXX........            ....XXXXXXXXXXXXXXXXXXXX....    ....XXXXXXXXXXXXXXXX....    ....XX"
};
