/* XPM */
static char *_692810194fc4d8ef97e8f8d5181f090szZY6IVsd9udKApS[] = {
/* columns rows colors chars-per-pixel */
"60 60 7 1 ",
"  c None",
". c #28353F",
"X c #2E5752",
"o c #3B7D4F",
"O c #63AB40",
"+ c #C7D45E",
"@ c #F5FEE8",
/* pixels */
"                                                            ",
"                                                            ",
"                                                            ",
"                                                            ",
"                                                            ",
"                                                            ",
"                                                            ",
"                                ...                         ",
"                                ...                         ",
"                                ...                         ",
"                    ooooooooo...oooooooooooo                ",
"                    ooooooooo...oooooooooooo                ",
"                    ooooooooo...oooooooooooo                ",
"              ooooooOOOOOOOOO...OOOOOOOOOOOOooo             ",
"              ooooooOOOOOOOOO...OOOOOOOOOOOOooo             ",
"              ooooooOOOOOOOOO...OOOOOOOOOOOOooo             ",
"           oooOOO+++@@@ooo......oooOOOooooooOOOooo          ",
"           oooOOO+++@@@ooo......oooOOOooooooOOOooo          ",
"           oooOOO+++@@@ooo......oooOOOooooooOOOooo          ",
"        oooOOO+++@@@OOOoooooo...XXXoooOOOOOOOOOoooXXX       ",
"        oooOOO+++@@@OOOoooooo...XXXoooOOOOOOOOOoooXXX       ",
"        oooOOO+++@@@OOOoooooo...XXXoooOOOOOOOOOoooXXX       ",
"        oooOOO+++@@@+++OOOOOOooooooOOO+++OOOOOOoooXXX       ",
"        oooOOO+++@@@+++OOOOOOooooooOOO+++OOOOOOoooXXX       ",
"        oooOOO+++@@@+++OOOOOOooooooOOO+++OOOOOOoooXXX       ",
"        oooOOO++++++++++++++++++OOO++++++OOOOOOoooXXX       ",
"        oooOOO++++++++++++++++++OOO++++++OOOOOOoooXXX       ",
"        oooOOO++++++++++++++++++OOO++++++OOOOOOoooXXX       ",
"        oooOOO+++@@@+++++++++++++++++++++OOOooooooXXX       ",
"        oooOOO+++@@@+++++++++++++++++++++OOOooooooXXX       ",
"        oooOOO+++@@@+++++++++++++++++++++OOOooooooXXX       ",
"           ooo++++++++++++++++++++++++OOOOOOoooXXX          ",
"           ooo++++++++++++++++++++++++OOOOOOoooXXX          ",
"           ooo++++++++++++++++++++++++OOOOOOoooXXX          ",
"           oooOOO+++++++++++++++++++++OOOooooooXXX          ",
"           oooOOO+++++++++++++++++++++OOOooooooXXX          ",
"           oooOOO+++++++++++++++++++++OOOooooooXXX          ",
"           oooOOO++++++++++++++++++OOOOOOooooooXXX          ",
"           oooOOO++++++++++++++++++OOOOOOooooooXXX          ",
"           oooOOO++++++++++++++++++OOOOOOooooooXXX          ",
"              oooOOO++++++++++++OOOOOOooooooXXX             ",
"              oooOOO++++++++++++OOOOOOooooooXXX             ",
"              oooOOO++++++++++++OOOOOOooooooXXX             ",
"              XXXoooOOOOOOOOOOOOOOOooooooXXXXXX             ",
"              XXXoooOOOOOOOOOOOOOOOooooooXXXXXX             ",
"              XXXoooOOOOOOOOOOOOOOOooooooXXXXXX             ",
"                 XXXoooooooooXXXooooooXXXXXX                ",
"                 XXXoooooooooXXXooooooXXXXXX                ",
"                 XXXoooooooooXXXooooooXXXXXX                ",
"                    XXXXXXXXX   XXXXXXXXX                   ",
"                    XXXXXXXXX   XXXXXXXXX                   ",
"                    XXXXXXXXX   XXXXXXXXX                   ",
"                                                            ",
"                                                            ",
"                                                            ",
"                                                            ",
"                                                            ",
"                                                            ",
"                                                            ",
"                                                            "
};
