/* XPM */
static char *result[] = {
/* columns rows colors chars-per-pixel */
"60 60 121 2 ",
"   c #1D2306",
".  c #222710",
"X  c #262D12",
"o  c #25261B",
"O  c #272A1C",
"+  c #2A2D1E",
"@  c #25331E",
"#  c #2B311D",
"$  c #2A2B25",
"%  c #282828",
"&  c #263220",
"*  c #2D3221",
"=  c #2C3821",
"-  c #313621",
";  c #323821",
":  c #3D3922",
">  c #7D3829",
",  c #3D4425",
"<  c #404725",
"1  c #404826",
"2  c #434D29",
"3  c #4B5824",
"4  c #475129",
"5  c #4E5B2C",
"6  c #515C2C",
"7  c #7D492D",
"8  c #55622E",
"9  c #576630",
"0  c #596530",
"q  c #5C6B31",
"w  c #63742E",
"e  c #696E3F",
"r  c #647435",
"t  c #687A36",
"y  c #4F5342",
"u  c #545749",
"i  c #565A49",
"p  c #5E6251",
"a  c #687247",
"s  c #78714D",
"d  c #646658",
"f  c #707B51",
"g  c #6C6F61",
"h  c #853A2A",
"j  c #8E3A2B",
"k  c #933B2C",
"l  c #9D3B2D",
"z  c #A43B2D",
"x  c #B33D31",
"c  c #BD3D31",
"v  c #C13E31",
"b  c #CE3F34",
"n  c #C94033",
"m  c #827556",
"M  c #72843B",
"N  c #768A3C",
"B  c #788E3D",
"V  c #7E933E",
"C  c #7F9841",
"Z  c #829B37",
"A  c #839D3B",
"S  c #86A038",
"D  c #809740",
"F  c #869E42",
"G  c #889F43",
"H  c #87A042",
"J  c #89A144",
"K  c #8FA945",
"L  c #8EA249",
"P  c #90A946",
"I  c #95A44F",
"U  c #93AE48",
"Y  c #98BB45",
"T  c #97B14A",
"R  c #99B54B",
"E  c #9FBB4D",
"W  c #99A453",
"Q  c #A0BD4E",
"!  c #A5BB54",
"~  c #99A575",
"^  c #A5A760",
"/  c #A7A860",
"(  c #B4B668",
")  c #A6B676",
"_  c #C1B877",
"`  c #C4B17E",
"'  c #C3B978",
"]  c #C9B87F",
"[  c #9FC04B",
"{  c #A2C04E",
"}  c #A5C250",
"|  c #A8C752",
" . c #C1C66E",
".. c #C3C670",
"X. c #C4CA72",
"o. c #888A80",
"O. c #91948A",
"+. c #C9B680",
"@. c #D6B58E",
"#. c #D8B78F",
"$. c #D9B790",
"%. c #DCB893",
"&. c #B5C38F",
"*. c #BBC797",
"=. c #BECA9D",
"-. c #D5C087",
";. c #DCC48E",
":. c #C0CC9D",
">. c #E6C299",
",. c #EAC69B",
"<. c #EDC89D",
"1. c #E8D193",
"2. c #CCD5B1",
"3. c #D3DABC",
"4. c #FFD9A9",
"5. c #FFDEB0",
"6. c #D5DDC0",
"7. c #D8DFC3",
"8. c #D9E0C7",
"9. c #FFFFFF",
"0. c None",
/* pixels */
"0.0.0.0.0.0.0.0.0.0.0.0.0.0.0.0.0.0.0.0.0.0.0.0.0.0.0.0.0.0.0.0.0.0.0.0.0.0.0.0.0.0.0.0.0.0.0.0.0.0.0.0.0.0.0.0.0.0.0.0.",
"0.0.0.0.0.0.0.0.0.0.0.0.0.0.0.0.0.0.0.0.0.0.0.0.0.0.0.0.0.0.0.0.0.0.0.0.0.0.0.0.0.0.0.0.0.0.0.0.0.0.0.0.0.0.0.0.0.0.0.0.",
"0.0.0.0.0.0.0.0.0.0.0.0.0.0.0.0.0.0.0.0.0.0.0.0.0.0.0.0.0.0.0.0.0.0.0.0.0.0.0.0.0.0.0.0.0.0.0.0.0.0.0.0.0.0.0.0.0.0.0.0.",
"0.0.0.0.0.0.0.0.0.0.0.0.0.0.0.0.0.0.0.0.0.0.0.0.0.0.0.0.0.0.0.0.0.0.0.0.0.0.0.0.0.0.0.0.0.0.0.0.0.0.0.0.0.0.0.0.0.0.0.0.",
"0.0.0.0.0.0.0.0.0.0.0.0.0.0.0.0.0.0.0.0.0.0.0.0.0.0.0.0.0.0.0.0.0.0.0.0.0.0.0.0.0.0.0.0.0.0.0.0.0.0.0.0.0.0.0.0.0.0.0.0.",
"0.0.0.0.0.0.0.0.0.0.0.0.0.$ - - - - - - - - - - - - - - - - - - - - - - - * % 0.0.0.0.0.0.0.0.0.0.0.0.0.0.0.0.0.0.0.0.0.",
"0.0.0.0.0.0.0.0.0.0.0.0.0.$ ; - - - - - - - - - - - - - - - - - ; ; - - - - % 0.0.0.0.0.0.0.0.0.0.0.0.0.0.0.0.0.0.0.0.0.",
"0.0.0.0.0.0.0.0.0.0.0.% % ; 1 , 1 1 1 1 1 1 1 1 1 1 1 1 1 1 1 , , , , , , , $ 0.0.0.0.0.0.0.0.0.0.0.0.0.0.0.0.0.0.0.0.0.",
"0.0.0.0.0.0.0.0.0.0.0.; # r E E E R E E R E E E E E E R E R R Q P F F F F V ; ; ; ; ; ; ; - 0.0.0.0.0.0.0.0.0.0.0.0.0.0.",
"0.0.0.0.0.0.0.0.0.0.0.; + r ! E Q Q Q Q ! Q Q Q Q E Q Q Q Q Q Q U G F J H V - - - = # - ; ; 0.0.0.0.0.0.0.0.0.0.0.0.0.0.",
"0.0.0.0.0.0.0.0.0.0.0.; # r Q Q T T T T U T T T E Q E E Q Q T T P F G J J D 8 8 6 8 8 , - ; 0.0.0.0.0.0.0.0.0.0.0.0.0.0.",
"0.0.0.0.0.0.0.0.0.0.0.; + r Q Q P G G F G G G F U Q E E Q R G G F F J J F J J J J L K 6 * ; ; ; - 0.0.0.0.0.0.0.0.0.0.0.",
"0.0.0.0.0.0.0.0.0.0.0.; # r } } P F G F G G F G R } { E Q R G G A Z A J J J Z Z A J J 6 - - = = * 0.0.0.0.0.0.0.0.0.0.0.",
"0.0.0.0.0.0.0.0.0.0.0.; - 2 q 0 F T T T T T T R N 9 q R Q T G A &.8.8.f 3 a 7.8.*.A J 6 # : k l > * * 0.0.0.0.0.0.0.0.0.",
"0.0.0.0.0.0.0.0.0.0.0.; ; - # + D Q Q Q Q Q Q } 9 o # T Q R G Z 2.9.9.d . i 9.9.7.Z J 6 * : v b z = ; 0.0.0.0.0.0.0.0.0.",
"0.0.0.0.0.0.0.0.0.0.0.; ; ; , ; D Q Q Q E Q Q { r ; , T ! R G Z 2.9.9.d X i 9.9.3.Z J 6 * : c v l = ; 0.0.0.0.0.0.0.0.0.",
"0.0.0.0.0.0.0.0.0.0.0.; # r T T Q E Q E E E E E R T T E E R J Z 2.9.9.d X i 9.9.3.Z J 5 = : c b l = ; 0.0.0.0.0.0.0.0.0.",
"0.0.0.0.0.0.0.0.0.0.0.; # r { E Q E E E E E E Q E { { E Q R J Z 2.9.9.p   y 9.9.3.Z J 5 # : v b z = ; 0.0.0.0.0.0.0.0.0.",
"0.0.0.0.0.0.0.0.0.0.0.; # r ! E E E Q E E E E E E E E Q E Y J V 2.9.9.O.d o.9.9.3.Z J 6 * : l z h = ; 0.0.0.0.0.0.0.0.0.",
"0.0.0.0.0.0.0.0.0.0.0.= # r Q Q E Q E E E E E E E Q E E [ E S V 2.9.9.9.9.9.9.9.3.Z J 6 * ; = = = ; ; 0.0.0.0.0.0.0.0.0.",
"0.0.0.0.0.0.0.0.0.0.0.; # r ! E E Q Q E E E E ! E Q E Q Q R J V 2.9.9.9.9.9.9.9.7.S P 5 @ @ ; ; ; ; ; 0.0.0.0.0.0.0.0.0.",
"0.0.0.0.0.0.0.0.0.0.0.; # r E E E E E E E Q E E E E E E Q R J S ) =.=.=.=.=.=.:.~ 8 9 7 j h : ; - $ * 0.0.0.0.0.0.0.0.0.",
"0.0.0.0.0.0.0.0.0.0.0.; # r ! Q E E E E E E E E Q E Q E E R J J A Z Z Z Z Z Z S w + @ z n c : ; 0.0.0.0.0.0.0.0.0.0.0.0.",
"0.0.0.0.0.0.0.0.0.0.0.; # r E Q Q E Q E E Q E Q Q E E E [ R F J F J G J G J J K t # = l n n : ; 0.0.0.0.0.0.0.0.0.0.0.0.",
"0.0.0.0.0.0.0.0.0.0.0.; - , 4 4 4 2 6 T Q E E E E E E K J K F F J F J F J J J J t * = l n c : ; 0.0.0.0.0.0.0.0.0.0.0.0.",
"0.0.0.0.0.0.0.0.0.0.0.; ; - = ; - * , T { Q Q ! E Q E J F F F F G J F J J F J J t * = l n n : ; 0.0.0.0.0.0.0.0.0.0.0.0.",
"0.0.0.0.0.0.0.0.0.0.0.- - - - - - - , F P K P P R E E K K J L K J G F J F J J J t * = j x z : ; 0.0.0.0.0.0.0.0.0.0.0.0.",
"0.0.0.0.0.0.0.0.0.0.0.0.0.0.0.0.0.0.0.- ; ; ; # C Q E E E Q E Q U F J F J F F J t * ; ; ; ; ; ; 0.0.0.0.0.0.0.0.0.0.0.0.",
"0.0.0.0.0.0.0.0.0.0.0.0.0.0.0.0.0.0.0.- - - + o B } E [ E E E Q U F F J G G L P t * - ; ; ; ; ; 0.0.0.0.0.0.0.0.0.0.0.0.",
"0.0.0.0.0.0.0.0.0.0.0.0.0.0.0.0.0.0.0.- = 4 t r J [ E E E E E Q U F J H J A r t 6 - ; 0.0.0.0.0.0.0.0.0.0.0.0.0.0.0.0.0.",
"0.0.0.0.0.0.0.0.0.0.0.0.0.0.0.0.0.0.0.- * q | [ Q Q E E E E E Q U F J G J V - # - - ; 0.0.0.0.0.0.0.0.0.0.0.0.0.0.0.0.0.",
"0.0.0.0.0.0.0.0.0.0.0.0.0.0.0.0.0.0.0.- = 9 [ E E E E E E E R E K F F G J V ; ; ; ; ; 0.0.0.0.0.0.0.0.0.0.0.0.0.0.0.0.0.",
"0.0.0.0.0.0.0.0.0.0.0.0.0.0.0.0.0.0.0.- # s 1.1.1.1.1.1.1.1.1.1.X.` ` W J A - ; * $ $ 0.0.0.0.0.0.0.0.0.0.0.0.0.0.0.0.0.",
"0.0.0.0.0.0.0.0.0.0.0.0.0.0.0.0.0.0.0.- # m 5.4.4.4.4.4.4.4.4.4.<.%.%.W G B - - - 0.0.0.0.0.0.0.0.0.0.0.0.0.0.0.0.0.0.0.",
"0.0.0.0.0.0.0.0.0.0.0.0.0.0.0.0.0.0.0.- @ m 4.4.4.4.4.4.<.4.4.4.,.@.#.W J Z 1 1 : 0.0.0.0.0.0.0.0.0.0.0.0.0.0.0.0.0.0.0.",
"0.0.0.0.0.0.0.0.0.0.0.0.0.0.0.0.0.0.0.- # m 4.4.4.4.4.4.4.4.4.4.,.$.#.W G J R Q C % - - ; - 0.0.0.0.0.0.0.0.0.0.0.0.0.0.",
"0.0.0.0.0.0.0.0.0.0.0.0.0.0.0.0.0.0.0.- @ m 4.4.4.4.4.4.4.4.4.4.,.$.#.W G J Q ! B O # ; ; ; 0.0.0.0.0.0.0.0.0.0.0.0.0.0.",
"0.0.0.0.0.0.0.0.0.0.0.0.0.0.0.0.0.0.0.- # m 5.4.4.4.4.4.4.4.4.4.,.@.#.W G J T R D 0 q 1 - - 0.0.0.0.0.0.0.0.0.0.0.0.0.0.",
"0.0.0.0.0.0.0.0.0.0.0.0.0.0.0.0.0.0.0.; X m 5.4.4.4.4.4.4.4.4.4.,.$.#.W A G G G U } | 8 * ; 0.0.0.0.0.0.0.0.0.0.0.0.0.0.",
"0.0.0.0.0.0.0.0.0.0.0.0.0.0.0.0.0.0.0.; # m 4.4.4.4.4.4.4.4.4.4.,.$.%.W G G G G U } | 8 * - 0.0.0.0.0.0.0.0.0.0.0.0.0.0.",
"0.0.0.0.0.0.0.0.0.0.0.0.0.0.0.0.0.0.0.; # e X. .;.>.>.>.>.;. . .( / / L F J G J B q r 1 - - 0.0.0.0.0.0.0.0.0.0.0.0.0.0.",
"0.0.0.0.0.0.0.0.0.0.0.0.0.0.0.0.0.0.0.- * q [ Y _ $.@.@.#.] E E K F A F J G G L t O * - - - 0.0.0.0.0.0.0.0.0.0.0.0.0.0.",
"0.0.0.0.0.0.0.0.0.0.0.0.0.0.0.0.0.0.0.- # q ! E ' $.@.@.#.] E Q U H J J G G F G r - - ; ; - 0.0.0.0.0.0.0.0.0.0.0.0.0.0.",
"0.0.0.0.0.0.0.0.0.0.0.0.0.0.0.0.0.0.0.- * q { Q ! ! ! ! ! ! Q Q E E E J J V , < ; 0.0.0.0.0.0.0.0.0.0.0.0.0.0.0.0.0.0.0.",
"0.0.0.0.0.0.0.0.0.0.0.0.0.0.0.0.0.0.0.; = 9 } Q E E E Q { Q { Q E E E J G D - - * 0.0.0.0.0.0.0.0.0.0.0.0.0.0.0.0.0.0.0.",
"0.0.0.0.0.0.0.0.0.0.0.0.0.0.0.0.0.0.0.- - 9 } E E R R J F J J F T E E K G D ; ; * 0.0.0.0.0.0.0.0.0.0.0.0.0.0.0.0.0.0.0.",
"0.0.0.0.0.0.0.0.0.0.0.0.0.0.0.0.0.0.0.- # q { Q P F F , # - # + M } E J G D ; ; * 0.0.0.0.0.0.0.0.0.0.0.0.0.0.0.0.0.0.0.",
"0.0.0.0.0.0.0.0.0.0.0.0.0.0.0.0.0.0.0.- * q | { T J H , ; ; ; $ N | } U P D ; ; * 0.0.0.0.0.0.0.0.0.0.0.0.0.0.0.0.0.0.0.",
"0.0.0.0.0.0.0.0.0.0.0.0.0.0.0.0.0.0.0.$ $ 1 t t r 0 q : ; = * % 5 t t q q 0 ; ; - 0.0.0.0.0.0.0.0.0.0.0.0.0.0.0.0.0.0.0.",
"0.0.0.0.0.0.0.0.0.0.0.0.0.0.0.0.0.0.0.0.0.$ # * * - + ; ; - 0.0.$ * # * = * ; ; * 0.0.0.0.0.0.0.0.0.0.0.0.0.0.0.0.0.0.0.",
"0.0.0.0.0.0.0.0.0.0.0.0.0.0.0.0.0.0.0.0.0.$ ; ; ; ; ; ; ; - 0.0.$ ; ; ; ; ; ; ; * 0.0.0.0.0.0.0.0.0.0.0.0.0.0.0.0.0.0.0.",
"0.0.0.0.0.0.0.0.0.0.0.0.0.0.0.0.0.0.0.0.0.0.0.0.0.0.0.0.0.0.0.0.0.0.0.0.0.0.0.0.0.0.0.0.0.0.0.0.0.0.0.0.0.0.0.0.0.0.0.0.",
"0.0.0.0.0.0.0.0.0.0.0.0.0.0.0.0.0.0.0.0.0.0.0.0.0.0.0.0.0.0.0.0.0.0.0.0.0.0.0.0.0.0.0.0.0.0.0.0.0.0.0.0.0.0.0.0.0.0.0.0.",
"0.0.0.0.0.0.0.0.0.0.0.0.0.0.0.0.0.0.0.0.0.0.0.0.0.0.0.0.0.0.0.0.0.0.0.0.0.0.0.0.0.0.0.0.0.0.0.0.0.0.0.0.0.0.0.0.0.0.0.0.",
"0.0.0.0.0.0.0.0.0.0.0.0.0.0.0.0.0.0.0.0.0.0.0.0.0.0.0.0.0.0.0.0.0.0.0.0.0.0.0.0.0.0.0.0.0.0.0.0.0.0.0.0.0.0.0.0.0.0.0.0.",
"0.0.0.0.0.0.0.0.0.0.0.0.0.0.0.0.0.0.0.0.0.0.0.0.0.0.0.0.0.0.0.0.0.0.0.0.0.0.0.0.0.0.0.0.0.0.0.0.0.0.0.0.0.0.0.0.0.0.0.0.",
"0.0.0.0.0.0.0.0.0.0.0.0.0.0.0.0.0.0.0.0.0.0.0.0.0.0.0.0.0.0.0.0.0.0.0.0.0.0.0.0.0.0.0.0.0.0.0.0.0.0.0.0.0.0.0.0.0.0.0.0.",
"0.0.0.0.0.0.0.0.0.0.0.0.0.0.0.0.0.0.0.0.0.0.0.0.0.0.0.0.0.0.0.0.0.0.0.0.0.0.0.0.0.0.0.0.0.0.0.0.0.0.0.0.0.0.0.0.0.0.0.0.",
"0.0.0.0.0.0.0.0.0.0.0.0.0.0.0.0.0.0.0.0.0.0.0.0.0.0.0.0.0.0.0.0.0.0.0.0.0.0.0.0.0.0.0.0.0.0.0.0.0.0.0.0.0.0.0.0.0.0.0.0.",
"0.0.0.0.0.0.0.0.0.0.0.0.0.0.0.0.0.0.0.0.0.0.0.0.0.0.0.0.0.0.0.0.0.0.0.0.0.0.0.0.0.0.0.0.0.0.0.0.0.0.0.0.0.0.0.0.0.0.0.0."
};
