/* XPM */
static char *result[] = {
/* columns rows colors chars-per-pixel */
"60 60 134 2 ",
"   c #1D2306",
".  c #21270F",
"X  c #222710",
"o  c #252C13",
"O  c #252A1B",
"+  c #2A2E1C",
"@  c #25261B",
"#  c #2B311D",
"$  c #2B2C26",
"%  c #273420",
"&  c #2D3221",
"*  c #2C3821",
"=  c #313521",
"-  c #323821",
";  c #3E3922",
":  c #433822",
">  c #4D3924",
",  c #5D3626",
"<  c #513924",
"1  c #5C3925",
"2  c #6A3A26",
"3  c #703A28",
"4  c #3D4525",
"5  c #404726",
"6  c #404926",
"7  c #404728",
"8  c #454F28",
"9  c #4B5824",
"0  c #475129",
"q  c #49542A",
"w  c #4E5B2C",
"e  c #505C2C",
"r  c #65532C",
"t  c #55622E",
"y  c #556230",
"u  c #596631",
"i  c #5B6A31",
"p  c #5D7030",
"a  c #64762E",
"s  c #637435",
"d  c #697A36",
"f  c #4F5342",
"g  c #545749",
"h  c #565A49",
"j  c #5E6251",
"k  c #6D6E42",
"l  c #75674D",
"z  c #687247",
"x  c #767249",
"c  c #646658",
"v  c #7C7450",
"b  c #707B51",
"n  c #6C6F61",
"m  c #9D3B2D",
"M  c #A33C2D",
"N  c #B63D2F",
"B  c #BC3D31",
"V  c #C13E31",
"C  c #CD3F33",
"Z  c #C94033",
"A  c #827556",
"S  c #847558",
"D  c #6C812E",
"F  c #758A3B",
"G  c #788F3D",
"H  c #72853B",
"J  c #7E933E",
"K  c #7F9841",
"L  c #829B37",
"P  c #849D3B",
"I  c #86A038",
"U  c #809740",
"Y  c #869E42",
"T  c #87A042",
"R  c #89A143",
"E  c #8FAA44",
"W  c #8FA24A",
"Q  c #90A946",
"!  c #94AE49",
"~  c #93A34E",
"^  c #98BB45",
"/  c #97B14A",
"(  c #9AB54B",
")  c #9EBB4D",
"_  c #99A453",
"`  c #A0BD4E",
"'  c #ACBA5E",
"]  c #8C9671",
"[  c #B39A77",
"{  c #ACA967",
"}  c #B2B866",
"|  c #B6BB68",
" . c #BBB86E",
".. c #BEAF77",
"X. c #BBA07C",
"o. c #BFAF78",
"O. c #A6B676",
"+. c #C1A67F",
"@. c #C0AC7B",
"#. c #C1B877",
"$. c #C6B97B",
"%. c #9EC04B",
"&. c #A3C14F",
"*. c #A4C250",
"=. c #CBC978",
"-. c #888A80",
";. c #91948A",
":. c #B7B8B3",
">. c #BBBCB8",
",. c #C2A780",
"<. c #D6B58E",
"1. c #DAB791",
"2. c #DCBA93",
"3. c #B5C38F",
"4. c #BBC797",
"5. c #BECA9D",
"6. c #DFCE8A",
"7. c #C0CC9D",
"8. c #E1D38F",
"9. c #E3C097",
"0. c #E7C499",
"q. c #EAC79B",
"w. c #EECA9C",
"e. c #CCD5B1",
"r. c #CCD1B9",
"t. c #D3DABC",
"y. c #F3CDA1",
"u. c #FFD9A9",
"i. c #FFDFB1",
"p. c #D5DDC0",
"a. c #D8DFC5",
"s. c #D9E0C7",
"d. c #FFFFFF",
"f. c None",
/* pixels */
"f.f.f.f.f.f.f.f.f.f.f.f.f.f.f.f.f.f.f.f.f.f.f.f.f.f.f.f.f.f.f.f.f.f.f.f.f.f.f.f.f.f.f.f.f.f.f.f.f.f.f.f.f.f.f.f.f.f.f.f.",
"f.f.f.f.f.f.f.f.f.f.f.f.f.f.f.f.f.f.f.f.f.f.f.f.f.f.f.f.f.f.f.f.f.f.f.f.f.f.f.f.f.f.f.f.f.f.f.f.f.f.f.f.f.f.f.f.f.f.f.f.",
"f.f.f.f.f.f.f.f.f.f.f.f.f.f.f.f.f.f.f.f.f.f.f.f.f.f.f.f.f.f.f.f.f.f.f.f.f.f.f.f.f.f.f.f.f.f.f.f.f.f.f.f.f.f.f.f.f.f.f.f.",
"f.f.f.f.f.f.f.f.f.f.f.f.f.f.f.f.f.f.f.f.f.f.f.f.f.f.f.f.f.f.f.f.f.f.f.f.f.f.f.f.f.f.f.f.f.f.f.f.f.f.f.f.f.f.f.f.f.f.f.f.",
"f.f.f.f.f.f.f.f.f.f.f.f.f.f.f.f.f.f.f.f.f.f.f.f.f.f.f.f.f.f.f.f.f.f.f.f.f.f.f.f.f.f.f.f.f.f.f.f.f.f.f.f.f.f.f.f.f.f.f.f.",
"f.f.f.f.f.f.f.f.f.f.f.f.f.$ = = = = = = = = = = = = = = = = = = = = = = = = = = = = = = = = f.f.f.f.f.f.f.f.f.f.f.f.f.f.",
"f.f.f.f.f.f.f.f.f.f.f.f.f.$ = = = = = = = = = = = = = = = = = = - - = - = = = = = = = - - = f.f.f.f.f.f.f.f.f.f.f.f.f.f.",
"f.f.f.f.f.f.f.f.f.f.f.$ $ - 6 5 7 7 6 6 5 5 6 6 6 5 6 6 6 5 6 6 4 4 4 4 4 4 4 4 4 4 4 - = - f.f.f.f.f.f.f.f.f.f.f.f.f.f.",
"f.f.f.f.f.f.f.f.f.f.f.- & s ) ) ( ( ` ` ( ` ( ` ) ( ) ) ( ) ( ) ! U Y Y Y Y Y Y Y Y T w & - - - = f.f.f.f.f.f.f.f.f.f.f.",
"f.f.f.f.f.f.f.f.f.f.f.- # s ` ` ` ` ` ` ` ` ` ` ` ` ` ` ` ` ` ` ! Y Y R R Y R R T R R w # - * * & f.f.f.f.f.f.f.f.f.f.f.",
"f.f.f.f.f.f.f.f.f.f.f.- # s ` ` ( / / / / / / / ) ` ` ` ` ` / / ! Y Y R Y R R Y T R E w & - 2 3 , f.f.f.f.f.f.f.f.f.f.f.",
"f.f.f.f.f.f.f.f.f.f.f.- $ s ` ` W Y Y Y Y Y Y Y ! ` ) ) ` ( Y Y Y Y R R R Y Y R R Y R w & : V C M * - f.f.f.f.f.f.f.f.f.",
"f.f.f.f.f.f.f.f.f.f.f.- # s *.*.Q Y Y Y Y Y Y Y ( *.` ` ` ( Y Y P L L R E R P L P Y E w & ; B Z m * - f.f.f.f.f.f.f.f.f.",
"f.f.f.f.f.f.f.f.f.f.f.- = 8 i u Y ( / ( / / ( ) H u p ( ` ( Y P 3.s.s.b q z a.a.4.P W w # ; B Z m * - f.f.f.f.f.f.f.f.f.",
"f.f.f.f.f.f.f.f.f.f.f.- - = # + U ` ` ` ` ` ` *.i @ & ! ` ( Y L e.d.d.c . g d.d.p.L R w & ; B C m * - f.f.f.f.f.f.f.f.f.",
"f.f.f.f.f.f.f.f.f.f.f.- - - 4 - U ` ` ` ` ` ` ` s - 4 / ` ) Y L e.d.d.c o h d.d.t.L R w & ; N V m * - f.f.f.f.f.f.f.f.f.",
"f.f.f.f.f.f.f.f.f.f.f.- & s ( ! ` ` ` ` ` ) ) ) / / ! ` ` ( P L e.d.d.c o h d.d.t.L R e & - : : ; - - f.f.f.f.f.f.f.f.f.",
"f.f.f.f.f.f.f.f.f.f.f.- $ s ` ` ` ` ` ` ` ` ` ) ` ` ` ) ` ( Y L e.d.d.j   f d.d.t.L E w % % * - - - - f.f.f.f.f.f.f.f.f.",
"f.f.f.f.f.f.f.f.f.f.f.- # s ` ` ` ` ` ` ` ` ` ` ` ) ` ` ` ( T L e.d.d.;.c -.d.d.r.D F r 2 1 - - = = = f.f.f.f.f.f.f.f.f.",
"f.f.f.f.f.f.f.f.f.f.f.- # s ` ) ( ` ` ( ^ ` ` ( ` ) ) ) ` ) Y L e.d.d.d.d.d.d.d.:.. % m Z V : * = f.f.f.f.f.f.f.f.f.f.f.",
"f.f.f.f.f.f.f.f.f.f.f.- # s ` ` ` ` ( ` ` ` ` ` ) ) ) ) ` ( Y L e.d.d.d.d.d.d.d.>.o * m Z B : - & f.f.f.f.f.f.f.f.f.f.f.",
"f.f.f.f.f.f.f.f.f.f.f.- & s ` ` ` ` ` ` ^ ` ` ` ` ` ) ` ` ( T P O.7.5.5.5.5.5.7.] + * m Z B ; - = f.f.f.f.f.f.f.f.f.f.f.",
"f.f.f.f.f.f.f.f.f.f.f.- # s ` ) ( ` ` ` ` ` ` ( ) ) ) ) ` ( Y T P P L P L L L I a # & m Z B : * = f.f.f.f.f.f.f.f.f.f.f.",
"f.f.f.f.f.f.f.f.f.f.f.- & s ` ` ` ` ( ` ` ` ) ` ) ` ` ` ` ( R T T T Y T T T Y W d # * m Z B ; - = f.f.f.f.f.f.f.f.f.f.f.",
"f.f.f.f.f.f.f.f.f.f.f.- - 4 0 0 0 0 0 0 0 q q 4 U *.) Q R R R R R Y R R Y R Y Q d & - : < > - - = f.f.f.f.f.f.f.f.f.f.f.",
"f.f.f.f.f.f.f.f.f.f.f.- - & = = - = & = = & # O G *.` Y Y Y Y Y R Y Y R R Y Y R d & - - - - - - = f.f.f.f.f.f.f.f.f.f.f.",
"f.f.f.f.f.f.f.f.f.f.f.= = = - = = = = - = 4 q 8 U *.) E R W W E R R R T R Y G U s & - = = = = = $ f.f.f.f.f.f.f.f.f.f.f.",
"f.f.f.f.f.f.f.f.f.f.f.f.f.f.f.f.f.f.f.= # i *.&.` ) ) ) ) ) ) ` ! Y Y T T P = - - = - $ f.f.f.f.f.f.f.f.f.f.f.f.f.f.f.f.",
"f.f.f.f.f.f.f.f.f.f.f.f.f.f.f.f.f.f.f.= & u %.^ ^ ( ) ( ) ^ ^ ) E P Y T R U - - = - - $ f.f.f.f.f.f.f.f.f.f.f.f.f.f.f.f.",
"f.f.f.f.f.f.f.f.f.f.f.f.f.f.f.f.f.f.f.= # k =.=.=.=.=.=.=.=.=.=...{ { W R U - - = = $ $ f.f.f.f.f.f.f.f.f.f.f.f.f.f.f.f.",
"f.f.f.f.f.f.f.f.f.f.f.f.f.f.f.f.f.f.f.- + A i.u.u.u.u.u.u.u.u.i.w.1.1._ Y U - - = f.f.f.f.f.f.f.f.f.f.f.f.f.f.f.f.f.f.f.",
"f.f.f.f.f.f.f.f.f.f.f.f.f.f.f.f.f.f.f.= + A i.u.u.u.u.u.u.u.u.u.q.<.1._ Y P - - $ f.f.f.f.f.f.f.f.f.f.f.f.f.f.f.f.f.f.f.",
"f.f.f.f.f.f.f.f.f.f.f.f.f.f.f.f.f.f.f.= # A i.u.u.u.u.u.u.u.u.u.0.<.<._ Y L = = = = = = & & f.f.f.f.f.f.f.f.f.f.f.f.f.f.",
"f.f.f.f.f.f.f.f.f.f.f.f.f.f.f.f.f.f.f.- + A u.u.u.u.u.u.u.u.u.u.0.<.1._ Y U = = = = = = - = f.f.f.f.f.f.f.f.f.f.f.f.f.f.",
"f.f.f.f.f.f.f.f.f.f.f.f.f.f.f.f.f.f.f.= + A i.u.u.u.u.u.u.u.u.u.q.<.<./ Y L 5 5 7 5 5 ; - = f.f.f.f.f.f.f.f.f.f.f.f.f.f.",
"f.f.f.f.f.f.f.f.f.f.f.f.f.f.f.f.f.f.f.= o A i.u.y.u.u.u.u.u.u.u.q.<.1._ Y Y ) ( ( ` ( y & - f.f.f.f.f.f.f.f.f.f.f.f.f.f.",
"f.f.f.f.f.f.f.f.f.f.f.f.f.f.f.f.f.f.f.= + S i.u.u.u.u.u.u.u.i.i.w.1.2._ P Q ` ` ` *.*.u & = f.f.f.f.f.f.f.f.f.f.f.f.f.f.",
"f.f.f.f.f.f.f.f.f.f.f.f.f.f.f.f.f.f.f.= + x 8.6.8.w.y.y.y.0.X.,.@.@.@.~ Y R / ) Q U U q & - f.f.f.f.f.f.f.f.f.f.f.f.f.f.",
"f.f.f.f.f.f.f.f.f.f.f.f.f.f.f.f.f.f.f.- % i %.^ $.1.<.<.1.[ o O p R P R Y R Y R s + # = - - f.f.f.f.f.f.f.f.f.f.f.f.f.f.",
"f.f.f.f.f.f.f.f.f.f.f.f.f.f.f.f.f.f.f.= # i *.) $.2.1.2.9.X.o + a Y Y R R T R Q d & - - - - f.f.f.f.f.f.f.f.f.f.f.f.f.f.",
"f.f.f.f.f.f.f.f.f.f.f.f.f.f.f.f.f.f.f.= & i *.) ' | } v l x G K Y ( ( R T U t y 0 = - & $ $ f.f.f.f.f.f.f.f.f.f.f.f.f.f.",
"f.f.f.f.f.f.f.f.f.f.f.f.f.f.f.f.f.f.f.= # i *.` ) ) ( 4 O q *.*.` ` ` Q R J = & = - - f.f.f.f.f.f.f.f.f.f.f.f.f.f.f.f.f.",
"f.f.f.f.f.f.f.f.f.f.f.f.f.f.f.f.f.f.f.= & i ` ( ) ) ( 6 # e ` ) ` ` ` Y Y G - - - - - f.f.f.f.f.f.f.f.f.f.f.f.f.f.f.f.f.",
"f.f.f.f.f.f.f.f.f.f.f.f.f.f.f.f.f.f.f.f.f.= 6 7 6 4 6 - # e &.` / Y Y w 4 4 f.f.f.f.f.f.f.f.f.f.f.f.f.f.f.f.f.f.f.f.f.f.",
"f.f.f.f.f.f.f.f.f.f.f.f.f.f.f.f.f.f.f.f.f.$ - = = = = - # e *.&./ Y Y 0 & = f.f.f.f.f.f.f.f.f.f.f.f.f.f.f.f.f.f.f.f.f.f.",
"f.f.f.f.f.f.f.f.f.f.f.f.f.f.f.f.f.f.f.f.f.$ = = = - - - = q R T P H F 7 = & f.f.f.f.f.f.f.f.f.f.f.f.f.f.f.f.f.f.f.f.f.f.",
"f.f.f.f.f.f.f.f.f.f.f.f.f.f.f.f.f.f.f.f.f.f.f.f.f.f.f.- - - & & = = = f.f.f.f.f.f.f.f.f.f.f.f.f.f.f.f.f.f.f.f.f.f.f.f.f.",
"f.f.f.f.f.f.f.f.f.f.f.f.f.f.f.f.f.f.f.f.f.f.f.f.f.f.f.- - - - - = - ; f.f.f.f.f.f.f.f.f.f.f.f.f.f.f.f.f.f.f.f.f.f.f.f.f.",
"f.f.f.f.f.f.f.f.f.f.f.f.f.f.f.f.f.f.f.f.f.f.f.f.f.f.f.f.f.f.f.f.f.f.f.f.f.f.f.f.f.f.f.f.f.f.f.f.f.f.f.f.f.f.f.f.f.f.f.f.",
"f.f.f.f.f.f.f.f.f.f.f.f.f.f.f.f.f.f.f.f.f.f.f.f.f.f.f.f.f.f.f.f.f.f.f.f.f.f.f.f.f.f.f.f.f.f.f.f.f.f.f.f.f.f.f.f.f.f.f.f.",
"f.f.f.f.f.f.f.f.f.f.f.f.f.f.f.f.f.f.f.f.f.f.f.f.f.f.f.f.f.f.f.f.f.f.f.f.f.f.f.f.f.f.f.f.f.f.f.f.f.f.f.f.f.f.f.f.f.f.f.f.",
"f.f.f.f.f.f.f.f.f.f.f.f.f.f.f.f.f.f.f.f.f.f.f.f.f.f.f.f.f.f.f.f.f.f.f.f.f.f.f.f.f.f.f.f.f.f.f.f.f.f.f.f.f.f.f.f.f.f.f.f.",
"f.f.f.f.f.f.f.f.f.f.f.f.f.f.f.f.f.f.f.f.f.f.f.f.f.f.f.f.f.f.f.f.f.f.f.f.f.f.f.f.f.f.f.f.f.f.f.f.f.f.f.f.f.f.f.f.f.f.f.f.",
"f.f.f.f.f.f.f.f.f.f.f.f.f.f.f.f.f.f.f.f.f.f.f.f.f.f.f.f.f.f.f.f.f.f.f.f.f.f.f.f.f.f.f.f.f.f.f.f.f.f.f.f.f.f.f.f.f.f.f.f.",
"f.f.f.f.f.f.f.f.f.f.f.f.f.f.f.f.f.f.f.f.f.f.f.f.f.f.f.f.f.f.f.f.f.f.f.f.f.f.f.f.f.f.f.f.f.f.f.f.f.f.f.f.f.f.f.f.f.f.f.f.",
"f.f.f.f.f.f.f.f.f.f.f.f.f.f.f.f.f.f.f.f.f.f.f.f.f.f.f.f.f.f.f.f.f.f.f.f.f.f.f.f.f.f.f.f.f.f.f.f.f.f.f.f.f.f.f.f.f.f.f.f.",
"f.f.f.f.f.f.f.f.f.f.f.f.f.f.f.f.f.f.f.f.f.f.f.f.f.f.f.f.f.f.f.f.f.f.f.f.f.f.f.f.f.f.f.f.f.f.f.f.f.f.f.f.f.f.f.f.f.f.f.f.",
"f.f.f.f.f.f.f.f.f.f.f.f.f.f.f.f.f.f.f.f.f.f.f.f.f.f.f.f.f.f.f.f.f.f.f.f.f.f.f.f.f.f.f.f.f.f.f.f.f.f.f.f.f.f.f.f.f.f.f.f.",
"f.f.f.f.f.f.f.f.f.f.f.f.f.f.f.f.f.f.f.f.f.f.f.f.f.f.f.f.f.f.f.f.f.f.f.f.f.f.f.f.f.f.f.f.f.f.f.f.f.f.f.f.f.f.f.f.f.f.f.f.",
"f.f.f.f.f.f.f.f.f.f.f.f.f.f.f.f.f.f.f.f.f.f.f.f.f.f.f.f.f.f.f.f.f.f.f.f.f.f.f.f.f.f.f.f.f.f.f.f.f.f.f.f.f.f.f.f.f.f.f.f."
};
