/* XPM */
static char *ab72b7634ed14271fde3de1e7e1ec564Y1tYJb0wdyiNPOxf[] = {
/* columns rows colors chars-per-pixel */
"60 60 178 2 ",
"   c None",
".  c #001B0F",
"X  c #011B10",
"o  c #0B141E",
"O  c #07191C",
"+  c #032416",
"@  c #052618",
"#  c #062919",
"$  c #0A2C1B",
"%  c #0E301E",
"&  c #10321E",
"*  c #0D1621",
"=  c #0D1B21",
"-  c #121523",
";  c #131A25",
":  c #151628",
">  c #18162B",
",  c #171B28",
"<  c #1A1A2A",
"1  c #132023",
"2  c #152428",
"3  c #18202A",
"4  c #1F292A",
"5  c #0F3120",
"6  c #123421",
"7  c #153823",
"8  c #1C3A24",
"9  c #21272D",
"0  c #242C2B",
"q  c #223E26",
"w  c #253F28",
"e  c #2C2637",
"r  c #272B34",
"t  c #2C2C35",
"y  c #2C2439",
"u  c #322E3B",
"i  c #382A3B",
"p  c #243030",
"a  c #34323C",
"s  c #3A343F",
"d  c #3C3B3F",
"f  c #264027",
"g  c #264028",
"h  c #2B442A",
"j  c #31472C",
"k  c #33492D",
"l  c #2F4F39",
"z  c #314C31",
"x  c #2A533E",
"c  c #343542",
"v  c #3E3345",
"b  c #373A41",
"n  c #3D3B43",
"m  c #3F3D49",
"M  c #413546",
"N  c #433D47",
"B  c #423648",
"V  c #443B49",
"C  c #4A3F4F",
"Z  c #3F4C4D",
"A  c #265A49",
"S  c #464546",
"D  c #44424B",
"F  c #49454B",
"G  c #424B4E",
"H  c #4C4C4C",
"J  c #4C514E",
"K  c #50504F",
"L  c #444252",
"P  c #4D4352",
"I  c #4C4E52",
"U  c #554E59",
"Y  c #475553",
"T  c #4C5353",
"R  c #4F5852",
"E  c #4E5A58",
"W  c #535353",
"Q  c #525A55",
"!  c #585957",
"~  c #54545B",
"^  c #5A555D",
"/  c #545B5A",
"(  c #5B5B5B",
")  c #55625B",
"_  c #58615C",
"`  c #5C5661",
"'  c #5C5D62",
"]  c #605E66",
"[  c #635F68",
"{  c #596462",
"}  c #576960",
"|  c #5C6D62",
" . c #5E7366",
".. c #5D7469",
"X. c #5E796B",
"o. c #636363",
"O. c #65646B",
"+. c #6A656E",
"@. c #656A69",
"#. c #6C6C6C",
"$. c #627367",
"%. c #63756A",
"&. c #6A756D",
"*. c #637A6C",
"=. c #687E6F",
"-. c #70706F",
";. c #696770",
":. c #6D6D72",
">. c #716E73",
",. c #677D70",
"<. c #6B7E72",
"1. c #737474",
"2. c #737B76",
"3. c #787877",
"4. c #76737A",
"5. c #727F78",
"6. c #7C7C7C",
"7. c #6A8073",
"8. c #718177",
"9. c #75837A",
"0. c #7A847D",
"q. c #7B887F",
"w. c #7C7A80",
"e. c #817F80",
"r. c #7E8681",
"t. c #7D8480",
"y. c #7D8981",
"u. c #808080",
"i. c gray51",
"p. c #818281",
"a. c #828284",
"s. c #858585",
"d. c #868786",
"f. c #838584",
"g. c #888687",
"h. c #878887",
"j. c #848C87",
"k. c #828A85",
"l. c #868288",
"z. c #868D88",
"x. c #878B89",
"c. c #898989",
"v. c gray54",
"b. c #8B8F8D",
"n. c #8D8D8D",
"m. c gray56",
"M. c #8F8E8F",
"N. c #8E8E8E",
"B. c #8C8D8D",
"V. c #8D908F",
"C. c #8D908E",
"Z. c #8E8C91",
"A. c #958F93",
"S. c #908F90",
"D. c #8F9090",
"F. c #8F9191",
"G. c #8D9992",
"H. c #8D9A97",
"J. c #8E9991",
"K. c #909090",
"L. c gray57",
"P. c #909190",
"I. c #929292",
"U. c #939393",
"Y. c #919291",
"T. c #929194",
"R. c #949394",
"E. c gray58",
"W. c #959595",
"Q. c #959495",
"!. c #969696",
"~. c #929292",
"^. c #929C96",
"/. c #989897",
"(. c #989599",
"). c #969A98",
"_. c #989898",
"`. c #9B9A9A",
/* pixels */
"                                                                                                                        ",
"                                          i i F s.c.c.h.1.H d H 3.c.c.c.o.v i c                                         ",
"                                          M P +.        K.o.H (         l.U V L                                         ",
"                                        +.F ! i.  R.S.S.0.o.H (     S.K.u.o.H ` A.                                      ",
"                                  L.K.K.3.( W e.  W.L.K.e.o.S (     L.L.u.o.^ #.h.L.L.                                  ",
"                      B H @.    S.I.I.K.8.) ! 0.  W.L.S.e.o.H (     K.L.f.o.! %.j.L.L.L.    1.T V                       ",
"                        H @.7.J.  L.I.S.8.) H o._.!.I.I.i.o.H ! h.!.W.R.3.J Q %.j.L.L.    9.#.W B.                      ",
"                        `.( J h.  I.I.I.8./ N K o.o.o.o.( W H K ( o.o.o.! F I %.z.R.L.    ! ! B.                        ",
"                      W.  Z.( ( 0.0.0.t.1.T y a u u a a u a a a u u a a a t N @.0.r.0.0.#.! s.  !.`.                    ",
"              H.    Z.L.L.  c.( H } E ~ ~ d - ; - - ; ; - ; ; - ; : - - - - r I ~ E ) Q W e.  W.L.S.                    ",
"            #.$.0.F.L.L.L.L.  t.d n , : : O . . . . . . . . . . . . . . . . X ; : : r n O.  W.L.L.L.L.r.&.#.            ",
"            #.#.%.9.L.L.L.L.4.I < < X X X . X X . . . . X . . . X . X X . X X X . X = < a 1.B.L.L.L.0.&.&.-.            ",
"            -.1.! ) 0.L.L.3.V ; . X X X X . X X X . X X X X X X X X X X X X . X X X X X O n #.S.E.y._ _ #.&.            ",
"            #.W H H _ 7.4.N ; X . . X X X X X X X X X X X X . X X . X X X X X X X X X X X ; c #.8.} K H K O.            ",
"              #.H S H Q n 1 X X X X X X X X . X X X X X X X X X X X X X X X X X X X X X X X O d T J S H o.W.            ",
"              W.s.#.W S < X X X X X X X X X X X X X X . X X X X X X X X . X X X X X X X X X X , N H O.e.A.              ",
"          S.B.      -.d < X X X X X X X X X X . X X X X X X X X X X X X X X X X . X X X X X O , a O.W.    W.S.          ",
"          L.L.K.S.  S.: X . X X X X X X X X X X X X X X . X X X X X X . X X X X X X X X X X . . * w.  W.L.L.L.          ",
"          L.L.L.L.L.4.> X X X X X X . X . X X X X X . X X X X X X X X X X . X X X X X . X X X X ; O.S.L.L.K.B.          ",
"        U 1.<.B.W.g.[ < X X X X X X X X X X X X X X X X X X X . . X X X X X X X X X X X X X X X , W u.L.C.8.1.^         ",
"        B W L >.0.{ r O X X X . X . X X X X X X X X X . X . X X X X . X . X X X X X X X X X X X X 0 ~ 5.4.I K V         ",
"        B ! N W Q n - . X X X X X X X X . X . X X X X X X X X X X X X X X X X X X . X X X X . X X * c I Q F ^ V         ",
"        4.h.) W F u : . . X X X X X X X X X X X X X X X X X X X X X X X X X X X X X X . X X X X . ; e m W / u.4.        ",
"            y.u.#.F - . X X X X X X X . X X X X X X X X X . X X X X . X X X . X X X X X X X X X . * m o.6.y.            ",
"          L.      w.o . . X X X X X X X X X X X X X X X X X X X X X X . X X X X X X . X X X X X . o ;.      !.          ",
"          L.E.I._.O.- . X X . X X X X X X X X X X X X X X X X X X X X X X X X X X X X X X X X . . o ` B.W.Y.L.          ",
"          L.L.L.!.O.o . . X X X X X X X X X X X X X X X X X X X X X X X X X . X X X X X X . X X . o ( Z.E.L.L.          ",
"          L.L.R.k.Q - . X X X X X X X X X X X X X . X X X X . X . X X X X X X X . X X X X X X X . o G 9.F.L.L.          ",
"          0.L.k.q.! - . . X X X X X X X X X X X X X X X X X X X X X . X . X X X X X X X X . X X . * G 9.k.C.y.          ",
"          8.j.9.N.+.- . X X X X X X X X X X X X X X X X X X X X X X X X X X X X X X X X X X X X . * ` s.0.y.9.          ",
"          h. .f.N.o.- . X X X X X X X X X X X X X X X X X X X X X X X X X X X X X X . X X X X X . * W a.h.*.f.          ",
"        B H H H H s - . X X X X X X X X X X X X X X . X X X X X X X . X X X . X X X X X X X X X X * a H H H H B         ",
"        M H #.W H s , . . X X X . X X X X X X X X X X X X X X X X X X X X X X X X X X X X X X X X = a H J o.W M         ",
"        M o.H o.K a , . X X X . X X X X X X . X X X X . X X X X X X X X X X X X X X X X X X X X X * t H ( W o.V         ",
"        Z.  S.  `.O.* . X X X X X X X . . X X X X X X X X X X X X X X X X X X X X X X X . X X X X o ^ Z.`.W.`.Z.        ",
"                  :.o X . X X X X X X X X X X X X X X X X X X X X X X X X X X X X X X X X X X X X o ' ^.                ",
"          k.<.X.<.T - . X X X X X X X X X X X X X X X X X X X X X + X + X X X X + X X X X X + X + O F X.%.=.k.          ",
"          =.F.<.k.O.- . X X X X X X X X X X X X X X X X X X X X $ @ @ $ @ $ @ # @ $ # @ $ + $ + $ 1 ` y.8.j.<.          ",
"          B.=.*.=.Y - . X X . X X X X X X X X X X X $ @ @ $ X $ + # @ @ # + # + # @ # # + $ + $ + * G %.=.=.z.          ",
"          <.*.*.z.O.- . X X X X X X X X X X + $ X $ + @ 5 6 5 & $ 6 % $ 5 % 5 % $ % $ 6 $ 6 $ % % = ^ 0.7.*.<.          ",
"        [ R / Q o.F : . . . X X X X X X X + $ + # + # $ 6 6 5 & 6 q 8 8 q 8 q 8 q 8 8 8 8 8 7 g 7 2 N ( / Q W ]         ",
"        M ! H H H s , . . . X X X X @ X + @ # # & # 5 8 8 6 q 6 q q w q q q q q q w f f f f q f f 4 a S H S ^ V         ",
"        C #.W W J a ; . X X X X X # $ + $ @ # 6 8 6 8 q w q w q h w h h g h g h g h g g h f h f j p a S W W #.F         ",
"        ` 3.6.6.#.S : . X X X X + $ + % + @ 6 8 h 8 g q q w 8 h k j h k k j j k k k k k k k k z k 0 n o.3.6.6.]         ",
"                  w.o . X X X @ $ X 6 6 6 6 8 h 6 j 8 w h 8 h q h q q h 8 g q h k k k k k k k k k 4 #.                  ",
"          R.<.F.`.O.- . X X $ # + 5 6 h 8 8 h 8 k k j j k z j j j j j j k j j k k k k k k k k k k 0 ` F.Y.9.C.          ",
"          <.B.<.B.O.* . X # + @ % 6 h 8 w q q g 8 h q h k k k k k k k k k k k k k k k k k k k k k 4 ` f.0.k.8.          ",
"          *.9.k.r./ : X X + # $ 6 h 8 h j h h j w j h h k k k k k k k k k k k k k k k k k k k k k 0 Y 9.y.0.*.          ",
"          *.*.y.k./ - . X + $ 8 w g 8 g h h h k k k k k k k k k k j k k k k k k k k k k k k k k k 0 T 9.f.,.*.          ",
"        L.|  .| 9.{ - . + $ 6 w h 8 j q h h q k k k k k k k k k k k k k k k j k k k k k k k k k k 0 W 3.$.|  .B.        ",
"        M H H H H s ; + 6 6 h w 8 k k k k k k z z z z z z z k z z z z z z k k k k k k k k k k k k 0 a S H H H n         ",
"        P #.#.I H d 3 6 6 h 8 q h 6 k k k k k x                           z k k k k k k k k k k k t a S K @.:.P         ",
"        B #.#.O.O.H < 6 j 7 g k j j k k k k k k                           z k k k k k k k k k k k 0 N o.O.#.#.C         ",
"        _.        :.- 6 8 h 8 g k k k k k A                               k k k k k k k k k k k k 0 {                   ",
"          J.  ^.  4.; 6 5 8 f h k k k k k                                   z k k k k k k j k k k 0 O.!.^.  ^.          ",
"           .f.8.k.{ 1 5 6 8 h k k k k k k                                     z k k k k k k k k k 0 ~ 9.9.r.%.          ",
"          *.X.z.9.Y 3 & 8 j k k k k k k l                                       k k k k k k k k k 0 Z <.k.,.*.          ",
"          X.*.X.*.Y 3 7 z z z z z z z z                                         z z z z z z z z z p Z ..*.*.X.          ",
"                                                                                                                        ",
"                                                                                                                        "
};
