/* XPM */
static char *result[] = {
/* columns rows colors chars-per-pixel */
"60 60 103 2 ",
"   c #260E0F",
".  c #2A0F0F",
"X  c #2D1212",
"o  c #271C1B",
"O  c #2D1D1E",
"+  c #301F1E",
"@  c #33201E",
"#  c #2F1F20",
"$  c #351E20",
"%  c #381E21",
"&  c #2D2626",
"*  c #342223",
"=  c #392121",
"-  c #3A2E21",
";  c #373523",
":  c #3A3322",
">  c #3C3E22",
",  c #422324",
"<  c #4B2627",
"1  c #472D2B",
"2  c #482F2C",
"3  c #532A2B",
"4  c #5A2B2C",
"5  c #533729",
"6  c #612628",
"7  c #622E2E",
"8  c #682B2C",
"9  c #652F30",
"0  c #722E30",
"q  c #6E3233",
"w  c #743436",
"e  c #793637",
"r  c #7A3639",
"t  c #7F393A",
"y  c #3C4322",
"u  c #3E4C22",
"i  c #447525",
"p  c #467F25",
"a  c #5C4C4D",
"s  c #7C4A4B",
"d  c #635455",
"f  c #8D3335",
"g  c #813A3B",
"h  c #8A3C3D",
"j  c #9B373A",
"k  c #9D3C3F",
"l  c #A0393C",
"z  c #953F42",
"x  c #9D3D42",
"c  c #814C4E",
"v  c #964141",
"b  c #9E4245",
"n  c #A24346",
"m  c #A64548",
"M  c #AA4749",
"N  c #AE494A",
"B  c #B24649",
"V  c #B44B4C",
"C  c #BC4D4E",
"Z  c #BE4F50",
"A  c #AA5853",
"S  c #BF5252",
"D  c #BF5D58",
"F  c #B26A5E",
"G  c #9A7E7F",
"H  c #BA7968",
"J  c #C04F50",
"K  c #C35051",
"L  c #C0605A",
"P  c #C46D63",
"I  c #C77567",
"U  c #CB776A",
"Y  c #D07B6C",
"T  c #468125",
"R  c #498E26",
"E  c #499426",
"W  c #4B9E26",
"Q  c #4BA126",
"!  c #C08770",
"~  c #C18971",
"^  c #CB8972",
"/  c #BD8184",
"(  c #B2ABAB",
")  c #C08688",
"_  c #C38E8F",
"`  c #CEA483",
"'  c #D7B68F",
"]  c #D8B78F",
"[  c #DABC92",
"{  c #E6B590",
"}  c #EBB994",
"|  c #F3BF98",
" . c #D4AFB0",
".. c #D5B2B4",
"X. c #DBBBBC",
"o. c #DBC095",
"O. c #F3C39B",
"+. c #F2CDA0",
"@. c #F7D1A4",
"#. c #F8D3A4",
"$. c #FFD9A9",
"%. c #FFFFFF",
"&. c None",
/* pixels */
"&.&.&.&.&.&.&.&.&.&.&.&.&.&.&.&.&.&.&.&.&.&.&.&.&.&.&.&.&.&.&.&.&.&.&.&.&.&.&.&.&.&.&.&.&.&.&.&.&.&.&.&.&.&.&.&.&.&.&.&.",
"&.&.&.&.&.&.&.&.&.&.&.&.&.&.&.&.&.&.&.&.&.&.&.&.&.&.&.&.&.&.&.&.&.&.&.&.&.&.&.&.&.&.&.&.&.&.&.&.&.&.&.&.&.&.&.&.&.&.&.&.",
"&.&.&.&.&.&.&.&.&.&.&.&.&.&.&.&.&.&.&.&.&.&.&.&.&.&.&.&.&.&.&.&.&.&.&.&.&.&.&.&.&.&.&.&.&.&.&.&.&.&.&.&.&.&.&.&.&.&.&.&.",
"&.&.&.&.&.&.&.&.&.&.&.&.&.&.&.&.&.&.&.&.&.&.&.&.&.&.&.&.&.&.&.&.&.&.&.&.&.&.&.&.&.&.&.&.&.&.&.&.&.&.&.&.&.&.&.&.&.&.&.&.",
"&.&.&.&.&.&.&.&.&.&.&.&.&.&.&.&.&.&.&.&.&.&.&.&.&.&.&.&.&.&.&.&.&.&.&.&.&.&.&.&.&.&.&.&.&.&.&.&.&.&.&.&.&.&.&.&.&.&.&.&.",
"&.&.&.&.&.&.&.&.&.&.&.&.&.&.&.&.&.&.&.&.&.&.&.&.&.&.&.&.&.&.&.&.&.&.&.&.&.&.&.&.&.&.&.&.&.&.&.&.&.&.&.&.&.&.&.&.&.&.&.&.",
"&.&.&.&.&.&.&.&.&.&.&.&.&.&.&.&.&.&.&.&.&.&.&.&.&.&.&.&.&.&.&.&.&.&.&.&.&.&.&.&.&.&.&.&.&.&.&.&.&.&.&.&.&.&.&.&.&.&.&.&.",
"&.&.&.&.&.&.&.&.&.&.&.&.&.&.&.&.&.&.&.&.&.&.&.&.&.&.&.&.&.&.&.&.&.&.&.&.&.&.&.&.&.&.&.&.&.&.&.&.&.&.&.&.&.&.&.&.&.&.&.&.",
"&.&.&.&.&.&.&.&.&.&.&.&.&.&.&.&.&.&.&.&.&.&.&.&.&.&.&.&.&.&.&.&.&.&.&.&.&.&.&.&.&.&.&.&.&.&.&.&.&.&.&.&.&.&.&.&.&.&.&.&.",
"&.&.&.&.&.&.&.&.&.& = = = = = = = = = = = = = = = = = = = = = = = = = % = = = = = = &.&.&.&.&.&.&.&.&.&.&.&.&.&.&.&.&.&.",
"&.&.&.&.&.&.&.&.&.* = = = = = = = = = = = = = = = = = = = = = = = , = = = = = = = * &.&.&.&.&.&.&.&.&.&.&.&.&.&.&.&.&.&.",
"&.&.&.&.&.&.&.= & e B V B N V N N V N B N V N N N V V N n z v v z z v z z z v 3 % = * * * &.&.&.&.&.&.&.&.&.&.&.&.&.&.&.",
"&.&.&.&.&.&.&.= + t K S C J K S K K S S Z Z Z Z C S S K B n n n n n n n n n m 3 * = % % $ &.&.&.&.&.&.&.&.&.&.&.&.&.&.&.",
"&.&.&.&.&.&.&.% + t Z C C V V V V V V V Z Z Z V C C V V M b n n n b n b n n n 3 $ = > y ; & & &.&.&.&.&.&.&.&.&.&.&.&.&.",
"&.&.&.&.&.&.&.= + t C C m b b n n b n b V Z C C C V b b b n b n n n b n b n n 3 # - E Q i % = &.&.&.&.&.&.&.&.&.&.&.&.&.",
"&.&.&.&.&.&.&.= + g K K m b b b b b b b V K K Z Z V b n x j j n m n j j x b n 3 $ - E Q i % % &.&.&.&.&.&.&.&.&.&.&.&.&.",
"&.&.&.&.&.&.&.= @ 4 t e n B N N N N N N h e t V S V b k ) .. .s 8 c  . ./ x m 3 + - E W i % % &.&.&.&.&.&.&.&.&.&.&.&.&.",
"&.&.&.&.&.&.&.% = @ O # b S Z C S Z Z J 7 o = V Z V n j X.%.%.a   d %.%.X.j m 3 + - E Q i % % &.&.&.&.&.&.&.&.&.&.&.&.&.",
"&.&.&.&.&.&.&.= = = @ @ b C C C C C Z Z 9 # = B Z V b j X.%.%.a X d %.%...j n 3 @ ; E Q i $ = &.&.&.&.&.&.&.&.&.&.&.&.&.",
"&.&.&.&.&.&.&.= + w m m V C C C Z Z C C N n M S Z V b j ..%.%.a X d %.%...j n 3 @ @ 2 y : % = &.&.&.&.&.&.&.&.&.&.&.&.&.",
"&.&.&.&.&.&.&.= O g K C C C C S C C C C Z S Z V S V b j X.%.%.a X d %.%...j n 3 @ = % % % = = &.&.&.&.&.&.&.&.&.&.&.&.&.",
"&.&.&.&.&.&.&.= + t Z C Z C S V C Z Z C C C Z C C V b j X.%.%.a X d %.%. .f z 5 : : = % = = = &.&.&.&.&.&.&.&.&.&.&.&.&.",
"&.&.&.&.&.&.&.= # t Z C Z C C C C C Z C C Z Z C Z V n j ..%.%.a X d %.%.( X % p W R @ % &.&.&.&.&.&.&.&.&.&.&.&.&.&.&.&.",
"&.&.&.&.&.&.&.@ # t Z Z C C Z Z Z C V S Z V C Z Z V n j X.%.%.a   d %.%.( . % p W E - % &.&.&.&.&.&.&.&.&.&.&.&.&.&.&.&.",
"&.&.&.&.&.&.&.= @ t C C C C C C C C C Z Z V Z V C V n x _ X.X.s 6 s X.X.G O % p Q E * = &.&.&.&.&.&.&.&.&.&.&.&.&.&.&.&.",
"&.&.&.&.&.&.&.= # t Z S C C Z C Z Z C Z Z Z Z Z Z V b b k j j n m n j l 0 % % T Q E @ = &.&.&.&.&.&.&.&.&.&.&.&.&.&.&.&.",
"&.&.&.&.&.&.&.= @ t K Z S Z J J Z Z Z Z Z Z Z Z Z V n n b n b b n x n n w $ $ T Q E = = &.&.&.&.&.&.&.&.&.&.&.&.&.&.&.&.",
"&.&.&.&.&.&.&.% % < 9 9 9 9 7 9 9 9 9 7 b Z Z M m m n b n b n n n n n M w $ % > u u = = &.&.&.&.&.&.&.&.&.&.&.&.&.&.&.&.",
"&.&.&.&.&.&.&.= % $ * $ $ + $ $ $ + $ o v Z Z b n n n n b n n b n n n n w * = % % % % % &.&.&.&.&.&.&.&.&.&.&.&.&.&.&.&.",
"&.&.&.&.&.&.&.= = = + = = * = = * % % * z Z V n n n n x n n n n n n n n e = = % % % % = &.&.&.&.&.&.&.&.&.&.&.&.&.&.&.&.",
"&.&.&.&.&.&.&.&.&.&.&.&.&.&.&.&.&.&.&.&.= , < B C C C C C C Z Z J V b n b z b 3 + = = = &.&.&.&.&.&.&.&.&.&.&.&.&.&.&.&.",
"&.&.&.&.&.&.&.&.&.&.&.&.&.&.&.&.&.&.&.&.$ + , B C B C B C V V B B V x x n n n 3 $ = = % &.&.&.&.&.&.&.&.&.&.&.&.&.&.&.&.",
"&.&.&.&.&.&.&.&.&.&.&.&.&.&.&.&.&.&.&.&.* = = U Y ^ Y Y Y Y Y Y Y U F F A x m 3 $ * &.&.&.&.&.&.&.&.&.&.&.&.&.&.&.&.&.&.",
"&.&.&.&.&.&.&.&.&.&.&.&.&.&.&.&.&.&.&.&.* % 2 @.$.$.$.$.$.$.$.$.$.$.[ o.~ x m 3 % * &.&.&.&.&.&.&.&.&.&.&.&.&.&.&.&.&.&.",
"&.&.&.&.&.&.&.&.&.&.&.&.&.&.&.&.&.&.&.&.* $ 2 +.$.$.$.$.#.$.$.$.$.#.] [ ~ x m 3 $ = &.&.&.&.&.&.&.&.&.&.&.&.&.&.&.&.&.&.",
"&.&.&.&.&.&.&.&.&.&.&.&.&.&.&.&.&.&.&.&.* = 2 +.$.$.$.$.$.$.$.#.$.#.] [ ~ x n 3 * % * & * * * &.&.&.&.&.&.&.&.&.&.&.&.&.",
"&.&.&.&.&.&.&.&.&.&.&.&.&.&.&.&.&.&.&.&.* % 1 +.$.$.$.$.$.$.$.$.$.#.] [ ! x n 3 * = = = * = = &.&.&.&.&.&.&.&.&.&.&.&.&.",
"&.&.&.&.&.&.&.&.&.&.&.&.&.&.&.&.&.&.&.&.* @ 2 +.$.$.$.$.$.$.$.$.$.#.[ [ ! x m 3 = = = = = = = &.&.&.&.&.&.&.&.&.&.&.&.&.",
"&.&.&.&.&.&.&.&.&.&.&.&.&.&.&.&.&.&.&.&.& % 2 +.$.$.$.$.$.$.$.$.$.#.] [ ! x b m M M N B h + % &.&.&.&.&.&.&.&.&.&.&.&.&.",
"&.&.&.&.&.&.&.&.&.&.&.&.&.&.&.&.&.&.&.&.* + 2 @.$.$.$.$.$.$.$.$.$.#.] [ ~ x b C S S K K v + = &.&.&.&.&.&.&.&.&.&.&.&.&.",
"&.&.&.&.&.&.&.&.&.&.&.&.&.&.&.&.&.&.&.&.* = 2 { | O.#.#.@.@.#.O.| } ` ` H b b V C B n m g @ = &.&.&.&.&.&.&.&.&.&.&.&.&.",
"&.&.&.&.&.&.&.&.&.&.&.&.&.&.&.&.&.&.&.&.* % , B C P ] ] ' ] ] F C V x n b n b b n v = = = = = &.&.&.&.&.&.&.&.&.&.&.&.&.",
"&.&.&.&.&.&.&.&.&.&.&.&.&.&.&.&.&.&.&.&.* = , V C P [ [ [ [ [ K C C b b b n b m m v = = = = = &.&.&.&.&.&.&.&.&.&.&.&.&.",
"&.&.&.&.&.&.&.&.&.&.&.&.&.&.&.&.&.&.&.&.& % , B S K ^ ^ ^ ^ ^ K C C N N m b n t w q = = &.&.&.&.&.&.&.&.&.&.&.&.&.&.&.&.",
"&.&.&.&.&.&.&.&.&.&.&.&.&.&.&.&.&.&.&.&.* = , B Z C V B C B C C C C C C N b n 3 O + % = &.&.&.&.&.&.&.&.&.&.&.&.&.&.&.&.",
"&.&.&.&.&.&.&.&.&.&.&.&.&.&.&.&.&.&.&.&.* = , V Z Z C J C J J J Z Z C Z N b n 3 $ = = = &.&.&.&.&.&.&.&.&.&.&.&.&.&.&.&.",
"&.&.&.&.&.&.&.&.&.&.&.&.&.&.&.&.&.&.&.&.* * , V Z C M m r 3 4 4 3 q C Z V b n 3 $ = &.&.&.&.&.&.&.&.&.&.&.&.&.&.&.&.&.&.",
"&.&.&.&.&.&.&.&.&.&.&.&.&.&.&.&.&.&.&.&.* % , V Z B n M 9 O + * + 3 J Z B b n 3 * = &.&.&.&.&.&.&.&.&.&.&.&.&.&.&.&.&.&.",
"&.&.&.&.&.&.&.&.&.&.&.&.&.&.&.&.&.&.&.&.* = = m V m v b 9 $ % = % < V B n v b 3 * * &.&.&.&.&.&.&.&.&.&.&.&.&.&.&.&.&.&.",
"&.&.&.&.&.&.&.&.&.&.&.&.&.&.&.&.&.&.&.&.&.&.&.= = = = = = = = &.&.&.= = = = = = = * &.&.&.&.&.&.&.&.&.&.&.&.&.&.&.&.&.&.",
"&.&.&.&.&.&.&.&.&.&.&.&.&.&.&.&.&.&.&.&.&.&.&.= = = = * = % = &.&.&.= * = = = = = = &.&.&.&.&.&.&.&.&.&.&.&.&.&.&.&.&.&.",
"&.&.&.&.&.&.&.&.&.&.&.&.&.&.&.&.&.&.&.&.&.&.&.* & * * * & * & &.&.&.* * & * & * * * &.&.&.&.&.&.&.&.&.&.&.&.&.&.&.&.&.&.",
"&.&.&.&.&.&.&.&.&.&.&.&.&.&.&.&.&.&.&.&.&.&.&.&.&.&.&.&.&.&.&.&.&.&.&.&.&.&.&.&.&.&.&.&.&.&.&.&.&.&.&.&.&.&.&.&.&.&.&.&.",
"&.&.&.&.&.&.&.&.&.&.&.&.&.&.&.&.&.&.&.&.&.&.&.&.&.&.&.&.&.&.&.&.&.&.&.&.&.&.&.&.&.&.&.&.&.&.&.&.&.&.&.&.&.&.&.&.&.&.&.&.",
"&.&.&.&.&.&.&.&.&.&.&.&.&.&.&.&.&.&.&.&.&.&.&.&.&.&.&.&.&.&.&.&.&.&.&.&.&.&.&.&.&.&.&.&.&.&.&.&.&.&.&.&.&.&.&.&.&.&.&.&.",
"&.&.&.&.&.&.&.&.&.&.&.&.&.&.&.&.&.&.&.&.&.&.&.&.&.&.&.&.&.&.&.&.&.&.&.&.&.&.&.&.&.&.&.&.&.&.&.&.&.&.&.&.&.&.&.&.&.&.&.&.",
"&.&.&.&.&.&.&.&.&.&.&.&.&.&.&.&.&.&.&.&.&.&.&.&.&.&.&.&.&.&.&.&.&.&.&.&.&.&.&.&.&.&.&.&.&.&.&.&.&.&.&.&.&.&.&.&.&.&.&.&.",
"&.&.&.&.&.&.&.&.&.&.&.&.&.&.&.&.&.&.&.&.&.&.&.&.&.&.&.&.&.&.&.&.&.&.&.&.&.&.&.&.&.&.&.&.&.&.&.&.&.&.&.&.&.&.&.&.&.&.&.&.",
"&.&.&.&.&.&.&.&.&.&.&.&.&.&.&.&.&.&.&.&.&.&.&.&.&.&.&.&.&.&.&.&.&.&.&.&.&.&.&.&.&.&.&.&.&.&.&.&.&.&.&.&.&.&.&.&.&.&.&.&.",
"&.&.&.&.&.&.&.&.&.&.&.&.&.&.&.&.&.&.&.&.&.&.&.&.&.&.&.&.&.&.&.&.&.&.&.&.&.&.&.&.&.&.&.&.&.&.&.&.&.&.&.&.&.&.&.&.&.&.&.&."
};
