/* XPM */
static char *result[] = {
/* columns rows colors chars-per-pixel */
"60 60 110 2 ",
"   c #270E0F",
".  c #2C1212",
"X  c #281618",
"o  c #271C1B",
"O  c #2D1D1E",
"+  c #301F1E",
"@  c #351E20",
"#  c #381F21",
"$  c #2D2626",
"%  c #292828",
"&  c #342223",
"*  c #382021",
"=  c #3A2E21",
"-  c #3A3021",
";  c #43191A",
":  c #432324",
">  c #4A2627",
",  c #422728",
"<  c #4C2728",
"1  c #432929",
"2  c #492E2B",
"3  c #522629",
"4  c #542A2B",
"5  c #5A2B2C",
"6  c #523B34",
"7  c #612E2E",
"8  c #662F30",
"9  c #643031",
"0  c #6D3233",
"q  c #683F39",
"w  c #743435",
"e  c #763639",
"r  c #7C3639",
"t  c #7F393A",
"y  c #3E4C22",
"u  c #405E24",
"i  c #69433C",
"p  c #416224",
"a  c #426A25",
"s  c #447525",
"d  c #497026",
"f  c #467B25",
"g  c #5D4C4D",
"h  c #674B4C",
"j  c #705647",
"k  c #645455",
"l  c #6D5252",
"z  c #833A3B",
"x  c #8E3D3E",
"c  c #9B373A",
"v  c #903E3F",
"b  c #9C383B",
"n  c #91403F",
"m  c #933E41",
"M  c #9D3C41",
"N  c #954142",
"B  c #9F4345",
"V  c #944649",
"C  c #A24346",
"Z  c #A54548",
"A  c #A94649",
"S  c #A54C4C",
"D  c #AC4849",
"F  c #B44A4C",
"G  c #BC4E4F",
"H  c #BE4F50",
"J  c #A95551",
"K  c #BA5653",
"L  c #BC5F58",
"P  c #AD5E61",
"I  c #AD6063",
"U  c #B67376",
"Y  c #C14F51",
"T  c #C25051",
"R  c #C05855",
"E  c #C4645D",
"W  c #C46D61",
"Q  c #CD7E6D",
"!  c #468125",
"~  c #478825",
"^  c #488A26",
"/  c #499326",
"(  c #4B9D26",
")  c #4CA226",
"_  c #BF856E",
"`  c #BB9C7B",
"'  c #C08770",
"]  c #C08870",
"[  c #C59F7F",
"{  c #A89A9B",
"}  c #B0AAAA",
"|  c #B8ABAB",
" . c #D3A685",
".. c #D6B38D",
"X. c #D8B78F",
"o. c #DBBB92",
"O. c #D2ABAC",
"+. c #D6B2B4",
"@. c #DABABB",
"#. c #EEC59B",
"$. c #F3CA9F",
"%. c #F3CDA0",
"&. c #FBCFA3",
"*. c #FAD3A5",
"=. c #FED7A8",
"-. c #FFD8A8",
";. c #F2E7E8",
":. c #F3E9E9",
">. c #FFFFFF",
",. c None",
/* pixels */
",.,.,.,.,.,.,.,.,.,.,.,.,.,.,.,.,.,.,.,.,.,.,.,.,.,.,.,.,.,.,.,.,.,.,.,.,.,.,.,.,.,.,.,.,.,.,.,.,.,.,.,.,.,.,.,.,.,.,.,.",
",.,.,.,.,.,.,.,.,.,.,.,.,.,.,.,.,.,.,.,.,.,.,.,.,.,.,.,.,.,.,.,.,.,.,.,.,.,.,.,.,.,.,.,.,.,.,.,.,.,.,.,.,.,.,.,.,.,.,.,.",
",.,.,.,.,.,.,.,.,.,.,.,.,.,.,.,.,.,.,.,.,.,.,.,.,.,.,.,.,.,.,.,.,.,.,.,.,.,.,.,.,.,.,.,.,.,.,.,.,.,.,.,.,.,.,.,.,.,.,.,.",
",.,.,.,.,.,.,.,.,.,.,.,.,.,.,.,.,.,.,.,.,.,.,.,.,.,.,.,.,.,.,.,.,.,.,.,.,.,.,.,.,.,.,.,.,.,.,.,.,.,.,.,.,.,.,.,.,.,.,.,.",
",.,.,.,.,.,.,.,.,.,.,.,.,.,.,.,.,.,.,.,.,.,.,.,.,.,.,.,.,.,.,.,.,.,.,.,.,.,.,.,.,.,.,.,.,.,.,.,.,.,.,.,.,.,.,.,.,.,.,.,.",
",.,.,.,.,.,.,.,.,.,.,.,.,.,.,.,.,.,.,.,.,.,.,.,.,.,.,.,.,.,.,.,.,.,.,.,.,.,.,.,.,.,.,.,.,.,.,.,.,.,.,.,.,.,.,.,.,.,.,.,.",
",.,.,.,.,.,.,.,.,.,.* * * * * * * * * # * * * # * * * * * + * * # # + + * * @ * * * ,.,.,.,.,.,.,.,.,.,.,.,.,.,.,.,.,.,.",
",.,.,.,.,.,.,.,.,.,.+ + + + + + + + + + + + + + + + + O @ & @ @ # + # $ @ @ @ @ * * ,.,.,.,.,.,.,.,.,.,.,.,.,.,.,.,.,.,.",
",.,.,.,.,.,.,.& $ 9 n x x n x x v x x x n x x n x x x m z e r r r r r z r r z > & * & & $ ,.,.,.,.,.,.,.,.,.,.,.,.,.,.,.",
",.,.,.,.,.,.,.* O z T Y Y Y Y Y T Y T Y Y Y Y Y Y T Y Y F C C C C C C C C C A 4 # * * * & ,.,.,.,.,.,.,.,.,.,.,.,.,.,.,.",
",.,.,.,.,.,.,.# + t G G G G G G G G G G G G G G H H G G A B C C B C C C C C C 4 @ & & & & ,.,.,.,.,.,.,.,.,.,.,.,.,.,.,.",
",.,.,.,.,.,.,.* + z G H A C C Z Z C Z C F G G G G F C Z C C C C C B C C C C C 3 @ = ^ / a # * ,.,.,.,.,.,.,.,.,.,.,.,.,.",
",.,.,.,.,.,.,.* + t Y G A B C B B B C B F Y G G G F B B M b M Z C C M M M C C 4 @ = / ) s @ # ,.,.,.,.,.,.,.,.,.,.,.,.,.",
",.,.,.,.,.,.,.* + w Z Z Z Z Z A Z Z Z Z Z C Z G G F B B I U U V z V U U P B Z 4 @ = / ( d @ # ,.,.,.,.,.,.,.,.,.,.,.,.,.",
",.,.,.,.,.,.,.* * * + + B G G G G G G Y 7 O : F H F B c @.>.>.g . k >.>.+.b C 4 @ = ( ( s # * ,.,.,.,.,.,.,.,.,.,.,.,.,.",
",.,.,.,.,.,.,.* * @ O O B G G G G G G G 7 o * F Y F B c @.>.>.g . k >.>.+.c C 4 @ - ( ) s # * ,.,.,.,.,.,.,.,.,.,.,.,.,.",
",.,.,.,.,.,.,.# + 7 z z D G G G G G G Y m z z G G F B c @.>.>.g . k >.>.+.c C 4 @ * p p y # # ,.,.,.,.,.,.,.,.,.,.,.,.,.",
",.,.,.,.,.,.,.* + z Y Y H G G H G G G G G K Y Y G F B c @.>.>.g . k >.>.+.c Z 4 @ * # @ # * # ,.,.,.,.,.,.,.,.,.,.,.,.,.",
",.,.,.,.,.,.,.* + z G G G G G G G G G G G G G G G F C c +.>.>.g . k >.>.+.c Z 3 @ # # # * * * ,.,.,.,.,.,.,.,.,.,.,.,.,.",
",.,.,.,.,.,.,.* + z K H G G G G G G G G G H G G G F C c @.>.>.g . k >.>.| ; 3 d ~ f * # & ,.,.,.,.,.,.,.,.,.,.,.,.,.,.,.",
",.,.,.,.,.,.,.* O t G G G G G G G G G G G G G G K F B b @.>.>.g . l >.>.}   @ ! ) / = # & ,.,.,.,.,.,.,.,.,.,.,.,.,.,.,.",
",.,.,.,.,.,.,.* + z G G G G G G G G G G G H G G H F B b O.:.;.h + l ;.;.{ . @ ! ) ^ * * & ,.,.,.,.,.,.,.,.,.,.,.,.,.,.,.",
",.,.,.,.,.,.,.# + z G K G G G G G G G G G G G H H F B B C C C B B B Z Z e @ # f ( / = # & ,.,.,.,.,.,.,.,.,.,.,.,.,.,.,.",
",.,.,.,.,.,.,.+ + z Y Y Y Y T G T Y T T G G G G Y F B C B C B C C B B C w @ # ! ) / * # & ,.,.,.,.,.,.,.,.,.,.,.,.,.,.,.",
",.,.,.,.,.,.,.* * 8 m x x x x x x x x x D G G F F A B C B C B C C B C Z w @ # u a a & # & ,.,.,.,.,.,.,.,.,.,.,.,.,.,.,.",
",.,.,.,.,.,.,.* * @ o & + o O & + + O o N H G C B C B C C B C B B B B Z w @ # # # # * * & ,.,.,.,.,.,.,.,.,.,.,.,.,.,.,.",
",.,.,.,.,.,.,.* * * * * * * * * * * * @ B T H C B C B B C B B B B B C C w o @ * # # * * & ,.,.,.,.,.,.,.,.,.,.,.,.,.,.,.",
",.,.,.,.,.,.,.& $ $ $ $ $ $ $ $ $ $ $ $ 5 7 0 D F F F F F F F F F F C C m z z < @ # * & & ,.,.,.,.,.,.,.,.,.,.,.,.,.,.,.",
",.,.,.,.,.,.,.,.,.,.,.,.,.,.,.,.,.,.,.,.$ O * F H H H H H H H H G G M B C C Z 4 @ * * * & ,.,.,.,.,.,.,.,.,.,.,.,.,.,.,.",
",.,.,.,.,.,.,.,.,.,.,.,.,.,.,.,.,.,.,.,.& # , K R R K R K R R K R K S S C C Z 4 @ * * * & ,.,.,.,.,.,.,.,.,.,.,.,.,.,.,.",
",.,.,.,.,.,.,.,.,.,.,.,.,.,.,.,.,.,.,.,.& # 2 #.&.&.*.&.&.&.&.&.&.%...X._ M C 4 & * ,.,.,.,.,.,.,.,.,.,.,.,.,.,.,.,.,.,.",
",.,.,.,.,.,.,.,.,.,.,.,.,.,.,.,.,.,.,.,.& # 2 %.=.=.-.=.=.=.=.=.=.*.X.o.] M Z 4 + * ,.,.,.,.,.,.,.,.,.,.,.,.,.,.,.,.,.,.",
",.,.,.,.,.,.,.,.,.,.,.,.,.,.,.,.,.,.,.,.& * 2 %.-.-.-.-.=.=.=.-.-.*.X.o.] M C 4 * * ,.,.,.,.,.,.,.,.,.,.,.,.,.,.,.,.,.,.",
",.,.,.,.,.,.,.,.,.,.,.,.,.,.,.,.,.,.,.,.& @ 2 %.-.-.-.-.=.=.=.=.-.*.X.o.] M C 4 & * * * * * * ,.,.,.,.,.,.,.,.,.,.,.,.,.",
",.,.,.,.,.,.,.,.,.,.,.,.,.,.,.,.,.,.,.,.& * 2 %.-.-.-.-.=.-.-.-.-.%.X.o.] M C < o O + + @ * * ,.,.,.,.,.,.,.,.,.,.,.,.,.",
",.,.,.,.,.,.,.,.,.,.,.,.,.,.,.,.,.,.,.,.& @ 2 %.-.-.-.-.-.-.-.-.-.*.X.o.] M C n x x x x w @ * ,.,.,.,.,.,.,.,.,.,.,.,.,.",
",.,.,.,.,.,.,.,.,.,.,.,.,.,.,.,.,.,.,.,.& & 2 $.-.-.-.-.-.-.-.-.-.*.X.o._ M B G T T T T N + * ,.,.,.,.,.,.,.,.,.,.,.,.,.",
",.,.,.,.,.,.,.,.,.,.,.,.,.,.,.,.,.,.,.,.& & 2 $.-.=.-.-.=.=.=.*.-.%...o._ M C F G G G G n + * ,.,.,.,.,.,.,.,.,.,.,.,.,.",
",.,.,.,.,.,.,.,.,.,.,.,.,.,.,.,.,.,.,.,.& & : L E ' #.o.o.o.o.j i i J J S C B C Z B 3 < : # * ,.,.,.,.,.,.,.,.,.,.,.,.,.",
",.,.,.,.,.,.,.,.,.,.,.,.,.,.,.,.,.,.,.,.* + : F F E X.X.X.o.o.6 X * n C B C B C C N * * * * * ,.,.,.,.,.,.,.,.,.,.,.,.,.",
",.,.,.,.,.,.,.,.,.,.,.,.,.,.,.,.,.,.,.,.& @ : F G E  . .[ ` ` q 3 8 Z Z C C B m x z * * * & * ,.,.,.,.,.,.,.,.,.,.,.,.,.",
",.,.,.,.,.,.,.,.,.,.,.,.,.,.,.,.,.,.,.,.& * * F G G Y T w O @ D Y G G H F B C 4 @ # # * & ,.,.,.,.,.,.,.,.,.,.,.,.,.,.,.",
",.,.,.,.,.,.,.,.,.,.,.,.,.,.,.,.,.,.,.,.& + > G T Y T T w + * D Y G H H F C Z 5 + * * * & ,.,.,.,.,.,.,.,.,.,.,.,.,.,.,.",
",.,.,.,.,.,.,.,.,.,.,.,.,.,.,.,.,.,.,.,.$ $ & z z z z z 5 + @ D H G D F m 0 w 1 ,.,.,.,.,.,.,.,.,.,.,.,.,.,.,.,.,.,.,.,.",
",.,.,.,.,.,.,.,.,.,.,.,.,.,.,.,.,.,.,.,.,.,.,.+ + + + + @ * * D H G B C w o @ % ,.,.,.,.,.,.,.,.,.,.,.,.,.,.,.,.,.,.,.,.",
",.,.,.,.,.,.,.,.,.,.,.,.,.,.,.,.,.,.,.,.,.,.,.* * * # # * * * D Y F C Z w @ & $ ,.,.,.,.,.,.,.,.,.,.,.,.,.,.,.,.,.,.,.,.",
",.,.,.,.,.,.,.,.,.,.,.,.,.,.,.,.,.,.,.,.,.,.,.,.,.,.,.,.,.* * 4 5 5 3 4 1 % % % ,.,.,.,.,.,.,.,.,.,.,.,.,.,.,.,.,.,.,.,.",
",.,.,.,.,.,.,.,.,.,.,.,.,.,.,.,.,.,.,.,.,.,.,.,.,.,.,.,.,.* * * * @ * @ & ,.,.,.,.,.,.,.,.,.,.,.,.,.,.,.,.,.,.,.,.,.,.,.",
",.,.,.,.,.,.,.,.,.,.,.,.,.,.,.,.,.,.,.,.,.,.,.,.,.,.,.,.,.,.,.,.,.,.,.,.,.,.,.,.,.,.,.,.,.,.,.,.,.,.,.,.,.,.,.,.,.,.,.,.",
",.,.,.,.,.,.,.,.,.,.,.,.,.,.,.,.,.,.,.,.,.,.,.,.,.,.,.,.,.,.,.,.,.,.,.,.,.,.,.,.,.,.,.,.,.,.,.,.,.,.,.,.,.,.,.,.,.,.,.,.",
",.,.,.,.,.,.,.,.,.,.,.,.,.,.,.,.,.,.,.,.,.,.,.,.,.,.,.,.,.,.,.,.,.,.,.,.,.,.,.,.,.,.,.,.,.,.,.,.,.,.,.,.,.,.,.,.,.,.,.,.",
",.,.,.,.,.,.,.,.,.,.,.,.,.,.,.,.,.,.,.,.,.,.,.,.,.,.,.,.,.,.,.,.,.,.,.,.,.,.,.,.,.,.,.,.,.,.,.,.,.,.,.,.,.,.,.,.,.,.,.,.",
",.,.,.,.,.,.,.,.,.,.,.,.,.,.,.,.,.,.,.,.,.,.,.,.,.,.,.,.,.,.,.,.,.,.,.,.,.,.,.,.,.,.,.,.,.,.,.,.,.,.,.,.,.,.,.,.,.,.,.,.",
",.,.,.,.,.,.,.,.,.,.,.,.,.,.,.,.,.,.,.,.,.,.,.,.,.,.,.,.,.,.,.,.,.,.,.,.,.,.,.,.,.,.,.,.,.,.,.,.,.,.,.,.,.,.,.,.,.,.,.,.",
",.,.,.,.,.,.,.,.,.,.,.,.,.,.,.,.,.,.,.,.,.,.,.,.,.,.,.,.,.,.,.,.,.,.,.,.,.,.,.,.,.,.,.,.,.,.,.,.,.,.,.,.,.,.,.,.,.,.,.,.",
",.,.,.,.,.,.,.,.,.,.,.,.,.,.,.,.,.,.,.,.,.,.,.,.,.,.,.,.,.,.,.,.,.,.,.,.,.,.,.,.,.,.,.,.,.,.,.,.,.,.,.,.,.,.,.,.,.,.,.,.",
",.,.,.,.,.,.,.,.,.,.,.,.,.,.,.,.,.,.,.,.,.,.,.,.,.,.,.,.,.,.,.,.,.,.,.,.,.,.,.,.,.,.,.,.,.,.,.,.,.,.,.,.,.,.,.,.,.,.,.,.",
",.,.,.,.,.,.,.,.,.,.,.,.,.,.,.,.,.,.,.,.,.,.,.,.,.,.,.,.,.,.,.,.,.,.,.,.,.,.,.,.,.,.,.,.,.,.,.,.,.,.,.,.,.,.,.,.,.,.,.,.",
",.,.,.,.,.,.,.,.,.,.,.,.,.,.,.,.,.,.,.,.,.,.,.,.,.,.,.,.,.,.,.,.,.,.,.,.,.,.,.,.,.,.,.,.,.,.,.,.,.,.,.,.,.,.,.,.,.,.,.,.",
",.,.,.,.,.,.,.,.,.,.,.,.,.,.,.,.,.,.,.,.,.,.,.,.,.,.,.,.,.,.,.,.,.,.,.,.,.,.,.,.,.,.,.,.,.,.,.,.,.,.,.,.,.,.,.,.,.,.,.,."
};
