/* XPM */
static char *cd87620122014fcccde720a3cd704c4c4ivRDbqxPKhRI1x7[] = {
/* columns rows colors chars-per-pixel */
"60 60 135 2 ",
"   c None",
".  c #1B2227",
"X  c #11232D",
"o  c #1D272C",
"O  c #1E292E",
"+  c #1F2C33",
"@  c #173134",
"#  c #1C3135",
"$  c #17303E",
"%  c #1F3039",
"&  c #262B2D",
"*  c #282929",
"=  c #232D33",
"-  c #252F3B",
";  c #213037",
":  c #21303A",
">  c #28343A",
",  c #2D2E41",
"<  c #382C46",
"1  c #3A2C49",
"2  c #243641",
"3  c #253843",
"4  c #2A3A44",
"5  c #263B49",
"6  c #462C52",
"7  c #512B5A",
"8  c #443B5E",
"9  c #5D2A63",
"0  c #622966",
"q  c #6D276E",
"w  c #6A286C",
"e  c #722872",
"r  c #23414D",
"t  c #2A414F",
"y  c #2A4453",
"u  c #2B4759",
"i  c #2B4A5B",
"p  c #304B5A",
"a  c #2C4D61",
"s  c #2F5064",
"d  c #315266",
"f  c #31566D",
"g  c #31586E",
"h  c #345C73",
"j  c #36637C",
"k  c #396682",
"l  c #3A6A86",
"z  c #3C6E8B",
"x  c #3D718F",
"c  c #3E7291",
"v  c #3B779A",
"b  c #3E7B9E",
"n  c #3C7CA1",
"m  c #417696",
"M  c #417698",
"N  c #427B9D",
"B  c #437EA0",
"V  c #872680",
"C  c #8B2785",
"Z  c #92288A",
"A  c #9D2792",
"S  c #9E2892",
"D  c #A22896",
"F  c #64899D",
"G  c #778F9B",
"H  c #76909D",
"J  c #4581A5",
"K  c #4982A3",
"L  c #4685AA",
"P  c #4886AC",
"I  c #4988AF",
"U  c #5E8BA7",
"Y  c #5689A9",
"T  c #5B8CAA",
"R  c #4B8BB3",
"E  c #468FBD",
"W  c #4C8FB9",
"Q  c #4590BE",
"!  c #4F94BF",
"~  c #4E92BC",
"^  c #5F96B8",
"/  c #7E99A7",
"(  c #6297B7",
")  c #6D97B1",
"_  c #6F99B4",
"`  c #6D99B3",
"'  c #709AB5",
"]  c #729BB2",
"[  c #4792C0",
"{  c #4F95C0",
"}  c #4F94C0",
"|  c #4F96C1",
" . c #4D94C0",
".. c #5096C1",
"X. c #5097C2",
"o. c #5096C1",
"O. c #5199C5",
"+. c #959B97",
"@. c #A9A395",
"#. c #BFAD94",
"$. c #9CA6A5",
"%. c #88A5B3",
"&. c #8AA8B6",
"*. c #8BA9B8",
"=. c #ACB1B6",
"-. c #B1BABF",
";. c #D7B68F",
":. c #D9B68E",
">. c #DDB98E",
",. c #C2AD92",
"<. c #C9B79E",
"1. c #DBB890",
"2. c #E1BB8D",
"3. c #E5C39B",
"4. c #E9C69B",
"5. c #DCC7A9",
"6. c #DFCBAE",
"7. c #E5CCAA",
"8. c #F7D1A4",
"9. c #FBD4A5",
"0. c #FFDAA7",
"q. c #FFD8A8",
"w. c #BABEC0",
"e. c #BCBFC1",
"r. c #BFC2C4",
"t. c #C0C3C5",
"y. c #E5E7E9",
"u. c #E9EAEA",
"i. c #E5EDF1",
"p. c #ECF1F5",
"a. c #F8FAFB",
"s. c #FAFBFC",
"d. c #FAFCFD",
"f. c white",
"g. c #FDFDFE",
/* pixels */
"                                                                                                                        ",
"                                                                                                                        ",
"                                                                                                                        ",
"                                                                                                                        ",
"                                                                                                                        ",
"                          & & = & & & = & & & & & & & & & & & & & & & & & & & & & & & *                                 ",
"                          = : : ; : : ; ; ; : - : : % ; - % : : % % - % ; : - % ; - % *                                 ",
"                          & : ; + + + + + + + + - ; % + O + + + + O + + + + o = + + + *                                 ",
"                      = = = : % g j j j j j j j y + : z c c c c m z m m z m m z x x x y = =                             ",
"                      % - : : + z J J J J J J L a + % R X.| o.| o.o.~ ~ ~ ~ o.o.o.| | s + =                             ",
"                      - : : ; # z J N K K K N B s > 4 R ~ ~ ~ ~ ~ ~ ~ ~ ~ ~ ~ ~ ~ ~ ~ a = :                             ",
"                = ; < C Z 0 # + z n Y i.p.-.$ $ =.u.y.T B L ~ ~ ~ ~ ~ ~ ~ ~ ~ ~ ~ ~  .I I K 2 ; =                       ",
"                = % 1 A S w # + l J Y d.f.t.X X e.f.f.T b J ~ ~ ~ o.o.~ ~ ~ ~ ~ ~ ~ ~ o.| R 3 + =                       ",
"                ; # < A S w # + z n T a.f.r.X X w.f.d.T b J ~ ~ I B B W ~ ~ ~ ~ ~ ~ ~ L B M 2 % =                       ",
"                ; ; 1 A S w # + l J Y a.f.r.X X w.f.s.T n J ~ o.j o = K ~ ~ ~ ~ ~ ~ W a + + : ; =                       ",
"                ; # 1 D D q @ ; z n T a.f.t.X X w.f.s.T N L ~ o.h . o K ~ ~ ~ ~ ~ ~ ~ i o + ; ; =                       ",
"                - % , 9 0 6 % + l J T a.f.r.X X w.f.s.T N J ~ ! N k k R ~ ~ ~ ~ ~ ~ W m k j : ; =                       ",
"                = ; % # @ # ; + z n Y a.f.r.X X w.f.a.T b L ~ ~ ~ ! o.! ~ ~ ~ ~ ~ ~ ~ ~ | R 3 # =                       ",
"                ; % : ; : % % + l J T d.f.r.X X w.f.f.T b J ~ ~ ~ ~ ~ ~ ~ ~ ~ ~ ~ ~ ~ ~ ! I > ; =                       ",
"                      ; # 7 C V 8 r i ) ` U z l U ' _ K B L ~ ~ ~ ~ ~ ~ ~ ~ ~ ~ ~ ~ ~ ~ ~ R 3 # =                       ",
"                      ; @ 9 D S 6 O 2 v b n J J n b b B B L ~ ~ ~ ~ ~ ~ ~ ~ ~ ~ ~ ~ ~ ~ ~ I 3 % =                       ",
"                      ; @ 9 S A 6 @ 3 N N J N J B B B B B J ~ ~ ~ ~ ~ ~ ~ ~ ~ ~ ~ ~ ~ ! ~ I 3 ; =                       ",
"                      : # 9 S A 6 # 3 N J N J N N B B B B J ~ ~ ~ ~ ~ ~ ~ ~ ~ ~ ~ ~ ~ ! ~ I 4 % =                       ",
"                      ; # 9 D D 6 @ 3 N N J N J B B N B B L ~ ~ ~ ~ ~ ! o.o.o.| ! ! ! ! ! R > % =                       ",
"                      : % 6 e e < # > N J N N J B B N J N J I R W ~ ~ m z z z z z z c z z l : % =                       ",
"                      : ; # @ # ; # 5 N N J N N B B J N J N J N I ~ } y o + + + = + + + + + : : =                       ",
"                      ; ; : : : ; ; 3 J J J b J K B B N N J N N R } ~ y o = : : - % : : ; ; ; : =                       ",
"                                ; ; : i u g J J N B J R R R R R W W ~ B M z : : = & & * * = * & &                       ",
"                                = : ; % O i J N N J J W ! ~ ~ ! ~ ~ W | | R : : =                                       ",
"                                = % ; ; + a J J N N J W ~ ~ ~ ~ ~ ~ ~ ~ ~ I : ; =                                       ",
"                                      ; O a J N J N J W W ~ ~ ~ ~ ~ ~ ~ | P : : =                                       ",
"                                      ; # a J J b b b E Q E Q Q E E E E [ L : = =                                       ",
"                                      ; + a J n F G G &.%.&.&.&.&.&.&.&.&./ : : =                                       ",
"                                      ; + a J n @.2.>.q.0.q.q.q.0.0.0.0.q.4.: ; =                                       ",
"                                      & o i J n @.>.1.9.q.q.q.q.0.q.q.q.q.7.> : &                                       ",
"                          & = = = = > z z c B n @.>.1.9.q.q.q.q.q.q.q.q.q.3.: : =                                       ",
"                          & : : : = 5 ~ X.R n n @.>.1.9.q.q.q.q.q.q.q.q.q.3.: ; =                                       ",
"                          = : : : ; 5 W ~ R B n @.>.1.9.q.q.q.q.q.0.q.q.q.3.: % &                                       ",
"                          = : - v I L J J J B n @.>.1.9.q.q.q.q.q.9.q.q.q.3.: % =                                       ",
"                          = % + B O.! B B B B n @.>.1.q.q.q.q.q.q.q.q.q.q.4.> % =                                       ",
"                          & ; = z L J B B B B n +.,.,.5.7.7.8.8.8.8.8.7.6.<.: - &                                       ",
"                          = : : ; = 2 N B B B B B B n E Q ] :.;.;.;.;.` [ L : : =                                       ",
"                          = : - : ; 3 B J K B B B N B ~ Q ] >.>.>.>.>._  .I : : =                                       ",
"                          & = = = & : g h k B B L I L ~ ~ ( $.$.$.$.$.^ | L : ; &                                       ",
"                                      + O i J B R | ~ ~ ~ ~ [ E E [ E ~ ~ P : ; =                                       ",
"                                      ; + i J B I ! ~ ! } | ~ } ~ ~ ~ ~ o.P : - =                                       ",
"                                      - + a J B I ~ ~ s i u u u l P J E ~ P : : &                                       ",
"                                      % + a J J R ! ~ 3 + + + O h J B W o.R : : =                                       ",
"                                      ; + i M v J R L 5 = - : + g M v P I B ; ; =                                       ",
"                                      ; ; : : : 2 > : &     ; : : : 2 : > ;                                             ",
"                                      ; ; : ; : : ; : *     ; ; ; ; : : ; -                                             ",
"                                      = = = = = = = = *     = = = = = = = =                                             ",
"                                                                                                                        ",
"                                                                                                                        ",
"                                                                                                                        ",
"                                                                                                                        ",
"                                                                                                                        ",
"                                                                                                                        ",
"                                                                                                                        ",
"                                                                                                                        "
};
