/* XPM */
static char *d9dffa8969ce4fa9d652c3e819288745cMEOr4GtC1TNdQT3[] = {
/* columns rows colors chars-per-pixel */
"60 60 125 2 ",
"   c None",
".  c #1D2306",
"X  c #222710",
"o  c #262D12",
"O  c #25271B",
"+  c #272A1C",
"@  c #2A2D1E",
"#  c #25331E",
"$  c #2B311D",
"%  c #2A2B25",
"&  c #282828",
"*  c #263220",
"=  c #2D3221",
"-  c #2C3821",
";  c #313621",
":  c #323821",
">  c #3D3922",
",  c #7D3829",
"<  c #3D4425",
"1  c #404725",
"2  c #404826",
"3  c #434D29",
"4  c #4B5824",
"5  c #475129",
"6  c #4E5B2C",
"7  c #515C2C",
"8  c #7D492D",
"9  c #55622E",
"0  c #576630",
"q  c #596630",
"w  c #5C6B31",
"e  c #63742E",
"r  c #696E3F",
"t  c #637435",
"y  c #677836",
"u  c #697A36",
"i  c #4F5342",
"p  c #545749",
"a  c #565A49",
"s  c #5E6251",
"d  c #687247",
"f  c #78714D",
"g  c #646658",
"h  c #707B51",
"j  c #6C6F61",
"k  c #853A2A",
"l  c #8E3A2B",
"z  c #933B2C",
"x  c #9D3B2D",
"c  c #A43B2D",
"v  c #B33D31",
"b  c #BD3D31",
"n  c #C13E31",
"m  c #CB3F33",
"M  c #827556",
"N  c #72843B",
"B  c #768A3C",
"V  c #798E3D",
"C  c #7E933E",
"Z  c #7F9841",
"A  c #829B37",
"S  c #839D3B",
"D  c #86A038",
"F  c #809740",
"G  c #869E42",
"H  c #889F43",
"J  c #87A042",
"K  c #89A144",
"L  c #8FA946",
"P  c #8EA249",
"I  c #90A946",
"U  c #95A44F",
"Y  c #93AE48",
"T  c #98BB45",
"R  c #97B14A",
"E  c #99B54B",
"W  c #9FBB4D",
"Q  c #99A453",
"!  c #A0BD4E",
"~  c #A5BB54",
"^  c #99A575",
"/  c #A5A760",
"(  c #A7A860",
")  c #B4B668",
"_  c #A6B676",
"`  c #C1B877",
"'  c #C4B17E",
"]  c #C3B978",
"[  c #C9B87F",
"{  c #9FC04B",
"}  c #A2C04E",
"|  c #A5C250",
" . c #A8C752",
".. c #C1C66E",
"X. c #C3C670",
"o. c #C4CA72",
"O. c #888A80",
"+. c #91948A",
"@. c #C9B680",
"#. c #D6B58E",
"$. c #D8B78F",
"%. c #D9B790",
"&. c #DCB893",
"*. c #B5C38F",
"=. c #BBC797",
"-. c #BECA9D",
";. c #D5C087",
":. c #DCC48D",
">. c #C0CC9D",
",. c #E6C299",
"<. c #EAC69B",
"1. c #EDC89D",
"2. c #E8D093",
"3. c #E9D293",
"4. c #E9D697",
"5. c #CBD4B0",
"6. c #CFD7B5",
"7. c #D3DABC",
"8. c #FFD9A9",
"9. c #FFDEB0",
"0. c #D5DDC0",
"q. c #D8DFC3",
"w. c #D9E0C7",
"e. c #FDFDFD",
"r. c white",
/* pixels */
"                                                                                                                        ",
"                                                                                                                        ",
"                                                                                                                        ",
"                                                                                                                        ",
"                                                                                                                        ",
"                                          & % ; ; ; ; ; ; ; ; ; ; ; ; ; ; ; ; ; ; ; ; ; ; ; %                           ",
"                                          & - ; ; ; ; ; ; ; ; ; ; ; ; ; ; ; ; ; ; ; ; ; ; : %                           ",
"                                          % < < < < < 1 2 2 2 2 2 2 2 1 2 1 1 1 1 2 1 2 < 2 : & &                       ",
"                            : : : : : : : : C J G G G I W W E W E ! E ! E ! E ! W T E W ! E t ; :                       ",
"                            : : ; $ ; ; - ; C K K J H Y ~ W ! W ! ~ ! ! ! ! ~ ! ~ ~ ! W ! ! t $ :                       ",
"                            ; ; 1 7 7 9 7 9 F K J J H I E Y W W ! T ! ! Y Y Y E R R R E ! ~ t $ :                       ",
"                      ; : : : = 7 I L K K L K J J J J H H G E ! ~ T ! R H H H H G G G L W W t $ :                       ",
"                      = - - ; = 7 K J H A A J P K A A S H H E ! ! ! } E G J J J H H G I | | t $ :                       ",
"                  = = , x l > - 7 J S =.w.q.d 4 h w.w.*.S G E ~ R t q N E R E R R R E G q w 3 ; :                       ",
"                  : - c m n > = 7 K A 0.r.r.p X g r.r.6.A J E } Y ; O w } ! ! ! W ! ! Z $ = - : :                       ",
"                  : - x m b > - 7 K A 7.r.r.p o g r.r.5.C J E } Y < : t } ! ! W W W ~ F : > : ; :                       ",
"                  : - x m b > = 7 K A 7.e.e.p X g r.r.5.A G E ! E E R E W W W W W W W W R E w - :                       ",
"                  : - c m n > = 7 K A 7.e.e.i . s r.r.5.A G E ! ! W ! ! W ! ! W ! W W ! W | t = :                       ",
"                  : - k c x > $ 7 L A 7.e.e.^ j +.r.r.5.A G E ! W ! W W W W W W ! W W W W ! t @ :                       ",
"                  : : : - - : = 7 K A 7.e.e.e.r.r.r.r.5.A H E ! W W ! ! ! W ! W W W W ! W W t = :                       ",
"                  : : : : : - # 6 L D 0.r.r.r.r.r.r.r.7.A J E ! W W ! W W ! ! W W W W ! ! ! t $ :                       ",
"                  = = ; ; > k l 8 0 9 ^ >.-.-.-.-.-.-._ S J E ! ! W W W W W W W W ! W W W ! t = :                       ",
"                        : > n m c * + e D A A A A A S S J J E ! ! W W W ! W ! W W W W ! ! ! t = :                       ",
"                        : > b m x - = y L G H H K H J J J J E ! W W ! W ! W W W W ! W W ! ! t * :                       ",
"                        : > b m x - $ u K K G K H K K G K K K K I W W W W W W ! R 7 5 5 5 5 < ; :                       ",
"                        : > n m c - = u K H K G K G H K G G G K J E ! ! { ~ ! | R < = ; ; ; ; : :                       ",
"                        : > c v l $ $ u K K H K G K H K P K L J L W W E L L L L G > ; ; ; ; ; ; -                       ",
"                        : : : : : : ; u K K K H K G G Y ! W ! ! W W | C = : ; : :                                       ",
"                        : : : : : : - u I K K H J J G Y ! ! W W ! W ~ C O @ ; : :                                       ",
"                                  : ; 7 y t G H J J G Y ! W ! W W ! ! K t u 5 ; ;                                       ",
"                                  : : ; = ; Z J J P G Y ! ! W W ! ! W ~ |  .w - ;                                       ",
"                                  : : : ; : C J J G D I W T W W ! T T ! T { q = ;                                       ",
"                                  % % ; : : C K U ' ' ;.2.2.2.2.2.2.2.2.2.4.f $ $                                       ",
"                                      = : : C H Q &.$.1.8.8.8.8.8.8.8.8.8.9.M $ :                                       ",
"                                      : 2 1 Z G Q %.#.<.8.8.8.8.8.8.8.8.8.9.M o :                                       ",
"                            ; ; : : = B ~ E H G Q $.#.<.8.8.8.8.8.8.8.8.8.8.M $ :                                       ",
"                            : : ; = + V | ! K G Q $.#.<.8.8.8.8.8.8.8.8.8.8.M $ ;                                       ",
"                            ; ; 2 w q F E E J G Q %.#.<.8.8.8.8.8.8.8.8.8.8.M o ;                                       ",
"                            : = 0 | | Y H H J K Q %.$.<.8.8.8.8.8.8.8.8.8.8.M $ ;                                       ",
"                            ; = 0  .| Y H J J S Q &.%.1.8.8.8.8.8.8.8.8.8.8.M + ;                                       ",
"                            ; ; 2 t q B K K H J P ( / ) o.X.:.,.,.,.<.:...o.r $ :                                       ",
"                            : : ; = % t K K K H J G S I W T @.$.#.#.$.] T } w $ ;                                       ",
"                            ; : : : = u K G H H J J H Y ! W [ #.#.#.$.] W } w % ;                                       ",
"                                      : 1 < C K K W ! T W ! ~ ~ ~ ~ ~ ~ ! } w = ;                                       ",
"                                      = ; : C H P W W ~ ! ~ } } } W W W W | q = ;                                       ",
"                                      = : : C K L W W R H H K G K E E T W | q - ;                                       ",
"                                      = : : C H L W } N @ = - = < G H I ! } w $ ;                                       ",
"                                      ; : : Z L I }  .B @ : ; ; < J J R  . .w = :                                       ",
"                                      = : : q w w u u 6 % % ; : > w w t t u 3 % %                                       ",
"                                      = : : = = = = = %     ; : ; - = = @ $ %                                           ",
"                                      = : : : : : : : =     ; : ; : : : : : %                                           ",
"                                                                                                                        ",
"                                                                                                                        ",
"                                                                                                                        ",
"                                                                                                                        ",
"                                                                                                                        ",
"                                                                                                                        ",
"                                                                                                                        ",
"                                                                                                                        ",
"                                                                                                                        "
};
