/* XPM */
static char *d472c9407c964a39cd7fd87d4fbf7d68Yiy51FzT32zJevfk[] = {
/* columns rows colors chars-per-pixel */
"60 60 123 2 ",
"   c None",
".  c #260E0F",
"X  c #2A0F0F",
"o  c #2D1212",
"O  c #271C1B",
"+  c #2D1D1E",
"@  c #301E1E",
"#  c #33201E",
"$  c #2F1F20",
"%  c #351E20",
"&  c #381E21",
"*  c #2D2626",
"=  c #342223",
"-  c #392121",
";  c #3A2E21",
":  c #373523",
">  c #3A3322",
",  c #3C3E22",
"<  c #422324",
"1  c #4B2627",
"2  c #472D2B",
"3  c #482F2C",
"4  c #532A2B",
"5  c #5A2B2C",
"6  c #533729",
"7  c #602628",
"8  c #622E2E",
"9  c #682B2C",
"0  c #652F30",
"q  c #722E30",
"w  c #6E3233",
"e  c #743436",
"r  c #793637",
"t  c #7B3639",
"y  c #7F393A",
"u  c #3C4322",
"i  c #3E4C22",
"p  c #447525",
"a  c #467F25",
"s  c #5C4C4D",
"d  c #7C4A4B",
"f  c #635455",
"g  c #8D3335",
"h  c #813A3B",
"j  c #8A3C3D",
"k  c #9B373A",
"l  c #9D3C3F",
"z  c #A0393C",
"x  c #953F42",
"c  c #9D3D42",
"v  c #814C4E",
"b  c #964141",
"n  c #9E4245",
"m  c #A24346",
"M  c #A64548",
"N  c #AA4749",
"B  c #AE494A",
"V  c #B24649",
"C  c #B44B4C",
"Z  c #BC4D4E",
"A  c #BE4F50",
"S  c #AA5853",
"D  c #BF5252",
"F  c #BF5D58",
"G  c #B26A5E",
"H  c #9A7E7F",
"J  c #BA7968",
"K  c #C04F50",
"L  c #C35051",
"P  c #C0605A",
"I  c #C46E63",
"U  c #C77567",
"Y  c #CB776A",
"T  c #D07B6C",
"R  c #468125",
"E  c #498E26",
"W  c #499426",
"Q  c #4B9E26",
"!  c #4BA126",
"~  c #C08770",
"^  c #C18971",
"/  c #CB8972",
"(  c #BD8184",
")  c #B2ABAB",
"_  c #C08688",
"`  c #C38E8F",
"'  c #CEA483",
"]  c #D7B68F",
"[  c #D8B78F",
"{  c #DABC92",
"}  c #E6B590",
"|  c #EBB994",
" . c #F3BF98",
".. c #D4AFB0",
"X. c #D3AEB0",
"o. c #D1B1B2",
"O. c #D6B2B4",
"+. c #D7B2B4",
"@. c #D9B8B8",
"#. c #DAB9BA",
"$. c #DABBBC",
"%. c #DBBCBD",
"&. c #DDBCBE",
"*. c #DCBEBF",
"=. c #DCC095",
"-. c #DAC094",
";. c #F3C39B",
":. c #F2CDA0",
">. c #F4CFA2",
",. c #F5D1A3",
"<. c #F7D1A4",
"1. c #F8D2A4",
"2. c #FAD6A6",
"3. c #F9D5A5",
"4. c #FFD8A8",
"5. c #FFD8A9",
"6. c #FFD9A9",
"7. c #FFDCAB",
"8. c #FFDDAC",
"9. c #FFDEAC",
"0. c #FFD9AA",
"q. c #FDFDFD",
"w. c white",
/* pixels */
"                                                                                                                        ",
"                                                                                                                        ",
"                                                                                                                        ",
"                                                                                                                        ",
"                                                                                                                        ",
"                                                                                                                        ",
"                                                                                                                        ",
"                                                                                                                        ",
"                                                                                                                        ",
"                                    - - - - - - - - & - - - - - - - - - - - - - - - - - - - - & - - *                   ",
"                                    - - & - - - - - - - - - - - - - - - - - - - - - - - - - ; & - - =                   ",
"                              * - - & @ 4 n x x x x n x n x b m B C B N B B C C B C B C B C B B C B r $ -               ",
"                              % % % & % 4 M m m m m m m m m m B A A A A A A A A Z D Z K D A A A D A y @ -               ",
"                          * * > u u - % 4 m m n m c m m n n n N A C A A C A A A Z C Z C C Z C Z A Z h @ -               ",
"                          - & p ! W > % 4 M n m m n m n m n m m n n C Z A A D C n n n n n n n M A Z h + -               ",
"                          - % p ! W ; % 4 m m l k k m M m k k c n n C A Z D L C n n n n n n n M L L h @ -               ",
"                          & % p ! W > % 4 m c ( X.X.v 9 d X.X.( c n C A C h r j C B C B B B C m r t 5 % -               ",
"                          & & p ! W ; % 4 M k #.w.w.f . s w.w.*.k n C A C - O 8 D Z Z Z A A A n + + % - -               ",
"                          & & p ! W ; % 4 m k +.w.w.f o s w.w.#.k n C A C - # 0 A Z A Z Z Z A n # - % - %               ",
"                          - % > u , = % 4 M k +.w.w.f o s w.w.#.k n C A A m M N A Z Z A Z Z Z C m m e % -               ",
"                          - - % % % % & 4 m k +.w.w.f o s q.w.#.k n C A A A A A Z Z D Z Z Z Z Z D L y $ &               ",
"                          - - - & - > > 6 x g X.w.w.f o s q.w.#.k n C A Z A C A Z Z Z Z Z Z Z D Z A y @ -               ",
"                                & ; R Q a & X ) w.w.f o s w.w.#.k n C Z A Z Z Z Z Z D Z D Z Z Z Z A y @ =               ",
"                                & ; W Q a & X ) w.w.f . s w.w.%.k n C Z A Z A Z Z Z Z Z C D Z Z A A h + -               ",
"                                & - W ! a & O H #.$.d 7 d $.$.` c n C A A A A Z Z Z Z A A Z Z A Z A y @ #               ",
"                                & ; E ! a & % q z k m M m k k l n m C A Z A Z Z A A Z Z C Z A A A Z y @ -               ",
"                                & ; W ! R & % e M m n m n m m n n n V A Z A Z A D Z L A L A D A A L h $ -               ",
"                                % & u i , % $ e M n m n m m n m m m M N M A A n 8 0 0 0 0 0 8 8 0 0 1 - -               ",
"                                - - & & & & $ r m m m m n m m n m m c m n A L b + @ % % % % + % = % % - -               ",
"                                & - & % & < - r m m m m m m m m m m m m m B A b % = = - - - - - @ % - - -               ",
"                                - % & % 4 c c m m m Z Z Z Z A A Z Z Z Z C 1 - -                                         ",
"                                - - - % 4 m m c c c V V Z C C V Z C V Z C - - =                                         ",
"                                    - = 4 m n S G G Y T T T T T T T T T U < - =                                         ",
"                                    - % 4 m c ^ { { 2.8.7.0.7.7.7.7.7.8.,.3 % =                                         ",
"                                    - @ 4 M c ~ { [ 1.0.4.4.4.4.4.4.0.0.:.3 % =                                         ",
"                          * = = * = - % 4 m c ~ { [ 1.0.4.4.4.4.4.4.4.0.:.3 % =                                         ",
"                          - & - - - - = 4 m c ~ { [ 1.5.5.4.4.4.4.4.4.0.;.3 - *                                         ",
"                          - & - - - - - 5 m c ~ { [ 1.5.4.4.4.4.4.4.4.4.,.3 - =                                         ",
"                          - % j C N N N N n c ^ { { 1.0.4.4.4.4.4.4.4.0.:.3 # =                                         ",
"                          - $ b L L D A A n c ^ { { 2.0.0.5.5.5.4.0.0.7.,.3 % =                                         ",
"                          - @ h M m C Z B n c J ' ' |  . .<.<.<.<.2.;. .} 3 % =                                         ",
"                          - & - - - b m m n m n m m V Z L ] ] [ [ =.P C C < % =                                         ",
"                          - - - - - n m m n m m c n C Z P { [ [ { { I Z C < - *                                         ",
"                                % - w e h m n M B B Z Z F / / / / / F Z C < - =                                         ",
"                                - - @ + 4 M n B A A Z Z Z C Z Z C Z Z Z C < - =                                         ",
"                                - - - % 4 m n B A A A A A L K Z K Z Z K C < % =                                         ",
"                                    - % 4 m n C Z Z w 4 4 5 4 t N M C K C < - =                                         ",
"                                    - % 4 M m V K A 4 @ % = + 0 M m C K C < & *                                         ",
"                                    - # 1 n x m C C 4 = - % % 0 c x N B M - & =                                         ",
"                                    - - - - ; - - -       - & - - - - - ;                                               ",
"                                    - - = % & & = =       - - & - - - - =                                               ",
"                                    = * = = = = = =       = = * = = * = =                                               ",
"                                                                                                                        ",
"                                                                                                                        ",
"                                                                                                                        ",
"                                                                                                                        ",
"                                                                                                                        ",
"                                                                                                                        ",
"                                                                                                                        ",
"                                                                                                                        "
};
