/* XPM */
static char *a10ecd49fed84d5de7fd585779efc7e6aIB4cXTI5P474bmn[] = {
/* columns rows colors chars-per-pixel */
"60 60 147 2 ",
"   c None",
".  c #3F2E0F",
"X  c #332202",
"o  c #342C1B",
"O  c #3D321C",
"+  c #3E3522",
"@  c #443213",
"#  c #4A3713",
"$  c #4B3813",
"%  c #42351C",
"&  c #47391E",
"*  c #4A3B1F",
"=  c #533F1D",
"-  c #423621",
";  c #463921",
":  c #4E3E21",
">  c #493C28",
",  c #513F21",
"<  c #4F4021",
"1  c #534122",
"2  c #5C4926",
"3  c #474035",
"4  c #46413A",
"5  c #48433A",
"6  c #5E523C",
"7  c #624E28",
"8  c #624B24",
"9  c #645028",
"0  c #755927",
"q  c #785B27",
"w  c #735C2E",
"e  c #775F30",
"r  c #785F30",
"t  c #7C6231",
"y  c #3F4F6B",
"u  c #3D5172",
"i  c #4C4742",
"p  c #444345",
"a  c #434751",
"s  c #424955",
"d  c #424B59",
"f  c #665A46",
"g  c #6C624F",
"h  c #7B6A4E",
"j  c #746A58",
"k  c #404E65",
"l  c #7F7565",
"z  c #9C762E",
"x  c #9F792F",
"c  c #826733",
"v  c #876A35",
"b  c #8F7239",
"n  c #A27B2F",
"m  c #A67D30",
"M  c #A17F40",
"N  c #AA8032",
"B  c #BE8E34",
"V  c #B18533",
"C  c #C99638",
"Z  c #CC9B3F",
"A  c #C6953C",
"S  c #D69F3A",
"D  c #D39C31",
"F  c #D7A13C",
"G  c #D9A23B",
"H  c #E4A731",
"J  c #E6A935",
"K  c #E9AB34",
"L  c #E0A73D",
"P  c #E6AB3D",
"I  c #E9AE3E",
"U  c #ECB03F",
"Y  c #A58240",
"T  c #AF8A43",
"R  c #AC8642",
"E  c #BD954A",
"W  c #C59B4C",
"Q  c #CBA04E",
"!  c #D8A340",
"~  c #CDA250",
"^  c #CCA45F",
"/  c #D4A752",
"(  c #D6A853",
")  c #DCAD54",
"_  c #E6AC40",
"`  c #E9AF42",
"'  c #EBB143",
"]  c #E6B04B",
"[  c #EFB64D",
"{  c #F2B84F",
"}  c #E0AE58",
"|  c #E2AE54",
" . c #E3B256",
".. c #EEB750",
"X. c #E6B55B",
"o. c #E9B75A",
"O. c #EAB95B",
"+. c #F3BB51",
"@. c #F2BF5E",
"#. c #CDAA7A",
"$. c #DEB575",
"%. c #E9BF7A",
"&. c #F6C15C",
"*. c #FAC45C",
"=. c #FFC85F",
"-. c #FDC761",
";. c #FFC962",
":. c #F5C46B",
">. c #EDC076",
",. c #ECC178",
"<. c #FECC78",
"1. c #FFD07B",
"2. c #3265AE",
"3. c #3166B2",
"4. c #2577E3",
"5. c #237BEC",
"6. c #217CF2",
"7. c #9F988D",
"8. c #B1ABA1",
"9. c #B7B1A9",
"0. c #CDAD84",
"q. c #DAB582",
"w. c #D7B68F",
"e. c #D9B78E",
"r. c #DAB88D",
"t. c #D6B691",
"y. c #D6B893",
"u. c #DEBC94",
"i. c #E0BA85",
"p. c #F1D29E",
"a. c #FED49B",
"s. c #FFD99F",
"d. c #F7D1A4",
"f. c #F3D7AA",
"g. c #F4D9AE",
"h. c #FFD8A9",
"j. c #F8D2A3",
"k. c #F5DFBB",
"l. c #F7E0BB",
"z. c #E0DEDB",
"x. c #E8E6E4",
"c. c #E6E4E2",
"v. c #FBF3E6",
"b. c #FCF6ED",
"n. c #FDFDFC",
"m. c white",
"M. c #FEFEFE",
/* pixels */
"                                                                                                                        ",
"                                                                                                                        ",
"                                                                                                                        ",
"                                                                                                                        ",
"                                                                                                                        ",
"                                                                                                                        ",
"                                                                                                                        ",
"                                                                                                                        ",
"                                                                                                                        ",
"                                * * * * * * * ; * * ; * * * * * * * * * * * * * * * * * * : : O                         ",
"                                : * : : 1 : : : < : < : : < 1 < < < 1 : < < < : < < < < < < 1 ;                         ",
"                          ; ; * * 1 C F S S S S S S S S G o.O.O.o.O.o.o.O.o.O.O.O.O.O.O.O.O.O.W - ;                     ",
"                          $ $ ; * , F I I I I I I I I I ' ;.;.;.;.;.;.;.;.-.;.;.;.=.;.;.;.;.;./ & *                     ",
"                          d d 5 * , F I P P P P P P P P ' &.@.*.-.-.-.-.-.*.@.+.&.*.+.*.&.-.;./ & *                     ",
"                    * $ u 6.6.u # 1 F I P P P P P P P P P P P [ ;.-.-.-.=._ P P P P P _ ` *.;.( & *                     ",
"                    * # u 6.6.u # = F P P H H H H H H H H P P [ ;.;.;.;.;.P J P L P P P ` ;.;.) % *                     ",
"                    * $ u 6.6.u # 1 F P X.g.g.g.g.g.g.g.p._ P [ ;.;.E N R o.+.+.+.+.+.+...T Y b * *                     ",
"                    * $ u 6.5.u # 1 F K ,.m.m.m.m.m.m.m.b.P P [ ;.;.t o < &.;.-.-.;.-.-.&.2 o O * ;                     ",
"                    ; $ u 6.6.u # , F K ,.m.m.m.m.m.m.m.v.P P [ ;.;.t O 1 &.-.-.-.-.-.;.&.2 % & * *                     ",
"                    * * 3 s s 3 * , F K ,.m.m.9.g j x.m.v.P P [ ;.=.o.) } -.-.-.-.-.-.-.-.| | E & :                     ",
"                    * * * $ * $ $ , F K >.m.m.7.X . z.m.v._ P [ ;.-.;.;.;.-.-.-.-.-.-.-.-.;.;.( & *                     ",
"                    - ; ; * * 3 p i A D $.m.m.8.6 f c.m.v.P P [ ;.-.-.-.-.-.-.-.-.-.-.-.-.;.;./ & *                     ",
"                          * $ 2.5.4.5 # b n.n.n.n.n.m.m.v.P P [ ;.-.*.;.-.-.-.-.-.-.-.-.-.;.;./ & *                     ",
"                          * $ 2.6.4.4 @ l n.n.n.m.m.m.m.b.P P [ ;.-.;.-.-.-.-.-.-.-.-.-.-.-.;./ & *                     ",
"                          < $ 2.6.4.5 # h l.l.l.k.k.k.k.f._ L [ ;.-.-.-.-.-.-.-.-.-.-.;.-.-.;./ & *                     ",
"                          * $ 2.6.4.5 % 0 J H J H H H H K P P [ ;.-.-.-.-.-.;.;.-.-.-.;.-.-.;.( & *                     ",
"                          * $ 3.6.5.5 % 0 U P P P P P _ P P P [ ;.;.=.;.;.;.;.;.;.;.;.;.;.;.;.( & *                     ",
"                          * * a y y > % q P P P P P P P _ P P ` [ ' &.=.&.b c v v v v v v v v t & *                     ",
"                          * ; $ # $ * % q U P P P P P P P P _ P P L &.=.&.< O O % O % % % % % % * ;                     ",
"                          * ; * % * * & 0 G G P P P P P P _ ` _ ` ` &.=.&.9 2 1 < * * ; * & ; * * *                     ",
"                                    ; * * 2 ; N U P P P ` -.*.-.-.*.-.;.:.&.*.W % *                                     ",
"                                    ; * ; * % m U P P P ' -.*.=.*.-.*.*.*.*.;.Q % :                                     ",
"                                    + - - ; % m ' I | } X.<.<.<.<.<.<.<.<.<.1.^ % <                                     ",
"                                          * - m I P q.y.u.h.h.h.h.h.h.h.h.h.h.0.% ;                                     ",
"                                          * % m U P q.t.u.h.h.h.h.h.h.h.h.h.h.0.O *                                     ",
"                                          * % m U P q.t.r.h.h.h.h.h.h.h.h.h.l.0.@ *                                     ",
"                                * * * * ; * O m U P q.t.u.h.h.h.h.h.h.h.h.h.h.0.O *                                     ",
"                                * ; < : : : ; m ' P q.t.u.h.h.h.h.h.h.h.h.h.h.0.@ :                                     ",
"                                * 1 ) O.o.o.o.] P P $.y.u.h.h.h.h.h.h.h.j.h.h.0.O :                                     ",
"                                * 1 &.;.;.;.;.{ P P q.y.u.h.h.h.h.h.j.h.h.h.h.0.O *                                     ",
"                                * 1 / |  .*.*.[ L L $.$.i.a.a.a.d.d.d.p.d.s.s.#.O *                                     ",
"                                : * % % 0 I P P P _ _ P I =.=.%.y.w.t.t.w.;.;.Q % *                                     ",
"                                * * ; % 0 ' U I P P P P U *.=.%.t.t.y.y.w.-.;.~ % *                                     ",
"                                    * * 8 m n C P _ [ { +.;.-.:.%.%.%.,.,.-.;.Q % *                                     ",
"                                    ; * ; % o m ' P =.-.-.-.-.=.*.;.;.=.=.=.;.Q O :                                     ",
"                                    ; * : ; % m I P *.-.-.;.;.;.-.-.-.-.;.=.;.Q % :                                     ",
"                                          * % m I P *.-.o.t r r e w Z ' [ *.;.Q % :                                     ",
"                                          * % m U I *.;.o.& % % % O B ' U ;.;.~ O *                                     ",
"                                          : % z G F  .O.( ; ; * * % V F G o.O.E % ;                                     ",
"                                          * : * : , 1 1 :       * * : , : < 1 ;                                         ",
"                                          * * * * * * * -       : * * * ; * * -                                         ",
"                                                                                                                        ",
"                                                                                                                        ",
"                                                                                                                        ",
"                                                                                                                        ",
"                                                                                                                        ",
"                                                                                                                        ",
"                                                                                                                        ",
"                                                                                                                        ",
"                                                                                                                        "
};
