/* XPM */
static char *fd355cfcd04043f5fd23dfa1c0073d41zcf7AYB784M1hKlq[] = {
/* columns rows colors chars-per-pixel */
"60 60 137 2 ",
"   c None",
".  c #1B2227",
"X  c #12232D",
"o  c #1B262B",
"O  c #1E282D",
"+  c #122530",
"@  c #162C37",
"#  c #1F2D34",
"$  c #1C2F39",
"%  c #1C3135",
"&  c #1F3139",
"*  c #262A2B",
"=  c #28292D",
"-  c #232D33",
";  c #232F3B",
":  c #2A2E3E",
">  c #213037",
",  c #21303A",
"<  c #2D2E40",
"1  c #342D45",
"2  c #3A2C49",
"3  c #233742",
"4  c #253844",
"5  c #273E4A",
"6  c #2B3F4A",
"7  c #462C52",
"8  c #4B2B56",
"9  c #58295F",
"0  c #453155",
"q  c #5C2A62",
"w  c #6A286C",
"e  c #294352",
"r  c #2B4759",
"t  c #2C4B5D",
"y  c #2C4D60",
"u  c #2F5469",
"i  c #305267",
"p  c #30556B",
"a  c #32586F",
"s  c #345B72",
"d  c #36617B",
"f  c #55524B",
"g  c #485157",
"h  c #49575F",
"j  c #595851",
"k  c #456070",
"l  c #4F6570",
"z  c #9A876E",
"x  c #9D8A71",
"c  c #316484",
"v  c #3A6683",
"b  c #3B6C8A",
"n  c #3D708E",
"m  c #3E7392",
"M  c #3F7B9E",
"N  c #3C7CA1",
"B  c #417798",
"V  c #427B9C",
"C  c #437EA0",
"Z  c #487FA1",
"A  c #96278D",
"S  c #99278F",
"D  c #9D2792",
"F  c #9E2892",
"G  c #A22896",
"H  c #5A859E",
"J  c #678B9E",
"K  c #688B9D",
"L  c #4581A5",
"P  c #4C83A2",
"I  c #4685AB",
"U  c #4986AC",
"Y  c #4A88AF",
"T  c #5286A5",
"R  c #5688A6",
"E  c #5287A8",
"W  c #5A8CAA",
"Q  c #4B8BB3",
"!  c #478FBA",
"~  c #4D8FB9",
"^  c #4590BE",
"/  c #4F93BD",
"(  c #4E92BC",
")  c #4E93BE",
"_  c #4E91BC",
"`  c #4F94BF",
"'  c #4F94BE",
"]  c #4C91BC",
"[  c #6292AF",
"{  c #6E93A9",
"}  c #6197B7",
"|  c #6E99B3",
" . c #749DB4",
".. c #79A1B8",
"X. c #4A94C0",
"o. c #4F95C0",
"O. c #4F95C0",
"+. c #4F97C2",
"@. c #4E95C0",
"#. c #5096C1",
"$. c #5096C1",
"%. c #5199C5",
"&. c #9D9E96",
"*. c #A19B8C",
"=. c #A8A395",
"-. c #A9AAA2",
";. c #B3B9BE",
":. c #B8BDBF",
">. c #DDB98E",
",. c #CBB291",
"<. c #DBB990",
"1. c #D4BC9D",
"2. c #E2BF95",
"3. c #E5C39B",
"4. c #E8C59B",
"5. c #EDC99E",
"6. c #EED1AB",
"7. c #FBD4A5",
"8. c #FFD8A8",
"9. c #B7BEC1",
"0. c #BABEC0",
"q. c #BBBFC0",
"w. c #BDC1C3",
"e. c #BFC2C4",
"r. c #BFC3C4",
"t. c #EEF3F5",
"y. c #F4F6F9",
"u. c #F6F9FA",
"i. c #F8FAFB",
"p. c #F9FAFB",
"a. c #F8F9F9",
"s. c #FAFBFC",
"d. c #F9FBFC",
"f. c #FBFCFD",
"g. c #FDFDFD",
"h. c white",
"j. c #FDFDFE",
/* pixels */
"                                                                                                                        ",
"                                                                                                                        ",
"                                                                                                                        ",
"                                                                                                                        ",
"                                                                                                                        ",
"                                                                                                                        ",
"                                                                                                                        ",
"                          = - - - - - = - - - = - - = - - = - - = - - = - - = - - - - *                                 ",
"                          - ; , , , , , , , , , , , , , & & , & & , , & , ; ; & , , , *                                 ",
"                          - , > ; , - > # , - $ , > , & - ; , - - > & ; > # ; - - > > *                                 ",
"                      - - , , # d m n n m b n m r # , V L L L L L P I P L L L L L L L r - >                             ",
"                      & % & , % b L L N N C L I y o & Q #.O.) O.' ' ] / ' O.' #.' ' ' y O #                             ",
"                      1 2 < % # b L L [ [ R m m k g h Q ~ ~ ) ) ] / / ] ( ( ( ( ) ' _ a e e * * *                       ",
"                > % 2 A F w % # b N R a.h.w.X + :.h.a.W C L ) ) / / ~ / ( ( ( ( ) _ _ _ ( Y , % -                       ",
"                > % 2 F F w % # b L W a.h.e.X X :.h.f.W M L ) ~ / ' ' ] ( ( ( ( _ / ] ' +.Q 4 % -                       ",
"                - > 2 F F w % # b N W a.h.r.X X :.h.f.W M L ) ) L v B Y / ( ( / ] ] _ V n v : > -                       ",
"                > % 2 F D w % $ b C W u.h.w.X X w.h.a.W V L ) #.d . * L ] _ ] / ] / ~ t O O > > -                       ",
"                > % 2 F G w % # b N W u.h.w.X X :.h.h.W N I ) #.d O O L ' ] / ~ / / _ t O % > > -                       ",
"                - & : 8 8 2 % - b L W u.h.w.X X :.h.a.W V L ) ( U B B Y / / _ / / ] ( L V n , , -                       ",
"                > , & % % % $ # b N W f.h.w.X X q.h.h.W N L ) _ ' ' ' ( ] / ] / / / / / ' Y e % -                       ",
"                - > > , & , < : v M H t.y.:.@ @ ;.u.t.R V L ) _ ( ( ( ( ( ( ] _ _ ] ( ( ( Y , & -                       ",
"                      , % q A A 0 & e P P P M m P T T L C I ) _ ( ( ( ( ( ( / / ( / ( ( / U : # -                       ",
"                      , % q F F 7 % 3 M L C L L V C M L V L ) _ ( ( ( ( ( ( ] / ( ( ( ( / Y : % -                       ",
"                      , % q F F 7 % 3 M C V V L M L V L C I _ _ ( ( ( ( ( ( / / ( ( ( ( ] Y e % -                       ",
"                      , % q F F 7 % , V V L V L L V L M V L ] ( ) ) ] ) _ _ ] ] ( / ] ] ) Q 4 # -                       ",
"                      , % q G F 7 % e V L V L M V L V L L L ] ] ) ] _ ' +.O.' %.' ' %.#.' Q 4 & -                       ",
"                      , % 2 9 9 : - e V M L V L L M L V V L U I Q ' ' d a a a s s s a a s p , , -                       ",
"                      , , # % % % > , m L V L V V L V L L L V L Y ) ) e O # # O # * # # O # , , -                       ",
"                      , , , , , > > 4 V L V L L L V L L V L V L U ) ) r , , , , & , > , ; , > - -                       ",
"                                - > , 4 4 u L V V L M Q Q ( Q Q ] ) ) Q Y C , , - * * * * * * * *                       ",
"                                - > , > O t L M M M M ^ ^ ] ] ^ ^ ] ^ ] X.U , , -                                       ",
"                                - > > , % t L L H K K ....................{ , - -                                       ",
"                                      > # t L N =.>.<.7.8.8.8.8.8.8.7.8.8.5.& & >                                       ",
"                                      , # y C N =.>.<.7.8.8.8.8.8.8.8.8.8.3.3 & >                                       ",
"                          * - = - = - - # y L N =.>.<.7.7.8.8.8.8.8.8.8.8.4., , =                                       ",
"                          - , , , , , ; # y L N =.>.<.7.8.8.8.8.8.8.8.8.8.4.: , -                                       ",
"                          = , , , - # $ # y C N =.>.<.7.8.8.8.8.8.7.8.8.8.3., , -                                       ",
"                          - , # b L C L C C C N =.<.<.7.8.8.8.8.8.8.8.8.8.3., & -                                       ",
"                          = , # C %.O.) O.~ C N =.>.>.7.8.8.8.8.8.8.8.7.8.4., , =                                       ",
"                          - , # m Q Y ~ ~ Q C N &.,.,.3.4.5.7.7.7.7.7.6.6.1., , -                                       ",
"                          = , , , , 5 V C C C C V P V e - j <.<.<.<.<. .' Y , , -                                       ",
"                          - , , , , 4 C L L C C L V V 3 X f 3.<.>.>.<.| ] U , , -                                       ",
"                          = - - $ - 3 d d b C V L U I s a l x z *.-.=.} X.U , , =                                       ",
"                                - , & # O t L C Q ' O.O.%.C X X c X.^ ) ' U , , -                                       ",
"                                - & , & - i I L Q ` ` ] O.L # # b %.+.+.%.Y , , -                                       ",
"                                = = * * * , t r n U I ] ' V # # e u u u u y - = *                                       ",
"                                          * % O d L L ~ ' L # , # # # # - *                                             ",
"                                          * % O d L M Y _ V # , ; , & - > >                                             ",
"                                                , 4 4 4 4 4 , , #                                                       ",
"                                                - , - % # ; , , ,                                                       ",
"                                                                                                                        ",
"                                                                                                                        ",
"                                                                                                                        ",
"                                                                                                                        ",
"                                                                                                                        ",
"                                                                                                                        ",
"                                                                                                                        ",
"                                                                                                                        ",
"                                                                                                                        ",
"                                                                                                                        "
};
