/* XPM */
static char *_0c905a3bc7b4727a727dde8f8d0a914XKlAtUlYvFrcDtcQ[] = {
/* columns rows colors chars-per-pixel */
"60 60 135 2 ",
"   c None",
".  c #1D2306",
"X  c #21270F",
"o  c #222710",
"O  c #252C13",
"+  c #25271B",
"@  c #252A1B",
"#  c #2A2E1C",
"$  c #2B311D",
"%  c #2B2C26",
"&  c #273420",
"*  c #2D3221",
"=  c #2C3821",
"-  c #313521",
";  c #323821",
":  c #3E3922",
">  c #433822",
",  c #4D3924",
"<  c #5D3626",
"1  c #513924",
"2  c #5C3925",
"3  c #6A3A26",
"4  c #703A28",
"5  c #3D4525",
"6  c #404726",
"7  c #404926",
"8  c #404728",
"9  c #454F28",
"0  c #4B5824",
"q  c #475129",
"w  c #49542A",
"e  c #4E5B2C",
"r  c #505C2C",
"t  c #65532C",
"y  c #55622E",
"u  c #566431",
"i  c #596630",
"p  c #5B6A31",
"a  c #5D7030",
"s  c #64762E",
"d  c #637435",
"f  c #697A36",
"g  c #4F5342",
"h  c #545749",
"j  c #565A49",
"k  c #5E6251",
"l  c #6D6E42",
"z  c #75674D",
"x  c #687247",
"c  c #767249",
"v  c #646658",
"b  c #7C7450",
"n  c #707B51",
"m  c #6C6F61",
"M  c #9D3B2D",
"N  c #A33C2D",
"B  c #B63D2F",
"V  c #BC3D31",
"C  c #C13E31",
"Z  c #CA3F33",
"A  c #827556",
"S  c #847558",
"D  c #6C812E",
"F  c #758A3B",
"G  c #798F3D",
"H  c #72853B",
"J  c #7D933E",
"K  c #7F9841",
"L  c #829B37",
"P  c #849D3B",
"I  c #86A038",
"U  c #809740",
"Y  c #869E42",
"T  c #87A042",
"R  c #89A143",
"E  c #8FAA44",
"W  c #8FA24A",
"Q  c #90A946",
"!  c #94AE49",
"~  c #93A34E",
"^  c #98BB45",
"/  c #97B14A",
"(  c #9AB54B",
")  c #9EBB4D",
"_  c #99A453",
"`  c #A0BD4E",
"'  c #ACBA5E",
"]  c #8C9671",
"[  c #B39A77",
"{  c #ACA967",
"}  c #B2B866",
"|  c #B6BB68",
" . c #BBB86E",
".. c #BEAF77",
"X. c #BBA07C",
"o. c #BFAF78",
"O. c #A6B676",
"+. c #C1A67F",
"@. c #C0AC7B",
"#. c #C1B877",
"$. c #C6B97B",
"%. c #9EC04B",
"&. c #A3C14F",
"*. c #A4C250",
"=. c #CBC978",
"-. c #888A80",
";. c #91948A",
":. c #B7B8B3",
">. c #BBBCB8",
",. c #C2A780",
"<. c #D6B58E",
"1. c #DAB791",
"2. c #DCBA93",
"3. c #B5C38F",
"4. c #BBC797",
"5. c #BECA9D",
"6. c #DFCE8A",
"7. c #C0CC9D",
"8. c #E1D38F",
"9. c #E3C097",
"0. c #E7C499",
"q. c #EAC79B",
"w. c #EECA9C",
"e. c #CCD5B1",
"r. c #CCD1B9",
"t. c #D3DABC",
"y. c #F3CDA1",
"u. c #FFD8AC",
"i. c #FFD9A9",
"p. c #FFDFB1",
"a. c #D5DDC0",
"s. c #D8DFC5",
"d. c #D9E0C7",
"f. c #FDFDFD",
"g. c white",
/* pixels */
"                                                                                                                        ",
"                                                                                                                        ",
"                                                                                                                        ",
"                                                                                                                        ",
"                                                                                                                        ",
"                            * - - - - - - - - - - - - - - - - - - - - - - - - - - - - - - - %                           ",
"                            - ; - ; ; ; - - - ; - - ; ; - - - - ; - ; - - - * - - - - - - - %                           ",
"                            ; ; ; 5 5 5 5 5 5 5 5 5 5 5 7 7 8 8 6 7 6 6 7 6 6 6 6 6 7 7 7 7 ; % %                       ",
"                      - ; ; ; $ e R Y Y Y Y Y Y Y Y Y Q ) ) ) ( ( ( ` ( ` ( ` ` ( ) ( ) ) ) d * -                       ",
"                      * = = ; = e R T R T T T R R T Y ! ` ` ` ` ` ` ` ` ` ` ` ` ` ` ` ` ` ` d $ ;                       ",
"                      < 4 4 ; $ e R R Y T R R Y T R Y Q / / ) ) ) ) ` ` / / / ( / / ( ( ` ` d $ ;                       ",
"                  ; = N Z C : * r R R Y R Y T R R Y R Y Y Y ( ` ` ) ` / Y Y Y Y Y Y Y R ` ` d * ;                       ",
"                  ; = M Z V : * r R R Y L L R W R P P P Y Y ) ` ` ` *.( Y Y Y Y Y Y Y ~ *.*.f # ;                       ",
"                  ; = M Z V : * e R P 4.s.s.x 0 n s.s.3.P Y ( ` ( p i H ) / / / ( / ) Y i p 9 - ;                       ",
"                  ; = M Z V : * r R L a.g.g.h o v g.g.e.L Y ) ` ! - + p ` ` ` ` ` ` ` U # # - - ;                       ",
"                  ; = M C B : * r R L t.g.f.j O v g.g.e.L Y ( ` / 6 - d ` ` ) ` ` ` ` U ; 5 ; = -                       ",
"                  ; ; : > > ; * r R L t.g.f.h O v g.g.e.L T ( ` ) / / ( ) ` ` ) ) ) ) ) / ( p * ;                       ",
"                  ; ; ; = ; = & e E P t.g.g.g . k g.f.e.L P ( ` ) ` ) ` ) ) ) ) &.) ) ) ` ` f * ;                       ",
"                  ; ; ; ; ; < < t F D r.g.g.-.v ;.g.g.e.L T ( ` ) ` ) ` ` ) ` ` ) ) ) ` ) ` d $ ;                       ",
"                      * ; > C Z M * o :.g.g.g.g.g.g.g.e.L T ( ` ) ` ) ) ) ) ) ) ` ` ) ) ` ` d * ;                       ",
"                      * ; : V Z M = O >.g.g.g.g.g.g.g.e.L T ( ` ` ) ) ) ` ) ) ) ) ) ) ` ` ` d $ ;                       ",
"                      % ; : V Z M = $ ] 5.5.5.5.5.5.5.O.P T ( ` ) ) ) ` ) ) ` ` ` ) ) ` ` ) d $ -                       ",
"                      - - : V Z M = * s I L L L L L L Y R T ( ` ) ` ) ` ) ) ) ) ) ) ) ) ` ` d * ;                       ",
"                      - ; > V Z M = $ f R R R T Y R T R T T ( ` ) ` ) ) ) ` ` ) ) ` ` ) ` ` d * ;                       ",
"                      - ; : , 1 , ; - f W W Y Y R R Y R R R R R W ) *.K 7 q 9 w 9 w q w q w 5 - ;                       ",
"                      - ; ; = = - - # f E Y Y Y R Y R Y Y Y Y R Y ` *.J # $ * - - - = - - - - ; ;                       ",
"                      % ; ; ; - - ; - a P G Y Y Y Y R R W R R Q Q ) ` P 7 w 5 = - - - - - - - - =                       ",
"                                % ; - - - - P Y R R Y ! ` ) ` ` ) ) ) ) ) *.p $ -                                       ",
"                                % ; ; ; ; ; P Y T P Y E ) ^ ) ^ ( ) ^ ) ^ &.p $ -                                       ",
"                                % * * - ; ; K Y W { {  .=.=.=.=.=.=.=.=.=.=.l $ -                                       ",
"                                      * ; ; K T _ 2.1.w.u.i.u.u.u.i.i.i.u.p.A $ -                                       ",
"                                      * - - J T _ 1.<.q.i.i.i.i.i.i.i.i.i.p.A $ -                                       ",
"                            ; * - - - - - ; J R _ 1.<.q.i.i.i.i.i.i.i.i.i.i.A $ $                                       ",
"                            ; - ; - - - - ; J R _ 1.<.q.i.i.i.i.i.i.i.i.i.p.A $ ;                                       ",
"                            - ; ; 6 5 8 6 6 J R _ 1.<.q.i.i.i.i.i.i.i.i.i.i.A O ;                                       ",
"                            - * u ) ) ( ( ) R P _ 1.<.q.i.i.i.i.i.i.i.y.i.p.A # ;                                       ",
"                            ; * i *.*.` ` ` R T _ 1.1.w.u.p.u.i.i.i.i.i.i.u.A # ;                                       ",
"                            ; ; w K J E ( / R T ~ ....o.,.+.0.y.y.w.y.w.6.8.c # -                                       ",
"                            ; ; - * # f R T T R T P R a @ O [ 2.<.<.1.#.^ %.p = ;                                       ",
"                            ; ; ; - * f Q R R T R Y R d @ @ X.9.2.1.2.$.%.&.p $ -                                       ",
"                            % % * - - w y y U R R / / W G K c z b } | ' ) *.p * -                                       ",
"                                  ; ; - * - J T E ` ) ` ` *.0 + 5 ( ) ) ) *.p * -                                       ",
"                                  ; ; ; - ; J Y R ) ` ` ` ` e $ 5 ( ) ) ) ` i * -                                       ",
"                                            : 5 r R R / ` ` r * ; 5 8 8 5 5 -                                           ",
"                                            - - 9 R Y / *.*.r * ; ; ; - - ; %                                           ",
"                                            % - 8 G H P W Y q - ; ; ; ; - ; %                                           ",
"                                                  - - * = = ; ; ;                                                       ",
"                                                  ; - - ; ; ; ; ;                                                       ",
"                                                                                                                        ",
"                                                                                                                        ",
"                                                                                                                        ",
"                                                                                                                        ",
"                                                                                                                        ",
"                                                                                                                        ",
"                                                                                                                        ",
"                                                                                                                        ",
"                                                                                                                        ",
"                                                                                                                        ",
"                                                                                                                        ",
"                                                                                                                        "
};
