/* XPM */
static char *e030f51c4dec4b09c7be4aa7da664896BcLR59LijuXX3ilw[] = {
/* columns rows colors chars-per-pixel */
"60 60 127 2 ",
"   c None",
".  c #270E0F",
"X  c #2C1212",
"o  c #281618",
"O  c #271C1B",
"+  c #2D1D1E",
"@  c #301E1E",
"#  c #351E20",
"$  c #381F21",
"%  c #2D2626",
"&  c #292828",
"*  c #342223",
"=  c #382021",
"-  c #3A2E21",
";  c #3A3021",
":  c #43191A",
">  c #432324",
",  c #4A2627",
"<  c #422728",
"1  c #4C2728",
"2  c #432929",
"3  c #492E2B",
"4  c #522629",
"5  c #542A2B",
"6  c #5A2B2C",
"7  c #523B34",
"8  c #612E2E",
"9  c #662F30",
"0  c #643031",
"q  c #6D3233",
"w  c #683F39",
"e  c #743435",
"r  c #763639",
"t  c #7C3639",
"y  c #7F393A",
"u  c #3E4C22",
"i  c #405E24",
"p  c #69433C",
"a  c #416224",
"s  c #426A25",
"d  c #447525",
"f  c #497026",
"g  c #467B25",
"h  c #5D4C4D",
"j  c #674B4C",
"k  c #705647",
"l  c #645455",
"z  c #6D5252",
"x  c #833A3B",
"c  c #8E3D3E",
"v  c #9B373A",
"b  c #903E3F",
"n  c #9C383B",
"m  c #91403F",
"M  c #933E41",
"N  c #9D3C41",
"B  c #954142",
"V  c #9F4345",
"C  c #944649",
"Z  c #A24346",
"A  c #A54548",
"S  c #A94649",
"D  c #A54C4C",
"F  c #AC4849",
"G  c #B44A4C",
"H  c #BC4E4F",
"J  c #BE4F50",
"K  c #A95551",
"L  c #BA5653",
"P  c #BC5F58",
"I  c #AD5E61",
"U  c #AD6063",
"Y  c #B67376",
"T  c #C14F51",
"R  c #C25051",
"E  c #C05855",
"W  c #C5615B",
"Q  c #C3685E",
"!  c #C46D61",
"~  c #CD7E6D",
"^  c #468125",
"/  c #478825",
"(  c #488A26",
")  c #499326",
"_  c #4B9D26",
"`  c #4CA226",
"'  c #BF856E",
"]  c #BB9C7B",
"[  c #C08770",
"{  c #C08870",
"}  c #C59F7F",
"|  c #A89A9B",
" . c #B0AAAA",
".. c #B8ABAB",
"X. c #D3A685",
"o. c #D6B38D",
"O. c #D8B78F",
"+. c #DBBB92",
"@. c #D2ABAC",
"#. c #D6B2B4",
"$. c #D7B2B4",
"%. c #D7B4B6",
"&. c #DAB9BA",
"*. c #DABBBC",
"=. c #EEC59B",
"-. c #F4C99E",
";. c #F1CB9F",
":. c #F2CDA0",
">. c #F3CEA1",
",. c #F3CDA0",
"<. c #FBCFA3",
"1. c #F9D3A5",
"2. c #F8D2A4",
"3. c #FCD0A4",
"4. c #FCD1A4",
"5. c #FAD4A5",
"6. c #FED7A8",
"7. c #FFD8A8",
"8. c #FFD8A9",
"9. c #FFD9A9",
"0. c #FFD9AA",
"q. c #FFDAAA",
"w. c #FFD8A8",
"e. c #F2E7E8",
"r. c #F3E9E9",
"t. c #FDFDFD",
"y. c white",
/* pixels */
"                                                                                                                        ",
"                                                                                                                        ",
"                                                                                                                        ",
"                                                                                                                        ",
"                                                                                                                        ",
"                                                                                                                        ",
"                                    = = = $ = = = = = = $ $ = = = = = $ = = = = = = = = = = = $ = =                     ",
"                                    = = = * # @ # # # # @ % # # @ @ @ @ @ @ @ @ @ @ + @ @ @ @ @ @ @                     ",
"                              % * * $ $ , t t t t t t t t t t x b b b b c b b c c b c c c c c m b m 0 % *               ",
"                              * $ $ = $ 5 A A Z Z Z Z A A Z Z G R T T T T T T T T T T T R T R J T R x @ =               ",
"                              * * = $ @ 5 A V Z V Z V Z V Z V F H H H H H H H H J H H H H H J H H H t @ =               ",
"                          = # s ) ( - @ 5 A Z Z Z V Z V V V Z Z Z A G H H H H G A Z A Z A Z Z S H H x @ =               ",
"                          = # f ` _ - @ 5 A V V N n A A Z n N V A Z G T H T R G V V V V V V V S T T y + =               ",
"                          = # d ` ) - $ 5 Z N I Y Y C x C Y Y I m Z G H H A Z A A A A A A A A A Z A e @ =               ",
"                          = $ d _ ) - # 5 A n #.y.y.l . h y.y.*.v V G J G = + 8 T H J H H J H V @ = = = =               ",
"                          = # f ` _ - # 5 Z v #.y.y.l X h y.y.&.v Z G T G = O 8 J J H H H H H V + @ @ = =               ",
"                          = $ u a i = $ 5 A v #.y.y.l X h t.y.&.v V G J H x y B H H H H H H J S x x 8 @ =               ",
"                          = = $ # # $ # 5 Z v #.y.y.l X h y.y.&.n V G J J T T J H H H H H H H J R R x @ =               ",
"                          = = = = = $ # 5 A v #.y.y.l X h t.y.&.v V G H H H H H H J H H H H H H H H x @ =               ",
"                              * = = g / f 4 : ..y.y.l X h t.y.&.n V G J H H J H H H H H H H J H H J x @ =               ",
"                              * = - ) _ ^ @ .  .y.y.l X h y.y.*.v V G J H H H H H H H H H H H H J J x + =               ",
"                              * $ * ) ` g $ X | r.r.z : j e.e.@.n V G J H H H H H H H H H H H H J H y @ =               ",
"                              % $ - ) _ ^ $ # r A A V V V A A A Z V G H H H H H H J H J J J H J J J y @ =               ",
"                              * $ = ) ` ^ $ # e Z V V V V V V V Z Z G H H H H H R T J T J T J T J R x @ =               ",
"                              * = = a d u # # e A V V Z V Z V Z Z V S F G L H G c c c c c c c c c m 0 * $               ",
"                              * = $ # # * = # e A Z Z Z Z V Z V V Z A V Z H H B + @ @ @ + @ + @ + + = = =               ",
"                              * = = = = * = + e A V V Z V V V V Z V V V Z J T V + = = = = = = = = = = = =               ",
"                              * = $ = = 1 x x M Z V F G G G G G G G G G F q 9 5 % % % % % % % % % % % % %               ",
"                              * = = = # 5 A A Z V Z G J J J J H H H H H G > + %                                         ",
"                              * = $ = # 5 Z Z A D S L E E E E L E E R E L > @ *                                         ",
"                                    = * 5 A N ' o.o.:.<.<.<.<.<.<.<.5.5.=.3 $ *                                         ",
"                                    = # 5 Z N [ +.O.1.0.0.6.6.6.7.6.6.q.;.3 $ *                                         ",
"                                    = @ 5 A N [ +.O.2.6.7.7.7.7.7.7.7.0.:.3 = *                                         ",
"                          = = = = = = * 5 Z N [ +.O.1.6.7.7.7.7.7.7.7.7.>.3 # *                                         ",
"                          = = # + @ + + 5 Z N [ +.O.1.6.7.7.6.0.7.7.7.0.>.3 = *                                         ",
"                          = # e c c c c c Z N [ +.O.1.6.7.7.7.6.7.7.7.7.>.3 = *                                         ",
"                          = # B R T R T H Z N [ +.O.1.0.6.6.6.6.7.7.7.0.;.3 @ =                                         ",
"                          = + B J H J H G V N ' +.O.>.6.6.6.6.6.6.7.6.7.;.3 @ %                                         ",
"                          = = > 1 5 V A Z V V D K K p 7 k +.+.+.+.+.[ E P > = *                                         ",
"                          = = = $ $ M Z Z V Z V N V > o 7 O.+.+.O.+.! T G > = *                                         ",
"                          = * = = = x M M V Z Z A S 9 4 w } ] } X.X.Q H G > * *                                         ",
"                              * $ = = $ 5 Z V F H H H T S @ + e T H H L G = = *                                         ",
"                              * = = = $ 5 A Z G T H H H F @ @ e R R R R H > = *                                         ",
"                                        2 e e M G F H T F = @ 6 x x x x y * * %                                         ",
"                                        & @ + e A Z G T S = = $ @ @ @ @ +                                               ",
"                                        & = # e A Z H T F = = = @ > $ @ =                                               ",
"                                        & % % < 5 6 6 6 5 $ =                                                           ",
"                                              * @ @ @ @ * = =                                                           ",
"                                                                                                                        ",
"                                                                                                                        ",
"                                                                                                                        ",
"                                                                                                                        ",
"                                                                                                                        ",
"                                                                                                                        ",
"                                                                                                                        ",
"                                                                                                                        ",
"                                                                                                                        ",
"                                                                                                                        ",
"                                                                                                                        ",
"                                                                                                                        "
};
