/* XPM */
static char *_0fb6e6702b34e42eb1a4b314f20f2d4ZTKrKrKhbKL5tyQ4[] = {
/* columns rows colors chars-per-pixel */
"60 60 155 2 ",
"   c None",
".  c #3F2E0F",
"X  c #332202",
"o  c #352914",
"O  c #382D15",
"+  c #342C1B",
"@  c #3E321C",
"#  c #3E3115",
"$  c #262728",
"%  c #2C2925",
"&  c #373025",
"*  c #3E3322",
"=  c #443213",
"-  c #4A3713",
";  c #4B3813",
":  c #42351C",
">  c #47391E",
",  c #4A3B1F",
"<  c #533F1D",
"1  c #433621",
"2  c #463A21",
"3  c #4E3E21",
"4  c #493C28",
"5  c #513F21",
"6  c #4F4021",
"7  c #534122",
"8  c #5C4926",
"9  c #474035",
"0  c #46413A",
"q  c #48433A",
"w  c #5E523C",
"e  c #624E28",
"r  c #624B24",
"t  c #64502B",
"y  c #6B552C",
"u  c #755927",
"i  c #785B27",
"p  c #715626",
"a  c #785F30",
"s  c #7B6131",
"d  c #3F4F6B",
"f  c #3D5172",
"g  c #484544",
"h  c #434751",
"j  c #424955",
"k  c #424B59",
"l  c #665A46",
"z  c #6C624F",
"x  c #7B6A4E",
"c  c #746A58",
"v  c #404E65",
"b  c #7F7565",
"n  c #9F792F",
"m  c #876A35",
"M  c #826733",
"N  c #8F7239",
"B  c #A27B2F",
"V  c #A67D30",
"C  c #877253",
"Z  c #987F5F",
"A  c #A17F40",
"S  c #AA8032",
"D  c #BE8F37",
"F  c #C99638",
"G  c #CB9839",
"H  c #D59F3A",
"J  c #D39C31",
"K  c #D7A13A",
"L  c #D9A23B",
"P  c #E4A731",
"I  c #E6A935",
"U  c #E9AB34",
"Y  c #E0A73D",
"T  c #E6AB3D",
"R  c #E9AD3E",
"E  c #ECB03F",
"W  c #A58240",
"Q  c #AF8A43",
"!  c #A78448",
"~  c #BC9449",
"^  c #9A8261",
"/  c #C59B4C",
"(  c #CBA04E",
")  c #D7A240",
"_  c #D8A340",
"`  c #D0A24C",
"'  c #CEA250",
"]  c #CCA45F",
"[  c #D3A652",
"{  c #D7A953",
"}  c #DCAD54",
"|  c #E6AC40",
" . c #E9AF42",
".. c #EBB143",
"X. c #E6B04C",
"o. c #EFB64C",
"O. c #F3B94F",
"+. c #E0AE58",
"@. c #E2AE54",
"#. c #E2B156",
"$. c #EEB750",
"%. c #E6B45B",
"&. c #E9B75B",
"*. c #EAB85B",
"=. c #F3BB51",
"-. c #F2BF5E",
";. c #CDAA7A",
":. c #D4AE73",
">. c #DEB575",
",. c #EBBF79",
"<. c #F6C15C",
"1. c #FAC45C",
"2. c #FFC85F",
"3. c #FDC761",
"4. c #FFCA62",
"5. c #FFD367",
"6. c #EDC076",
"7. c #ECC17A",
"8. c #FECC78",
"9. c #FFD07B",
"0. c #3265AE",
"q. c #3166B2",
"w. c #2577E3",
"e. c #237BEC",
"r. c #217CF2",
"t. c #9F988D",
"y. c #B1ABA1",
"u. c #B7B1A9",
"i. c #CDAD84",
"p. c #DAB582",
"a. c #D7B68F",
"s. c #D9B78E",
"d. c #DCBA8E",
"f. c #D7B790",
"g. c #D6B893",
"h. c #DEBC93",
"j. c #E8C599",
"k. c #E4C299",
"l. c #FFD99F",
"z. c #F8D39D",
"x. c #F7D1A4",
"c. c #F9D3A4",
"v. c #F4D9AE",
"b. c #FFD9A9",
"n. c #F3D7AA",
"m. c #F5DFBB",
"M. c #F7E0BB",
"N. c #E0DEDB",
"B. c #E8E6E4",
"V. c #E6E4E2",
"C. c #FBF3E6",
"Z. c #FCF6ED",
"A. c white",
"S. c #FEFEFE",
"D. c #FDFDFC",
/* pixels */
"                                                                                                                        ",
"                                                                                                                        ",
"                                                                                                                        ",
"                                                                                                                        ",
"                                                                                                                        ",
"                                                                                                                        ",
"                                                                                                                        ",
"                                                                                                                        ",
"                              & * * * * * * * * * * * * * * * * * * * @ * * * * * @ * * * * * &                         ",
"                              1 , , , 3 , , , 3 , 3 , 3 , , , , , , , , , , , , , , , , , , , 1                         ",
"                              1 , , 5 3 3 3 5 3 3 3 3 3 , 7 3 3 3 6 3 7 7 6 6 6 7 6 3 6 3 6 7 2                         ",
"                          2 2 , , 7 F H H H H H H H H H _ *.*.*.*.*.*.&.*.&.*.*.*.*.*.*.*.*.*./ 1 2                     ",
"                          ; ; 2 , 5 L R R R T R R R R T ..4.4.4.4.4.4.3.2.2.3.3.4.2.4.4.4.4.4.{ > ,                     ",
"                          k k q , 5 L R T | T | T T T T ..<.-.1.3.3.3.3.3.-.1.1.<.<.<.1.<.4.1.{ > ,                     ",
"                    , ; f r.r.f - 7 K T | T T T T T T T T T I o.4.4.4.4.1.T Y Y Y T I T T 1.3.[ > ,                     ",
"                    , - f r.r.f - 7 L T I P I P P P P P I T T o.4.1.4.4.4. .T I T T T T  .4.4.} > ,                     ",
"                    2 ; f r.r.f - 5 L I &.v.v.v.v.v.v.v.z.| L o.4.4.~ A Q $.=.=.=.=.=.=.$.Q W N , ,                     ",
"                    , ; f r.r.f - 7 L I 7.A.A.A.A.A.A.A.Z.| T o.4.4.s O 3 -.4.4.3.4.4.3.-.8 @ @ , 2                     ",
"                    2 ; f r.r.f - 5 L I 6.D.A.A.A.A.A.A.C.T T o.4.4.M @ 7 -.3.3.3.3.3.3.-.e > > , 2                     ",
"                    2 2 4 j j q , 7 ) I 6.A.A.u.z c B.A.C.T T o.4.4.#.} #.3.3.3.3.3.3.3.1.#.} ~ , ,                     ",
"                    3 , , ; ; 2 > < L U 6.A.A.t.X . N.A.C. .Y o.4.3.4.4.4.3.3.3.3.3.3.3.3.4.4.{ > ,                     ",
"                    1 1 3 , 3 4 g g F J >.A.A.y.w l V.A.C. .I o.4.3.3.3.3.3.3.3.3.3.3.3.3.4.4.[ > ,                     ",
"                          , ; 0.e.w.q = C A.A.D.D.D.A.A.C.T T o.4.3.3.3.3.3.3.3.3.3.3.3.3.4.3.[ > ,                     ",
"                          , ; 0.r.w.q = b A.A.A.A.A.A.A.Z. .T o.4.3.3.3.3.3.3.3.3.3.3.3.3.3.4.[ > ,                     ",
"                          , ; 0.r.w.q = x M.m.m.m.m.m.m.n.| Y o.4.3.3.3.3.3.3.3.3.3.1.4.3.4.4.[ > ,                     ",
"                          , ; 0.e.w.q : u U P P P P P P P T T o.4.3.3.3.3.3.3.4.3.3.4.4.3.4.4.[ > ,                     ",
"                          3 ; q.r.e.q : i R T T T T T  . .T T o.3.3.3.3.3.4.4.4.4.4.4.4.4.4.4.{ > ,                     ",
"                          , ; j d d 4 > u R T T T T T T T T T  .o...1.4.<.N m m m m m m m m m s , ,                     ",
"                          , 2 ; - ; , > i ..R R T T T T T T T T Y T =.4.*.6 * @ : > : : : : : : , ,                     ",
"                          3 2 > > > 3 : u Y L Y | | T T T  .T  .T  .1.4.<.e 8 7 , 2 , > 2 , 2 , > 2                     ",
"                                    2 , , 7 3 S  .T | T ..1.3.1.3.1.3.4.4.<.1./ : ,                                     ",
"                                    2 , , 2 : V R T T I ..3.1.3.1.4.1.1.1.4.4.( : ,                                     ",
"                                    * 1 1 2 @ V ..T #.+.%.8.8.8.8.8.8.8.8.8.9.] : 2                                     ",
"                                          , 1 V E T p.g.h.b.b.b.b.b.b.b.b.b.b.i.: 3                                     ",
"                                          , : V ..T p.f.h.b.b.b.b.b.b.b.b.b.b.i.# ,                                     ",
"                                          , : V E T p.a.d.b.b.b.b.b.b.b.b.b.M.i.: ,                                     ",
"                                , , 3 , , 3 : V E T p.f.h.b.b.b.b.b.b.b.b.b.b.i.# 3                                     ",
"                                , > 3 3 3 3 1 V E T p.f.h.b.b.b.b.b.c.b.b.c.b.i.@ ,                                     ",
"                                , 7 } *.%.%.&.X.I  .p.f.h.b.b.b.b.b.b.b.b.b.b.i.: ,                                     ",
"                                , 7 <.4.4.4.4.o.T T p.f.h.b.b.b.b.b.b.b.b.b.b.i.# 3                                     ",
"                                , 7 ' } #.1.1.o.Y | >.>.p.d.h.k.x.x.x.x.x.l.c.;.# 3                                     ",
"                                3 , > : u R T T T T | E H > # C h.a.a.a.s.1.5.( @ ,                                     ",
"                                , , , : i ..E R T T T T G @ o C k.h.f.f.s.3.4.( : 3                                     ",
"                                    3 > r V B F R T o.O.#.S ! ! ^ ^ :.7.,.3.4.' : 3                                     ",
"                                    2 3 2 @ + V ..T 1.4.4.4.5.~ o O ( 4.2.3.4.' : ,                                     ",
"                                    2 , , 3 1 V E R 1.4.3.3.4.~ @ : ` 5.4.4.4.' : ,                                     ",
"                                            $ 7 u p L ..o.3.4.~ @ > y s s s s t                                         ",
"                                            $ * > > G  ...4.5.~ @ , > > : : > *                                         ",
"                                            $ * 2 1 F K L *.*.Q : , , , , 2 3 *                                         ",
"                                                    1 3 3 6 3 3 > ,                                                     ",
"                                                    1 3 3 , , , , ,                                                     ",
"                                                                                                                        ",
"                                                                                                                        ",
"                                                                                                                        ",
"                                                                                                                        ",
"                                                                                                                        ",
"                                                                                                                        ",
"                                                                                                                        ",
"                                                                                                                        ",
"                                                                                                                        "
};
