/* XPM */
static char *result[] = {
/* columns rows colors chars-per-pixel */
"60 60 145 2 ",
"   c #3F2E0F",
".  c #332202",
"X  c #342C1B",
"o  c #3D321C",
"O  c #3E3522",
"+  c #443213",
"@  c #4A3713",
"#  c #4B3813",
"$  c #42351C",
"%  c #47391E",
"&  c #4A3B1F",
"*  c #533F1D",
"=  c #423621",
"-  c #463921",
";  c #4C3D21",
":  c #493C28",
">  c #513F21",
",  c #4F4021",
"<  c #534122",
"1  c #5C4926",
"2  c #474035",
"3  c #46413A",
"4  c #48433A",
"5  c #5E523C",
"6  c #624E28",
"7  c #624B24",
"8  c #645028",
"9  c #755A27",
"0  c #785B27",
"q  c #735C2E",
"w  c #775F30",
"e  c #785F30",
"r  c #7C6231",
"t  c #3F4F6B",
"y  c #3D5172",
"u  c #4C4742",
"i  c #444345",
"p  c #434751",
"a  c #424955",
"s  c #424B59",
"d  c #665A46",
"f  c #6C624F",
"g  c #7B6A4E",
"h  c #746A58",
"j  c #404E65",
"k  c #7F7565",
"l  c #9D762E",
"z  c #9F792F",
"x  c #826733",
"c  c #876935",
"v  c #8F7239",
"b  c #A27B2F",
"n  c #A67D30",
"m  c #A17F40",
"M  c #AA8032",
"N  c #BE8E34",
"B  c #B18533",
"V  c #C6953C",
"C  c #C99638",
"Z  c #CC9B3F",
"A  c #D69F3A",
"S  c #D39C31",
"D  c #D7A13C",
"F  c #D9A23B",
"G  c #E4A731",
"H  c #E6A935",
"J  c #E9AB34",
"K  c #E0A73D",
"L  c #E6AB3D",
"P  c #E9AE3E",
"I  c #ECB03F",
"U  c #A58240",
"Y  c #AC8642",
"T  c #AF8A43",
"R  c #BD954A",
"E  c #C59B4C",
"W  c #CBA04E",
"Q  c #D8A340",
"!  c #CDA250",
"~  c #CCA45F",
"^  c #D4A752",
"/  c #D6A853",
"(  c #DCAD54",
")  c #E6AC40",
"_  c #E9AF42",
"`  c #EBB143",
"'  c #E6B04B",
"]  c #EFB64D",
"[  c #F2B84F",
"{  c #E0AE58",
"}  c #E2AE54",
"|  c #E3B256",
" . c #EEB750",
".. c #E6B55B",
"X. c #E9B75B",
"o. c #EAB95B",
"O. c #F3BB51",
"+. c #F2BF5E",
"@. c #CDAA7A",
"#. c #DEB575",
"$. c #E9BF7A",
"%. c #F6C15C",
"&. c #FAC45C",
"*. c #FFC85F",
"=. c #FDC761",
"-. c #FFC962",
";. c #F5C46B",
":. c #EDC076",
">. c #ECC178",
",. c #FECC78",
"<. c #FFD07B",
"1. c #3265AE",
"2. c #3166B2",
"3. c #2577E3",
"4. c #237BEC",
"5. c #217CF2",
"6. c #9F988D",
"7. c #B1ABA1",
"8. c #B7B1A9",
"9. c #CDAD84",
"0. c #DAB582",
"q. c #D7B68F",
"w. c #D9B78E",
"e. c #DAB88D",
"r. c #D6B691",
"t. c #D6B893",
"y. c #DEBC94",
"u. c #E0BA85",
"i. c #F1D29E",
"p. c #FED49B",
"a. c #FFD99F",
"s. c #F7D1A4",
"d. c #F8D2A3",
"f. c #F3D7AA",
"g. c #F4D9AE",
"h. c #FFD8A9",
"j. c #F5DFBB",
"k. c #F7E0BB",
"l. c #E0DEDB",
"z. c #E6E4E2",
"x. c #E8E6E4",
"c. c #FBF3E6",
"v. c #FCF6ED",
"b. c #FFFFFF",
"n. c None",
/* pixels */
"n.n.n.n.n.n.n.n.n.n.n.n.n.n.n.n.n.n.n.n.n.n.n.n.n.n.n.n.n.n.n.n.n.n.n.n.n.n.n.n.n.n.n.n.n.n.n.n.n.n.n.n.n.n.n.n.n.n.n.n.",
"n.n.n.n.n.n.n.n.n.n.n.n.n.n.n.n.n.n.n.n.n.n.n.n.n.n.n.n.n.n.n.n.n.n.n.n.n.n.n.n.n.n.n.n.n.n.n.n.n.n.n.n.n.n.n.n.n.n.n.n.",
"n.n.n.n.n.n.n.n.n.n.n.n.n.n.n.n.n.n.n.n.n.n.n.n.n.n.n.n.n.n.n.n.n.n.n.n.n.n.n.n.n.n.n.n.n.n.n.n.n.n.n.n.n.n.n.n.n.n.n.n.",
"n.n.n.n.n.n.n.n.n.n.n.n.n.n.n.n.n.n.n.n.n.n.n.n.n.n.n.n.n.n.n.n.n.n.n.n.n.n.n.n.n.n.n.n.n.n.n.n.n.n.n.n.n.n.n.n.n.n.n.n.",
"n.n.n.n.n.n.n.n.n.n.n.n.n.n.n.n.n.n.n.n.n.n.n.n.n.n.n.n.n.n.n.n.n.n.n.n.n.n.n.n.n.n.n.n.n.n.n.n.n.n.n.n.n.n.n.n.n.n.n.n.",
"n.n.n.n.n.n.n.n.n.n.n.n.n.n.n.n.n.n.n.n.n.n.n.n.n.n.n.n.n.n.n.n.n.n.n.n.n.n.n.n.n.n.n.n.n.n.n.n.n.n.n.n.n.n.n.n.n.n.n.n.",
"n.n.n.n.n.n.n.n.n.n.n.n.n.n.n.n.n.n.n.n.n.n.n.n.n.n.n.n.n.n.n.n.n.n.n.n.n.n.n.n.n.n.n.n.n.n.n.n.n.n.n.n.n.n.n.n.n.n.n.n.",
"n.n.n.n.n.n.n.n.n.n.n.n.n.n.n.n.n.n.n.n.n.n.n.n.n.n.n.n.n.n.n.n.n.n.n.n.n.n.n.n.n.n.n.n.n.n.n.n.n.n.n.n.n.n.n.n.n.n.n.n.",
"n.n.n.n.n.n.n.n.n.n.n.n.n.n.n.n.n.n.n.n.n.n.n.n.n.n.n.n.n.n.n.n.n.n.n.n.n.n.n.n.n.n.n.n.n.n.n.n.n.n.n.n.n.n.n.n.n.n.n.n.",
"n.n.n.n.n.n.n.n.n.n.n.n.$ & & & & & & & & & & & & & & & & & & & & % & & - & & & & & & ; n.n.n.n.n.n.n.n.n.n.n.n.n.n.n.n.",
"n.n.n.n.n.n.n.n.n.n.n.n.- < , , , , < , , , > > , < , < , < , , , , , ; < , , , , , & & n.n.n.n.n.n.n.n.n.n.n.n.n.n.n.n.",
"n.n.n.n.n.n.n.n.n.n.- = E o.X.X.X.X.X.o.X.X.X.X.X.X.X.X.X.X.X.Q A A D A D A A A D C < & - - ; n.n.n.n.n.n.n.n.n.n.n.n.n.",
"n.n.n.n.n.n.n.n.n.n.& % / -.-.-.-.-.-.-.*.-.-.-.-.-.-.-.-.-.-.` P P P P P P P P P F > & & # # n.n.n.n.n.n.n.n.n.n.n.n.n.",
"n.n.n.n.n.n.n.n.n.n.& % ^ -.=.%.%.%.%.%.%.%.%.*.=.=.=.&.&.%.%.` L L L L L L L L P F > & 4 j s n.n.n.n.n.n.n.n.n.n.n.n.n.",
"n.n.n.n.n.n.n.n.n.n.& % ^ -.&.P L L J L L L _ &.=.=.=.-.] L L L L L L L L L L L L D > @ y 5.5.y # & n.n.n.n.n.n.n.n.n.n.",
"n.n.n.n.n.n.n.n.n.n.& % ( -.-.P K H L L L K P -.-.-.*.-.] L L G G G G G G G G L P F < @ y 5.5.y # & n.n.n.n.n.n.n.n.n.n.",
"n.n.n.n.n.n.n.n.n.n.& % v U T ] O.O.[ O.O.O. .Y m E -.-.] L P i.g.g.g.g.g.g.g.X.L D < @ y 4.5.y @ & n.n.n.n.n.n.n.n.n.n.",
"n.n.n.n.n.n.n.n.n.n.& ; o o 1 +.-.-.-.=.=.-.+.> X r -.-.] K L v.b.b.b.b.b.b.b.>.H F < @ y 5.5.j # & n.n.n.n.n.n.n.n.n.n.",
"n.n.n.n.n.n.n.n.n.n.& & % $ 6 +.=.=.=.=.=.-.+.< o x -.-.] L P c.b.b.b.b.b.b.b.:.H F < @ y 5.5.j # & n.n.n.n.n.n.n.n.n.n.",
"n.n.n.n.n.n.n.n.n.n.& % R ( ( =.=.=.=.=.=.=.=.| ( | -.-.] L K c.b.z.h f 8.b.b.:.H D > & 2 a s 2 & - n.n.n.n.n.n.n.n.n.n.",
"n.n.n.n.n.n.n.n.n.n.& % / -.-.=.=.=.=.=.=.=.=.-.-.-.=.-.] L L c.b.l.  . 6.b.b.:.J F * # # & & & & & n.n.n.n.n.n.n.n.n.n.",
"n.n.n.n.n.n.n.n.n.n.& % ^ *.-.-.=.=.=.=.=.=.=.=.=.=.=.=.] L P c.b.z.d 5 7.b.b.#.S V u i 4 - & - = = n.n.n.n.n.n.n.n.n.n.",
"n.n.n.n.n.n.n.n.n.n.& % ^ -.=.=.=.=.=.-.=.=.=.=.=.=.=.-.] L L c.b.b.b.b.b.b.b.k @ 3 3.4.1.@ & n.n.n.n.n.n.n.n.n.n.n.n.n.",
"n.n.n.n.n.n.n.n.n.n.& % ^ =.-.=.=.=.=.=.=.=.=.=.=.=.*.-.] K _ v.b.b.b.b.b.b.b.k + 3 3.5.1.# & n.n.n.n.n.n.n.n.n.n.n.n.n.",
"n.n.n.n.n.n.n.n.n.n.& % ^ -.-.=.-.=.-.-.=.=.=.=.=.=.=.-.] L L f.j.j.j.j.j.j.j.g + 3 3.5.1.# & n.n.n.n.n.n.n.n.n.n.n.n.n.",
"n.n.n.n.n.n.n.n.n.n.& % ^ -.-.-.=.=.=.-.=.=.=.=.=.=.=.-.] L L H G G G G G G J 9 % 4 3.5.1.# ; n.n.n.n.n.n.n.n.n.n.n.n.n.",
"n.n.n.n.n.n.n.n.n.n.& % ( -.-.-.-.-.-.-.-.-.-.=.=.*.-.=.] L L L L P L L K ) _ 9 % : 4.5.2.# & n.n.n.n.n.n.n.n.n.n.n.n.n.",
"n.n.n.n.n.n.n.n.n.n.& & w c c c c c c c c x v =.-.%.` ] _ ) L L L L L P P L P 9 = : j j p & & n.n.n.n.n.n.n.n.n.n.n.n.n.",
"n.n.n.n.n.n.n.n.n.n.& & % $ $ $ o $ $ $ o o , o.-.O.L K L L L L P P L L P I I 9 = & # # # - ; n.n.n.n.n.n.n.n.n.n.n.n.n.",
"n.n.n.n.n.n.n.n.n.n.% - % & - % - & & ; < 1 8 %.-.+.P _ _ ) _ L L L L L K F F 9 = ; - % & & - n.n.n.n.n.n.n.n.n.n.n.n.n.",
"n.n.n.n.n.n.n.n.n.n.n.n.n.n.n.n.n.n.& $ E %.+.=.-.=.=.&.&.=.=._ K L P I M ; < , & - n.n.n.n.n.n.n.n.n.n.n.n.n.n.n.n.n.n.",
"n.n.n.n.n.n.n.n.n.n.n.n.n.n.n.n.n.n.; $ W -.*.&.*.*.&.*.=.=.&._ L P K I M o & & & - n.n.n.n.n.n.n.n.n.n.n.n.n.n.n.n.n.n.",
"n.n.n.n.n.n.n.n.n.n.n.n.n.n.n.n.n.n., o ~ <.<.<.<.,.,.,.,.,.,...( { _ P n $ - = = O n.n.n.n.n.n.n.n.n.n.n.n.n.n.n.n.n.n.",
"n.n.n.n.n.n.n.n.n.n.n.n.n.n.n.n.n.n., o 9.h.h.h.h.h.h.h.h.h.h.y.t.0.P ` n O & n.n.n.n.n.n.n.n.n.n.n.n.n.n.n.n.n.n.n.n.n.",
"n.n.n.n.n.n.n.n.n.n.n.n.n.n.n.n.n.n.& o 9.h.h.h.h.h.h.h.h.h.h.e.w.0.P P n $ & n.n.n.n.n.n.n.n.n.n.n.n.n.n.n.n.n.n.n.n.n.",
"n.n.n.n.n.n.n.n.n.n.n.n.n.n.n.n.n.n.& + 9.h.h.h.h.h.h.h.h.h.h.y.w.0.P P n $ & n.n.n.n.n.n.n.n.n.n.n.n.n.n.n.n.n.n.n.n.n.",
"n.n.n.n.n.n.n.n.n.n.n.n.n.n.n.n.n.n., o 9.h.h.h.h.h.h.h.h.h.h.y.r.0.L I n $ - ; & & ; & n.n.n.n.n.n.n.n.n.n.n.n.n.n.n.n.",
"n.n.n.n.n.n.n.n.n.n.n.n.n.n.n.n.n.n.& o 9.h.h.h.h.h.h.h.a.h.h.y.q.0.L P n = ; ; ; ; & & n.n.n.n.n.n.n.n.n.n.n.n.n.n.n.n.",
"n.n.n.n.n.n.n.n.n.n.n.n.n.n.n.n.n.n.& o 9.h.h.h.h.d.h.h.h.h.d.y.q.0._ L ' X.X.o.o.( < & n.n.n.n.n.n.n.n.n.n.n.n.n.n.n.n.",
"n.n.n.n.n.n.n.n.n.n.n.n.n.n.n.n.n.n.& + 9.k.h.h.h.h.h.h.h.h.h.y.q.0.L L [ -.-.-.-.+.< & n.n.n.n.n.n.n.n.n.n.n.n.n.n.n.n.",
"n.n.n.n.n.n.n.n.n.n.n.n.n.n.n.n.n.n.& $ @.a.p.s.s.s.s.s.p.p.p.u.0.#.L L ] %.%.| { ^ < & n.n.n.n.n.n.n.n.n.n.n.n.n.n.n.n.",
"n.n.n.n.n.n.n.n.n.n.n.n.n.n.n.n.n.n.& $ W -.=.q.q.q.q.q.$.*.*.` L L L L L P P 9 o % & & n.n.n.n.n.n.n.n.n.n.n.n.n.n.n.n.",
"n.n.n.n.n.n.n.n.n.n.n.n.n.n.n.n.n.n.; $ W -.-.r.r.r.q.r.$.*.=._ H K L L P I ` 0 % & & & n.n.n.n.n.n.n.n.n.n.n.n.n.n.n.n.",
"n.n.n.n.n.n.n.n.n.n.n.n.n.n.n.n.n.n.; $ W -.-.>.$.$.$.$.;.*.=.O.[ [ L P C b n 7 % & n.n.n.n.n.n.n.n.n.n.n.n.n.n.n.n.n.n.",
"n.n.n.n.n.n.n.n.n.n.n.n.n.n.n.n.n.n.& $ W -.=.=.*.=.*.*.=.=.=.=.=.&.P P n X O % & - n.n.n.n.n.n.n.n.n.n.n.n.n.n.n.n.n.n.",
"n.n.n.n.n.n.n.n.n.n.n.n.n.n.n.n.n.n.& $ ! -.=.=.=.=.-.-.-.-.-.=.=.%.P I M o & & & - n.n.n.n.n.n.n.n.n.n.n.n.n.n.n.n.n.n.",
"n.n.n.n.n.n.n.n.n.n.n.n.n.n.n.n.n.n.; $ W -.*.` ` Z q w r e r o.-.&.L P n $ & n.n.n.n.n.n.n.n.n.n.n.n.n.n.n.n.n.n.n.n.n.",
"n.n.n.n.n.n.n.n.n.n.n.n.n.n.n.n.n.n.; $ ! -.-._ P N o $ $ $ $ X.-.&.P I n $ ; n.n.n.n.n.n.n.n.n.n.n.n.n.n.n.n.n.n.n.n.n.",
"n.n.n.n.n.n.n.n.n.n.n.n.n.n.n.n.n.n.- o R o.X.F F B $ & - - - / o. .A F l % & n.n.n.n.n.n.n.n.n.n.n.n.n.n.n.n.n.n.n.n.n.",
"n.n.n.n.n.n.n.n.n.n.n.n.n.n.n.n.n.n.n.n.- < , , < & & & n.n.n.; < ; , < & & & n.n.n.n.n.n.n.n.n.n.n.n.n.n.n.n.n.n.n.n.n.",
"n.n.n.n.n.n.n.n.n.n.n.n.n.n.n.n.n.n.n.n.= & ; ; ; & & & n.n.n.- & & & - ; & & n.n.n.n.n.n.n.n.n.n.n.n.n.n.n.n.n.n.n.n.n.",
"n.n.n.n.n.n.n.n.n.n.n.n.n.n.n.n.n.n.n.n.n.n.n.n.n.n.n.n.n.n.n.n.n.n.n.n.n.n.n.n.n.n.n.n.n.n.n.n.n.n.n.n.n.n.n.n.n.n.n.n.",
"n.n.n.n.n.n.n.n.n.n.n.n.n.n.n.n.n.n.n.n.n.n.n.n.n.n.n.n.n.n.n.n.n.n.n.n.n.n.n.n.n.n.n.n.n.n.n.n.n.n.n.n.n.n.n.n.n.n.n.n.",
"n.n.n.n.n.n.n.n.n.n.n.n.n.n.n.n.n.n.n.n.n.n.n.n.n.n.n.n.n.n.n.n.n.n.n.n.n.n.n.n.n.n.n.n.n.n.n.n.n.n.n.n.n.n.n.n.n.n.n.n.",
"n.n.n.n.n.n.n.n.n.n.n.n.n.n.n.n.n.n.n.n.n.n.n.n.n.n.n.n.n.n.n.n.n.n.n.n.n.n.n.n.n.n.n.n.n.n.n.n.n.n.n.n.n.n.n.n.n.n.n.n.",
"n.n.n.n.n.n.n.n.n.n.n.n.n.n.n.n.n.n.n.n.n.n.n.n.n.n.n.n.n.n.n.n.n.n.n.n.n.n.n.n.n.n.n.n.n.n.n.n.n.n.n.n.n.n.n.n.n.n.n.n.",
"n.n.n.n.n.n.n.n.n.n.n.n.n.n.n.n.n.n.n.n.n.n.n.n.n.n.n.n.n.n.n.n.n.n.n.n.n.n.n.n.n.n.n.n.n.n.n.n.n.n.n.n.n.n.n.n.n.n.n.n.",
"n.n.n.n.n.n.n.n.n.n.n.n.n.n.n.n.n.n.n.n.n.n.n.n.n.n.n.n.n.n.n.n.n.n.n.n.n.n.n.n.n.n.n.n.n.n.n.n.n.n.n.n.n.n.n.n.n.n.n.n.",
"n.n.n.n.n.n.n.n.n.n.n.n.n.n.n.n.n.n.n.n.n.n.n.n.n.n.n.n.n.n.n.n.n.n.n.n.n.n.n.n.n.n.n.n.n.n.n.n.n.n.n.n.n.n.n.n.n.n.n.n.",
"n.n.n.n.n.n.n.n.n.n.n.n.n.n.n.n.n.n.n.n.n.n.n.n.n.n.n.n.n.n.n.n.n.n.n.n.n.n.n.n.n.n.n.n.n.n.n.n.n.n.n.n.n.n.n.n.n.n.n.n."
};
