/* XPM */
static char *result[] = {
/* columns rows colors chars-per-pixel */
"60 60 154 2 ",
"   c #3F2E0F",
".  c #332202",
"X  c #352914",
"o  c #382D15",
"O  c #342C1B",
"+  c #3E321C",
"@  c #3E3115",
"#  c #262728",
"$  c #2C2925",
"%  c #373025",
"&  c #3E3322",
"*  c #443213",
"=  c #4A3713",
"-  c #4B3813",
";  c #42351C",
":  c #47391E",
">  c #4A3B1F",
",  c #533F1D",
"<  c #433621",
"1  c #463A21",
"2  c #4D3D21",
"3  c #493C28",
"4  c #513F21",
"5  c #4F4021",
"6  c #534122",
"7  c #5C4926",
"8  c #474035",
"9  c #46413A",
"0  c #48433A",
"q  c #5E523C",
"w  c #624E28",
"e  c #624B24",
"r  c #64502B",
"t  c #6A552C",
"y  c #715626",
"u  c #755A27",
"i  c #785B27",
"p  c #785F30",
"a  c #7B6131",
"s  c #3F4F6B",
"d  c #3D5172",
"f  c #484544",
"g  c #434751",
"h  c #424955",
"j  c #424B59",
"k  c #665A46",
"l  c #6C624F",
"z  c #7B6A4E",
"x  c #746A58",
"c  c #404E65",
"v  c #7F7565",
"b  c #9F792F",
"n  c #876935",
"m  c #826733",
"M  c #8F7239",
"N  c #A27B2F",
"B  c #A67D30",
"V  c #877253",
"C  c #987F5F",
"Z  c #A17F40",
"A  c #AA8032",
"S  c #BE8F37",
"D  c #C99638",
"F  c #CD9939",
"G  c #CA9839",
"H  c #D59F3A",
"J  c #D39C31",
"K  c #D7A13A",
"L  c #D9A23B",
"P  c #E4A731",
"I  c #E6A935",
"U  c #E9AB34",
"Y  c #E0A73D",
"T  c #E6AB3D",
"R  c #E9AD3E",
"E  c #ECB03F",
"W  c #A58240",
"Q  c #AF8A43",
"!  c #A78448",
"~  c #BC9449",
"^  c #9A8261",
"/  c #C59B4C",
"(  c #CBA04E",
")  c #D7A240",
"_  c #D8A340",
"`  c #D0A24C",
"'  c #CEA250",
"]  c #CCA45F",
"[  c #D3A652",
"{  c #D7A953",
"}  c #DCAD54",
"|  c #E6AC40",
" . c #E9AF42",
".. c #EBB143",
"X. c #E6B04C",
"o. c #EFB64C",
"O. c #F3B94F",
"+. c #E0AE58",
"@. c #E2AE54",
"#. c #E2B156",
"$. c #EEB750",
"%. c #E6B45B",
"&. c #E9B75B",
"*. c #EAB85B",
"=. c #F3BB51",
"-. c #F2BF5E",
";. c #CDAA7A",
":. c #D4AE73",
">. c #DEB575",
",. c #EBBF79",
"<. c #F6C15C",
"1. c #FAC45C",
"2. c #FFC85F",
"3. c #FDC761",
"4. c #FFCA62",
"5. c #FFD367",
"6. c #EDC076",
"7. c #ECC17A",
"8. c #FECC78",
"9. c #FFD07B",
"0. c #3265AE",
"q. c #3166B2",
"w. c #2577E3",
"e. c #237BEC",
"r. c #217CF2",
"t. c #9F988D",
"y. c #B1ABA1",
"u. c #B7B1A9",
"i. c #CDAD84",
"p. c #DAB582",
"a. c #D7B68F",
"s. c #D9B78E",
"d. c #DCBA8E",
"f. c #D7B790",
"g. c #D6B893",
"h. c #DEBC93",
"j. c #E8C599",
"k. c #E4C299",
"l. c #FFD99F",
"z. c #F8D39D",
"x. c #F7D1A4",
"c. c #F9D3A4",
"v. c #F3D7AA",
"b. c #F4D9AE",
"n. c #FFD9A9",
"m. c #F5DFBB",
"M. c #F7E0BB",
"N. c #E0DEDB",
"B. c #E8E6E4",
"V. c #E6E4E2",
"C. c #FBF3E6",
"Z. c #FCF6ED",
"A. c #FFFFFF",
"S. c None",
/* pixels */
"S.S.S.S.S.S.S.S.S.S.S.S.S.S.S.S.S.S.S.S.S.S.S.S.S.S.S.S.S.S.S.S.S.S.S.S.S.S.S.S.S.S.S.S.S.S.S.S.S.S.S.S.S.S.S.S.S.S.S.S.",
"S.S.S.S.S.S.S.S.S.S.S.S.S.S.S.S.S.S.S.S.S.S.S.S.S.S.S.S.S.S.S.S.S.S.S.S.S.S.S.S.S.S.S.S.S.S.S.S.S.S.S.S.S.S.S.S.S.S.S.S.",
"S.S.S.S.S.S.S.S.S.S.S.S.S.S.S.S.S.S.S.S.S.S.S.S.S.S.S.S.S.S.S.S.S.S.S.S.S.S.S.S.S.S.S.S.S.S.S.S.S.S.S.S.S.S.S.S.S.S.S.S.",
"S.S.S.S.S.S.S.S.S.S.S.S.S.S.S.S.S.S.S.S.S.S.S.S.S.S.S.S.S.S.S.S.S.S.S.S.S.S.S.S.S.S.S.S.S.S.S.S.S.S.S.S.S.S.S.S.S.S.S.S.",
"S.S.S.S.S.S.S.S.S.S.S.S.S.S.S.S.S.S.S.S.S.S.S.S.S.S.S.S.S.S.S.S.S.S.S.S.S.S.S.S.S.S.S.S.S.S.S.S.S.S.S.S.S.S.S.S.S.S.S.S.",
"S.S.S.S.S.S.S.S.S.S.S.S.S.S.S.S.S.S.S.S.S.S.S.S.S.S.S.S.S.S.S.S.S.S.S.S.S.S.S.S.S.S.S.S.S.S.S.S.S.S.S.S.S.S.S.S.S.S.S.S.",
"S.S.S.S.S.S.S.S.S.S.S.S.S.S.S.S.S.S.S.S.S.S.S.S.S.S.S.S.S.S.S.S.S.S.S.S.S.S.S.S.S.S.S.S.S.S.S.S.S.S.S.S.S.S.S.S.S.S.S.S.",
"S.S.S.S.S.S.S.S.S.S.S.S.S.S.S.S.S.S.S.S.S.S.S.S.S.S.S.S.S.S.S.S.S.S.S.S.S.S.S.S.S.S.S.S.S.S.S.S.S.S.S.S.S.S.S.S.S.S.S.S.",
"S.S.S.S.S.S.S.S.S.S.S.S.% & & & + & & & & & & < & & & & & + & & & & & & & & & & & < & & % S.S.S.S.S.S.S.S.S.S.S.S.S.S.S.",
"S.S.S.S.S.S.S.S.S.S.S.S.; > > > > > > > > > > > > > > > > > > 2 : 2 > > > > > 2 2 > > > < S.S.S.S.S.S.S.S.S.S.S.S.S.S.S.",
"S.S.S.S.S.S.S.S.S.S.S.S.1 6 6 > 6 5 > 6 5 5 6 > 6 5 5 5 5 5 2 5 5 5 5 2 5 5 5 5 5 5 > > & S.S.S.S.S.S.S.S.S.S.S.S.S.S.S.",
"S.S.S.S.S.S.S.S.S.S.1 < / *.*.&.*.*.*.*.&.*.&.*.*.*.*.*.*.*.*.L K H H H H H H H K D 2 2 > 1 1 S.S.S.S.S.S.S.S.S.S.S.S.S.",
"S.S.S.S.S.S.S.S.S.S.> : [ 4.4.4.4.4.4.4.2.4.4.2.4.4.3.4.4.4.4...T R R R R R R R R L 6 : : - > S.S.S.S.S.S.S.S.S.S.S.S.S.",
"S.S.S.S.S.S.S.S.S.S.> : [ 4.4.<.<.<.<.<.<.<.-.2.3.3.3.3.1.<.<. .T T T T T T T T R K 6 > 8 j j S.S.S.S.S.S.S.S.S.S.S.S.S.",
"S.S.S.S.S.S.S.S.S.S.> : [ 4.1.R T T I T T T | 1.3.3.3.4.o.T T T | T T T | T | | R K 4 = d r.r.d - > S.S.S.S.S.S.S.S.S.S.",
"S.S.S.S.S.S.S.S.S.S.> : } 4.4.| T T T I T T R 4.4.4.3.4.o.T T P P P P P P P P I T K 6 = d r.r.d - > S.S.S.S.S.S.S.S.S.S.",
"S.S.S.S.S.S.S.S.S.S.> 1 M W Q o.O.=.=.=.=.=.$.Q Z ~ 4.4.o.T | z.b.b.b.b.b.b.b.&.I L 6 - d r.r.d = > S.S.S.S.S.S.S.S.S.S.",
"S.S.S.S.S.S.S.S.S.S.> > + + 7 -.3.3.4.3.3.4.-.4 O a 4.4.o.I | Z.A.A.A.A.A.A.A.7.I L 4 - d r.r.d - > S.S.S.S.S.S.S.S.S.S.",
"S.S.S.S.S.S.S.S.S.S.> > : ; w -.3.3.3.3.3.4.-.6 + m 4.4.o.T | C.A.A.A.A.A.A.A.6.I L 4 - d r.r.d - > S.S.S.S.S.S.S.S.S.S.",
"S.S.S.S.S.S.S.S.S.S.2 : ~ } } 3.3.3.3.3.3.3.3.#.} %.2.4.o.L | C.A.V.x l u.A.A.6.I L 4 1 3 j j 8 : 2 S.S.S.S.S.S.S.S.S.S.",
"S.S.S.S.S.S.S.S.S.S.> : [ 4.4.3.3.3.3.3.3.3.3.4.4.4.3.4.o.T | C.A.N.  . t.A.A.6.R L , ; - - - > > > S.S.S.S.S.S.S.S.S.S.",
"S.S.S.S.S.S.S.S.S.S.> : [ 2.4.4.3.3.3.3.3.3.3.3.3.3.3.4.O.I | C.A.V.k q y.A.A.>.J D f f 9 2 > 2 < < S.S.S.S.S.S.S.S.S.S.",
"S.S.S.S.S.S.S.S.S.S.> : [ 4.4.3.3.3.3.3.3.3.3.3.3.3.3.4.o.Y | C.A.A.A.A.A.A.A.v = f w.r.0.- > S.S.S.S.S.S.S.S.S.S.S.S.S.",
"S.S.S.S.S.S.S.S.S.S.> : [ 4.3.3.3.3.3.3.3.3.3.3.3.3.3.4.o.T | Z.A.A.A.A.A.A.A.v * 3 w.r.0.- > S.S.S.S.S.S.S.S.S.S.S.S.S.",
"S.S.S.S.S.S.S.S.S.S.> : [ 4.4.3.3.3.4.4.3.3.3.3.3.3.3.4.O.T T v.m.m.m.m.m.m.m.z * 9 w.r.0.- > S.S.S.S.S.S.S.S.S.S.S.S.S.",
"S.S.S.S.S.S.S.S.S.S.2 : [ 2.4.4.3.3.3.4.3.3.3.3.2.3.3.3.o.T T P P P P P P P U u ; 9 w.r.0.- 2 S.S.S.S.S.S.S.S.S.S.S.S.S.",
"S.S.S.S.S.S.S.S.S.S.> : { 4.4.4.4.4.4.4.4.4.4.3.3.3.4.4.o.T T T | T | T T T  .u : 9 e.r.q.- > S.S.S.S.S.S.S.S.S.S.S.S.S.",
"S.S.S.S.S.S.S.S.S.S.> : a n n n n n n n n m M 3.3.<...o. .T T | T T T T T | R u ; 3 c s h - > S.S.S.S.S.S.S.S.S.S.S.S.S.",
"S.S.S.S.S.S.S.S.S.S.> 2 ; ; ; ; ; ; ; ; + + 5 *.4.=.T T T T | T | T T T T R E u : > - - - 2 2 S.S.S.S.S.S.S.S.S.S.S.S.S.",
"S.S.S.S.S.S.S.S.S.S.> : 1 > 1 : 1 : > 2 6 7 r <.4.-.T | | | | T T T T | L T L u ; > 1 > : > 1 S.S.S.S.S.S.S.S.S.S.S.S.S.",
"S.S.S.S.S.S.S.S.S.S.S.S.S.S.S.S.S.S.> ; / 1.-.3.4.3.1.3.3.1.3. .T T R E A 5 6 > > 1 S.S.S.S.S.S.S.S.S.S.S.S.S.S.S.S.S.S.",
"S.S.S.S.S.S.S.S.S.S.S.S.S.S.S.S.S.S.2 ; / 4.2.2.1.2.3.1.3.2.2. .I T T ..A + 2 > > 1 S.S.S.S.S.S.S.S.S.S.S.S.S.S.S.S.S.S.",
"S.S.S.S.S.S.S.S.S.S.S.S.S.S.S.S.S.S.2 ; ] 9.9.8.8.8.8.8.8.8.8.%.+.@.|  .B + 2 < & & S.S.S.S.S.S.S.S.S.S.S.S.S.S.S.S.S.S.",
"S.S.S.S.S.S.S.S.S.S.S.S.S.S.S.S.S.S.> @ i.n.n.n.n.n.n.n.n.n.n.h.g.p.T E B < 2 S.S.S.S.S.S.S.S.S.S.S.S.S.S.S.S.S.S.S.S.S.",
"S.S.S.S.S.S.S.S.S.S.S.S.S.S.S.S.S.S.> ; i.n.n.n.n.n.n.n.n.n.n.h.s.p.T E B + > S.S.S.S.S.S.S.S.S.S.S.S.S.S.S.S.S.S.S.S.S.",
"S.S.S.S.S.S.S.S.S.S.S.S.S.S.S.S.S.S.> @ i.M.n.n.n.n.n.n.n.n.n.h.s.p.T E B ; > S.S.S.S.S.S.S.S.S.S.S.S.S.S.S.S.S.S.S.S.S.",
"S.S.S.S.S.S.S.S.S.S.S.S.S.S.S.S.S.S.> ; i.n.n.n.n.n.c.n.n.n.n.d.f.p.T  .B ; 2 > > > > 5 S.S.S.S.S.S.S.S.S.S.S.S.S.S.S.S.",
"S.S.S.S.S.S.S.S.S.S.S.S.S.S.S.S.S.S.2 @ i.n.n.n.n.n.n.n.n.n.n.h.f.p.|  .B < 2 2 2 2 > > S.S.S.S.S.S.S.S.S.S.S.S.S.S.S.S.",
"S.S.S.S.S.S.S.S.S.S.S.S.S.S.S.S.S.S.2 * i.n.n.n.n.n.l.n.n.n.n.h.f.p.| I X.&.&.&.*.} 6 > S.S.S.S.S.S.S.S.S.S.S.S.S.S.S.S.",
"S.S.S.S.S.S.S.S.S.S.S.S.S.S.S.S.S.S.> * i.M.n.n.n.n.n.n.n.n.n.d.f.p.T T O.4.4.4.4.-.6 > S.S.S.S.S.S.S.S.S.S.S.S.S.S.S.S.",
"S.S.S.S.S.S.S.S.S.S.S.S.S.S.S.S.S.S.> ; ;.l.z.c.x.c.c.c.j.d.k.p.p.>.T T o.<.1.#.#.' 6 > S.S.S.S.S.S.S.S.S.S.S.S.S.S.S.S.",
"S.S.S.S.S.S.S.S.S.S.S.S.S.S.S.S.S.S.> ; ( 4.3.a.a.a.a.h.V   : F T T T T T R R u ; : > > S.S.S.S.S.S.S.S.S.S.S.S.S.S.S.S.",
"S.S.S.S.S.S.S.S.S.S.S.S.S.S.S.S.S.S.2 ; ( 4.4.f.f.g.d.k.V o + F T T | T R E ..i ; > > 2 S.S.S.S.S.S.S.S.S.S.S.S.S.S.S.S.",
"S.S.S.S.S.S.S.S.S.S.S.S.S.S.S.S.S.S.2 ; ( 4.3.,.7.:.^ ^ ^ A W X.O.o.I R D N B e : 2 S.S.S.S.S.S.S.S.S.S.S.S.S.S.S.S.S.S.",
"S.S.S.S.S.S.S.S.S.S.S.S.S.S.S.S.S.S.> ; ( 4.4.2.4.( o X ~ 5.4.4.4.1.T E B O & : > 1 S.S.S.S.S.S.S.S.S.S.S.S.S.S.S.S.S.S.",
"S.S.S.S.S.S.S.S.S.S.S.S.S.S.S.S.S.S.> ; ( 4.4.4.5.` ; ; ~ 4.4.4.4.<.R E B + > > > 1 S.S.S.S.S.S.S.S.S.S.S.S.S.S.S.S.S.S.",
"S.S.S.S.S.S.S.S.S.S.S.S.S.S.S.S.S.S.S.S.r a p p p t : + ~ 4.3.o...) u u 7 $ S.S.S.S.S.S.S.S.S.S.S.S.S.S.S.S.S.S.S.S.S.S.",
"S.S.S.S.S.S.S.S.S.S.S.S.S.S.S.S.S.S.S.S.& : ; : ; ; > ; ~ 4.4... .H ; ; % # S.S.S.S.S.S.S.S.S.S.S.S.S.S.S.S.S.S.S.S.S.S.",
"S.S.S.S.S.S.S.S.S.S.S.S.S.S.S.S.S.S.S.S.& 1 1 > > > > + Q *.*._ H D < 2 % # S.S.S.S.S.S.S.S.S.S.S.S.S.S.S.S.S.S.S.S.S.S.",
"S.S.S.S.S.S.S.S.S.S.S.S.S.S.S.S.S.S.S.S.S.S.S.S.S.S.2 > 2 6 5 5 4 < S.S.S.S.S.S.S.S.S.S.S.S.S.S.S.S.S.S.S.S.S.S.S.S.S.S.",
"S.S.S.S.S.S.S.S.S.S.S.S.S.S.S.S.S.S.S.S.S.S.S.S.S.S.2 > > > > > > < S.S.S.S.S.S.S.S.S.S.S.S.S.S.S.S.S.S.S.S.S.S.S.S.S.S.",
"S.S.S.S.S.S.S.S.S.S.S.S.S.S.S.S.S.S.S.S.S.S.S.S.S.S.S.S.S.S.S.S.S.S.S.S.S.S.S.S.S.S.S.S.S.S.S.S.S.S.S.S.S.S.S.S.S.S.S.S.",
"S.S.S.S.S.S.S.S.S.S.S.S.S.S.S.S.S.S.S.S.S.S.S.S.S.S.S.S.S.S.S.S.S.S.S.S.S.S.S.S.S.S.S.S.S.S.S.S.S.S.S.S.S.S.S.S.S.S.S.S.",
"S.S.S.S.S.S.S.S.S.S.S.S.S.S.S.S.S.S.S.S.S.S.S.S.S.S.S.S.S.S.S.S.S.S.S.S.S.S.S.S.S.S.S.S.S.S.S.S.S.S.S.S.S.S.S.S.S.S.S.S.",
"S.S.S.S.S.S.S.S.S.S.S.S.S.S.S.S.S.S.S.S.S.S.S.S.S.S.S.S.S.S.S.S.S.S.S.S.S.S.S.S.S.S.S.S.S.S.S.S.S.S.S.S.S.S.S.S.S.S.S.S.",
"S.S.S.S.S.S.S.S.S.S.S.S.S.S.S.S.S.S.S.S.S.S.S.S.S.S.S.S.S.S.S.S.S.S.S.S.S.S.S.S.S.S.S.S.S.S.S.S.S.S.S.S.S.S.S.S.S.S.S.S.",
"S.S.S.S.S.S.S.S.S.S.S.S.S.S.S.S.S.S.S.S.S.S.S.S.S.S.S.S.S.S.S.S.S.S.S.S.S.S.S.S.S.S.S.S.S.S.S.S.S.S.S.S.S.S.S.S.S.S.S.S.",
"S.S.S.S.S.S.S.S.S.S.S.S.S.S.S.S.S.S.S.S.S.S.S.S.S.S.S.S.S.S.S.S.S.S.S.S.S.S.S.S.S.S.S.S.S.S.S.S.S.S.S.S.S.S.S.S.S.S.S.S.",
"S.S.S.S.S.S.S.S.S.S.S.S.S.S.S.S.S.S.S.S.S.S.S.S.S.S.S.S.S.S.S.S.S.S.S.S.S.S.S.S.S.S.S.S.S.S.S.S.S.S.S.S.S.S.S.S.S.S.S.S.",
"S.S.S.S.S.S.S.S.S.S.S.S.S.S.S.S.S.S.S.S.S.S.S.S.S.S.S.S.S.S.S.S.S.S.S.S.S.S.S.S.S.S.S.S.S.S.S.S.S.S.S.S.S.S.S.S.S.S.S.S."
};
